<svg xmlns="http://www.w3.org/2000/svg" width="50" height="60" fill="none"><path fill="url(#a)" d="m21.9 40.5.3-.1c.4-.2.6-.6.5-1L12.2 10.9a.8.8 0 0 0-1-.5c-.4.2-.5.9-.4 1.3l10.4 28.2c.1.4.4.6.7.6Z"/><path fill="url(#b)" d="M3.8 40.6h.4l15-8.6c.2-.2.4-.6.2-1-.2-.2-.7-.4-1-.2l-15 8.5c-.2.2-.4.7-.2 1 .1.2.4.3.6.3Z"/><path fill="url(#c)" d="m25.8 10.2-13 49.2c-.2.4-.5.6-.9.6h-.1c-.5-.2-.7-.6-.6-1l13-49.2c.6-2-.3-4.2-2.1-5.2l-4.8-2.8a2 2 0 0 0-1.7 0A2 2 0 0 0 14.5 3l-13 49.3c0 .3-.3.5-.6.6H.6c-.5-.2-.7-.6-.6-1L13 2.6A3.6 3.6 0 0 1 18 .5L23 3.2a6.2 6.2 0 0 1 3 7Z"/><path fill="url(#d)" d="M17.2 1.8a2 2 0 0 0-1.6 0A2 2 0 0 0 14.5 3l-13 49.3c0 .3-.3.5-.6.6L14 2.7c.3-.6 1.4-1.8 3.2-1Z"/><path fill="url(#e)" d="m2.5 40.6 12 6.8 3.4-1.9v-1L5.9 38l-3.4 1.7v1Z"/><path fill="url(#f)" d="m2.5 39.7 12 6.8 3.4-2-12-6.8-3.4 2Z"/><path fill="url(#g)" d="M19.8 37.5v1l-3.4 2-12-7v-.9l3.4-1.5H8l8.5 4.6 3.4 1.8Z"/><path fill="url(#h)" d="M16.4 35.7v4.7l-12-6.8v-1l3.4-1.5h.1l8.5 4.6Z"/><path fill="url(#i)" d="m4.4 32.6 12 7 3.4-2-12-7-3.4 2Z"/><path fill="url(#j)" d="M21.6 30.5v1l-3.4 1.9-11.9-6.8v-1l2-1 1.4-.6 1.3.7 7.1 3.9 3.5 2Z"/><path fill="url(#k)" d="M18.1 28.6v4.8L6.3 26.6v-1l2-1H11l7.1 4Z"/><path fill="url(#l)" d="m6.3 25.6 11.9 6.9 3.4-2-11.9-6.9-3.4 2Z"/><path fill="url(#m)" d="M26.5 21.8v.9l-6.4 3.7-12-6.9v-1l4.6-2.3 2-1 1.8 1 3.6 2 6.4 3.6Z"/><path fill="url(#n)" d="M20.1 20v6.4L8 19.5v-1l4.6-2.3 7.4 3.9Z"/><path fill="url(#o)" d="m8.1 18.6 12 6.9 6.4-3.7-11.9-7-6.5 3.8Z"/><path fill="url(#p)" d="m33.7 47.5.3-.1c.4-.2.6-.6.5-1L23.7 17.6a.8.8 0 0 0-1-.5c-.4.2-.6.6-.5 1L32.9 47c.2.4.5.6.8.6Z"/><path fill="url(#q)" d="m30.8 38.6-.8.5L16 47h-.3c-.3 0-.5 0-.7-.3-.2-.3 0-.7.3-1L30 37.6c.3-.2.7 0 .9.3.2.3.3.6 0 .8Z"/><path fill="url(#r)" d="M12 60c.3 0 .6-.2.7-.6l11.7-43.9c.1-.4-.1-.8-.6-1-.4 0-.8.2-1 .7L11.3 59c-.1.4.1.8.6.9h.1Z"/><path fill="url(#s)" d="m49 30.9-1.2.6-12.5-18.3 14 8-.4 9.7Z"/><path fill="url(#t)" d="m48 33.9-13-7.4c0 1.5.6 3 1.8 3.7l3.7 2.1-.6 7.3v.2a4.2 4.2 0 0 0 1.8 3.3c.5.3-.1.9.2.8l1.2-.7c.3-.2.5-.6.5-1.2v-.3l-1-8.1 3.4 3.1c1.1.4 2.4-.3 2.6-1 .2-.3.3-.7.3-1.1v-1.5l-.8.8Z"/><path fill="url(#u)" d="m49 33.5-1.2.6v-2.6l1.1-.6v2.6Z"/><path fill="url(#v)" d="m49 32.5-1.2.6v-.5l1.1-.7v.6Z"/><path fill="url(#w)" d="M41.7 41.5c-.1.6-.5 1-.9 1.2a4.2 4.2 0 0 1-1.2-2.8c.2-.3.5-.5.9-.5l.6.3c-.2 0 .4 0 .4.4 0 .5-.4 1.1 0 1.4h.2Z"/><path fill="url(#x)" d="m47.8 31.5-13.8-8-.8-9.8 13.9 8 .7 9.8Z"/><path fill="url(#y)" d="M34 25.6v1.6a5 5 0 0 0 2.2 4l3.2 1.8-.7 7.3c0 1.2.8 2.8 1.9 3.4 1 .6 1.9.1 1.9-1v-.4l-1-8 4 2.2c1.3.8 2.3.2 2.3-1.3v-1.5l-13.8-8ZM40.6 42c-.4-.3-.8-.8-.8-1.3 0-.4.4-.6.8-.4.4.2.7.8.7 1.3 0 .4-.3.6-.7.4Z"/><path fill="url(#z)" d="m47.8 34.1-13.8-8v-2.6l13.8 8v2.6Z"/><path fill="url(#A)" d="m47.8 33.1-13.8-8v-.6l13.8 8v.6Z"/><path fill="url(#B)" d="m33.2 13.7 2.4-.6 13.8 8-2.3.6-13.9-8Z"/><path stroke="#FF8C2E" stroke-linecap="round" stroke-linejoin="round" stroke-width=".3" d="m35.3 24.1-.3-9.3M37 16l.2 4.7M45.8 21l.5 9.5M38.5 16.8v6.3M42 28l-.1-3.5M44.2 20l.2 3.6"/><path fill="url(#C)" d="M30 39 16 47v-.6l14-8-.1.7Z"/><defs><linearGradient id="a" x1="7.7" x2="31.9" y1="13.8" y2="45" gradientUnits="userSpaceOnUse"><stop stop-color="#1D3091"/><stop offset=".4" stop-color="#273A97"/><stop offset="1" stop-color="#3648A0"/></linearGradient><linearGradient id="b" x1="-.6" x2="23.6" y1="20.3" y2="51.5" gradientUnits="userSpaceOnUse"><stop stop-color="#1D3091"/><stop offset=".4" stop-color="#273A97"/><stop offset="1" stop-color="#3648A0"/></linearGradient><linearGradient id="d" x1="-.8" x2="24.6" y1="14.7" y2="47.3" gradientUnits="userSpaceOnUse"><stop stop-color="#1D3091"/><stop offset=".4" stop-color="#273A97"/><stop offset="1" stop-color="#3648A0"/></linearGradient><linearGradient id="e" x1="0" x2="20.3" y1="37.7" y2="47.8" gradientUnits="userSpaceOnUse"><stop stop-color="#265AA7"/><stop offset=".9" stop-color="#176BB4"/></linearGradient><linearGradient id="f" x1="1.9" x2="24.6" y1="39.9" y2="45.9" gradientUnits="userSpaceOnUse"><stop stop-color="#2C8CCC"/><stop offset="1" stop-color="#1B77B3"/></linearGradient><linearGradient id="g" x1="17" x2="20.2" y1="37.1" y2="37.9" gradientUnits="userSpaceOnUse"><stop offset=".3" stop-color="#1D3091"/><stop offset="1" stop-color="#034E9E"/></linearGradient><linearGradient id="h" x1="3.2" x2="23.5" y1="31.3" y2="41.4" gradientUnits="userSpaceOnUse"><stop stop-color="#265AA7"/><stop offset=".9" stop-color="#176BB4"/></linearGradient><linearGradient id="i" x1="3.7" x2="26.4" y1="32.9" y2="38.9" gradientUnits="userSpaceOnUse"><stop stop-color="#2C8CCC"/><stop offset="1" stop-color="#1B77B3"/></linearGradient><linearGradient id="j" x1="18.9" x2="22.1" y1="30" y2="30.9" gradientUnits="userSpaceOnUse"><stop offset=".3" stop-color="#1D3091"/><stop offset="1" stop-color="#034E9E"/></linearGradient><linearGradient id="k" x1="6.4" x2="26.7" y1="25" y2="35" gradientUnits="userSpaceOnUse"><stop stop-color="#265AA7"/><stop offset=".9" stop-color="#176BB4"/></linearGradient><linearGradient id="l" x1="5.6" x2="28.3" y1="25.8" y2="31.8" gradientUnits="userSpaceOnUse"><stop stop-color="#2C8CCC"/><stop offset="1" stop-color="#1B77B3"/></linearGradient><linearGradient id="m" x1="15.6" x2="23.8" y1="21.7" y2="17.4" gradientUnits="userSpaceOnUse"><stop offset=".3" stop-color="#1D3091"/><stop offset="1" stop-color="#034E9E"/></linearGradient><linearGradient id="n" x1="9.8" x2="30.1" y1="18.1" y2="28.1" gradientUnits="userSpaceOnUse"><stop stop-color="#265AA7"/><stop offset=".9" stop-color="#176BB4"/></linearGradient><linearGradient id="o" x1="7.7" x2="30.4" y1="17.6" y2="23.6" gradientUnits="userSpaceOnUse"><stop stop-color="#2C8CCC"/><stop offset="1" stop-color="#1F87CB"/></linearGradient><linearGradient id="p" x1="11.6" x2="35.8" y1="10.8" y2="42" gradientUnits="userSpaceOnUse"><stop stop-color="#1D3091"/><stop offset=".4" stop-color="#273A97"/><stop offset="1" stop-color="#3648A0"/></linearGradient><linearGradient id="q" x1="3.5" x2="27.7" y1="17.1" y2="48.3" gradientUnits="userSpaceOnUse"><stop stop-color="#1D3091"/><stop offset=".4" stop-color="#273A97"/><stop offset="1" stop-color="#3648A0"/></linearGradient><linearGradient id="s" x1="42" x2="43.4" y1="12" y2="37.1" gradientUnits="userSpaceOnUse"><stop offset=".1" stop-color="#FF8C2E"/><stop offset="1" stop-color="#F4B847"/></linearGradient><linearGradient id="t" x1="54" x2="42" y1="59.3" y2="31.1" gradientUnits="userSpaceOnUse"><stop offset=".3" stop-color="#EF6C00"/><stop offset="1" stop-color="#BF4A22"/></linearGradient><linearGradient id="u" x1="47.8" x2="48.9" y1="32.5" y2="32.5" gradientUnits="userSpaceOnUse"><stop stop-color="#82B9DD"/><stop offset="1" stop-color="#98C7EE"/></linearGradient><linearGradient id="v" x1="47.8" x2="48.9" y1="32.5" y2="32.5" gradientUnits="userSpaceOnUse"><stop offset=".1" stop-color="#293C95"/><stop offset="1" stop-color="#3B4C9D"/></linearGradient><linearGradient id="w" x1="45.6" x2="39.7" y1="45.4" y2="40" gradientUnits="userSpaceOnUse"><stop offset=".3" stop-color="#EF6C00"/><stop offset=".9" stop-color="#BF4A22"/></linearGradient><linearGradient id="x" x1="45.2" x2="36.2" y1="30.1" y2="15.7" gradientUnits="userSpaceOnUse"><stop offset="0" stop-color="#FFD380"/><stop offset=".6" stop-color="#F9C44F"/><stop offset="1" stop-color="#F6BA49"/></linearGradient><linearGradient id="y" x1="43.2" x2="35.1" y1="28.3" y2="38.3" gradientUnits="userSpaceOnUse"><stop stop-color="#FF9B4F"/><stop offset="1" stop-color="#FF804E"/></linearGradient><linearGradient id="z" x1="34" x2="47.8" y1="28.8" y2="28.8" gradientUnits="userSpaceOnUse"><stop stop-color="#BCD7EA"/><stop offset=".9" stop-color="#EEF8FF"/></linearGradient><linearGradient id="A" x1="34" x2="47.8" y1="28.8" y2="28.8" gradientUnits="userSpaceOnUse"><stop stop-color="#3B4C9D"/><stop offset=".6" stop-color="#4F5EA6"/><stop offset="1" stop-color="#5A68AC"/></linearGradient><linearGradient id="B" x1="30.6" x2="44.7" y1=".1" y2="23" gradientUnits="userSpaceOnUse"><stop stop-color="#FFB531"/><stop offset=".3" stop-color="#FFC75F"/><stop offset=".5" stop-color="#FFD583"/><stop offset=".7" stop-color="#FFDE99"/><stop offset=".8" stop-color="#FFE2A2"/></linearGradient><linearGradient id="C" x1="25" x2="23" y1="47" y2="42.6" gradientUnits="userSpaceOnUse"><stop stop-color="#3648A0"/><stop offset=".6" stop-color="#273A97"/><stop offset="1" stop-color="#1D3091"/></linearGradient><radialGradient id="c" cx="0" cy="0" r="1" gradientTransform="translate(22.3 -2.2) scale(59.7784)" gradientUnits="userSpaceOnUse"><stop stop-color="#5A68AC"/><stop offset=".2" stop-color="#4F5EA6"/><stop offset=".6" stop-color="#40509F"/><stop offset="1" stop-color="#3B4C9D"/></radialGradient><radialGradient id="r" cx="0" cy="0" r="1" gradientTransform="translate(22.3 -2.2) scale(59.7784)" gradientUnits="userSpaceOnUse"><stop stop-color="#5A68AC"/><stop offset=".2" stop-color="#4F5EA6"/><stop offset=".6" stop-color="#40509F"/><stop offset="1" stop-color="#3B4C9D"/></radialGradient></defs></svg>