<svg width="60" height="61" fill="none" xmlns="http://www.w3.org/2000/svg"><g clip-path="url(#a)"><path d="M56.473 24.342c-1.294 1.952.33 3.81-.753 6.303-1.082 2.493-4.774 2.94-4.774 2.94s.023 0 .023-.024c.024 0 .024-.023.047-.023.424-.282 2.094-1.576-.423-4.398-2.399-2.705-2.423-7.974-2-11.925.283-2.87.824-5.033.824-5.033.753-3.152 6.633-3.363 8.49.752 1.435 3.223 1.294 7.597-1.434 11.408Z" fill="url(#b)"/><path opacity=".84" d="M51.016 33.514c.424-.283 2.094-1.576-.423-4.399-2.399-2.704-2.423-7.973-2-11.924l2-2.963c3.598.117 5.762 3.598 2.07 11.195-1.882 3.88 2.516 5.88-1.647 8.09Z" fill="url(#c)"/><path d="M47.347 11.828c.752-1.623 3.269-.541 4.233 2.164.965 2.704-1.2 3.904-2.61 3.269-1.412-.659-1.623-5.433-1.623-5.433Z" fill="url(#d)"/><path d="M50.545 56.328c-.212.353-.541.588-1.012.753 0 0-.023 0-.047.023-2.187.706-6.938-.564-11.83-3.363-4.351-2.47-7.597-5.457-8.608-7.667-.047-.118-.094-.212-.141-.33-.26-.682-.26-1.27.023-1.74.024-.047.047-.07.07-.094.33-.47.941-.73 1.765-.823 1.2-.142 2.846.117 4.727.705 1.929.588 4.116 1.552 6.327 2.799 3.08 1.764 5.597 3.763 7.173 5.55.094.118.212.236.306.353.047.047.094.118.141.165 1.153 1.505 1.623 2.822 1.106 3.67Z" fill="#FFD577"/><path d="M59.554 59.198c-.33.588-.918.965-1.67 1.153-1.529.4-3.693 0-5.763-1.176-1.035-.588-1.905-1.294-2.563-2.046l-.047-.047c-1.294-1.482-1.788-3.105-1.106-4.258.118-.211.282-.4.47-.54l-13.57-6.892c0 .024-.024.047-.047.07-.894 1.506-3.505 1.718-6.186.612-.047-.023-.117-.047-.165-.07-.352-.165-.729-.33-1.081-.541-2.47-1.411-4.022-3.505-4.022-5.175 0-.235.023-.47.094-.681 1.529-7.715 6.068-9.267 12.983-7.433.07.024.094.024.094.024.54.14 1.082.306 1.623.494 2.493.846 5.056 1.881 7.479 3.128 2.705 1.364 5.221 2.987 7.291 4.868 1.834 1.67 3.316 3.552 4.233 5.669 1.412 3.222 2.047 9.337 2.188 11.054.117.658.07 1.27-.235 1.787Z" fill="url(#e)"/><path d="M53.345 40.688c-.211.023-1.129.188-2.046 1.716-.87 1.506-1.717 4.281-1.858 9.502 0 .236 0 .447-.024.683v.094c-.023 1.317.024 2.775.095 4.374V57.128l-.047-.047c-2.188.705-7.809-.823-12.701-3.622-4.351-2.47-6.727-5.198-7.738-7.409-.047-.023-.118-.047-.165-.07l.024-.094v-.165c.023-.612.047-1.223.094-1.835.023-.564.07-1.105.141-1.646.141-1.388.376-2.705.73-3.904 1.057-3.787 3.339-6.915 6.02-6.421 0 0 .706.164.988.235.07.023.094.023.094.023.541.142 1.082.306 1.623.494 2.493.847 5.057 1.882 7.48 3.128 2.704 1.388 5.22 2.987 7.29 4.893Z" fill="url(#f)"/><path opacity=".8" d="M59.554 59.2c-.329.588-.917.964-1.67 1.152.588-4.915.283-10.866-2.305-14.888-.447-.682-2.163-2.704-4.539-3.81-2.305-1.082-5.198-1.317-9.243-1.693l2.916-2.87 1.388-1.27c2.705 1.364 5.221 2.987 7.291 4.869 1.835 1.67 3.316 3.551 4.234 5.668 1.41 3.222 2.046 9.337 2.187 11.054.094.659.047 1.27-.259 1.788Z" fill="url(#g)"/><path d="M47.183 36.736c-.283-2.258-.047-5.857.517-9.502.235-1.435-1.6-.541-3.81-1.811-2.54-1.435-5.292-1.458-6.139 0-.141.259-.235.517-.235.823v.235c.564 2.446.964 4.916-.094 7.48-.541 2.257.376 4.586 2.258 5.55 2.187 1.152 6.42-.024 7.267-1.482.236-.376.306-.823.236-1.293Z" fill="url(#h)"/><path d="M49.298 23.354c-1.834 6.233-7.244 11.219-11.5 9.901-2.847-.87-5.199-6.985-3.81-13.335 1.857-8.514 7.078-10.278 11.43-9.032 4.374 1.27 5.715 6.233 3.88 12.466Z" fill="url(#i)"/><path d="M33.751 21.024c-1.498-3.625.753-8.208 3.905-9.83C40.807 9.57 47.11 9.57 49.063 13.05s-7.197-.611-10.655-.117c-3.034.423-4.657 8.09-4.657 8.09Z" fill="url(#j)"/><path d="M36.48 14.697c-.47 3.528 5.222 9.737 10.443 8.867 1.552-.259.965.47.823 2.023l-.282 3.293s7.503-6.257 3.152-14.677c-1.106-2.116-2.728-2.987-3.105-3.198-.376-.212-4.892-2.587-10.396 2.47-.352.329-.587.752-.635 1.222Z" fill="url(#k)"/><path d="M46.406 24.224c.07-.353.47-.988.894-1.364 1.293-1.106 2.234-.236 2.352.329.211.988-.824 3.787-2.023 3.951-.047 0-.094 0-.141.024-.965.047-1.059-1.082-1.082-1.412v-1.528Z" fill="url(#l)"/><path d="M11.994 13.393c-1.566-3.262-.13-6.394 1.2-7.23 1.331-.835 4.83 2.167 4.83 2.167l-6.03 5.063Z" fill="url(#m)"/><path d="M29.586 54.061c-.235.392-.6.653-1.122.835 0 0-.027 0-.053.026-2.427.784-7.7-.626-13.129-3.732-4.829-2.74-8.43-6.055-9.553-8.509-.052-.13-.104-.235-.156-.365-.288-.757-.288-1.41.026-1.932.026-.052.052-.078.078-.104.365-.522 1.044-.81 1.958-.914 1.33-.157 3.158.13 5.246.783 2.14.653 4.568 1.723 7.021 3.106 3.42 1.958 6.212 4.176 7.961 6.16.105.13.235.261.34.392.052.052.104.13.156.182 1.279 1.697 1.775 3.133 1.227 4.072Z" fill="#FFD577"/><path d="M39.557 57.247c-.366.653-1.018 1.07-1.854 1.28-1.67.443-4.097 0-6.394-1.306-1.149-.652-2.115-1.435-2.845-2.27l-.053-.053c-1.435-1.644-1.983-3.445-1.226-4.724a1.93 1.93 0 0 1 .522-.6l-15.06-7.648c0 .026-.027.052-.053.078-.47.81-1.357 1.253-2.506 1.41-1.253.156-2.793-.079-4.359-.731-.052-.026-.13-.053-.182-.079-.392-.182-.81-.365-1.201-.6-2.74-1.566-4.202-3.89-4.202-5.742 0-.261.026-.522.104-.757.783-3.942 1.775-7.518 3.915-8.849 2.506-1.566 6.108-.496 10.232.6.078.027.104.027.104.027.47.13.94.26 1.436.417.13.053.235.079.365.13 2.767.94 5.612 2.089 8.3 3.472 3.002 1.514 5.795 3.315 8.092 5.403 2.036 1.854 3.68 3.942 4.698 6.29 1.566 3.577 2.271 10.363 2.428 12.269.156.756.078 1.435-.261 1.983Z" fill="url(#n)"/><path d="m16.849 29.55-6.76 13.887c-1.254.157-2.794-.078-4.36-.731-.052-.026-.13-.052-.182-.078-.392-.183-.81-.366-1.201-.6-2.74-1.567-4.202-3.89-4.202-5.743 0-.26.026-.522.104-.757.783-3.941 1.775-7.517 3.915-8.848 2.506-1.566 6.108-.496 10.232.6.078.026.104.026.104.026.47.13.94.261 1.436.418l.914 1.827Z" fill="url(#o)"/><path d="M32.691 36.702c-.234.026-1.252.209-2.27 1.906-.966 1.67-1.906 4.75-2.062 10.545 0 .26 0 .495-.026.756v.105c-.026 1.461.026 3.08.104 4.855v.078l-.052-.052c-2.428.783-8.666-.914-14.095-4.02-4.829-2.74-7.648-5.846-8.77-8.3-.052-.026.052.026 0 0 0-.052.026-.209.026-.287a53.16 53.16 0 0 1 .104-2.036c.027-.627.079-1.227.157-1.827.157-1.54.418-3.002.81-4.333 1.174-4.202 3.706-7.674 6.681-7.126 0 0 .783.183 1.096.261.079.026.105.026.105.026.6.157 1.2.34 1.8.549 2.768.94 5.613 2.088 8.301 3.471 3.002 1.54 5.795 3.341 8.091 5.43Z" fill="url(#p)"/><path opacity=".5" d="M39.558 57.246c-.365.652-1.018 1.07-1.853 1.279.653-5.456.313-12.06-2.558-16.523-.496-.757-2.401-3.001-5.038-4.228-2.558-1.2-5.768-1.462-10.257-1.88l3.236-3.184 1.54-1.41c3.002 1.515 5.795 3.316 8.092 5.404 2.035 1.853 3.68 3.941 4.698 6.29 1.566 3.576 2.27 10.362 2.427 12.268.13.757.052 1.41-.287 1.984Z" fill="url(#q)"/><path d="M25.828 32.32c-.313-2.506.052-7.36.575-10.545.26-1.592-1.775-.6-4.229-2.01-2.819-1.592-5.873-1.618-6.812 0-.157.288-.261.575-.261.914v.261c.626 2.715 1.07 5.455-.105 8.3-.705 2.74.418 5.09 2.506 6.16 2.427 1.28 7.126-.026 8.065-1.644.261-.418.34-.914.261-1.436Z" fill="url(#r)"/><path d="M27.707 17.493c-.548 1.853-.652 4.046-1.697 5.533-2.845 4.098-7.125 6.526-10.597 5.482-3.158-.966-5.768-7.752-4.228-14.8C12.725 6.661 19.04 2.302 23.87 3.685c4.829 1.384 5.873 6.865 3.837 13.808Z" fill="url(#s)"/><path d="M31.282 16.892c-.73 2.636-2.715 5.116-5.194 7.126l.156-1.358s1.045-2.819 1.227-3.602c.183-.783-.809-1.879-.809-1.879.052-3.732-.652-4.515-1.905-4.855-.81-.235-5.534.261-9.997-1.435C11.236 9.53 9.226 5.12 12.54.526c3.915 3.367 8.457.392 13.886 2.637 2.193.913 3.576 2.297 4.411 3.915 0 0 0 .026.026.026 1.54 3.054 1.097 6.917.418 9.788Z" fill="url(#t)"/><path d="M26.22 16.943c.078-.444.574-1.253 1.096-1.697 1.618-1.383 2.793-.287 2.923.418.261 1.253-1.018 4.75-2.532 4.933-.052 0-.104 0-.156.026-1.201.079-1.305-1.357-1.358-1.775l.026-1.905Z" fill="url(#u)"/><path opacity=".5" d="M30.84 7.051c-1.15-1.957-3.003-3.367-5.352-3.288-3.393.13-10.806.913-12.946-3.263 3.915 3.367 8.457.392 13.886 2.636 2.219.914 3.602 2.297 4.411 3.915Z" fill="url(#v)"/></g><defs><linearGradient id="b" x1="49.665" y1="12.072" x2="58.603" y2="33.107" gradientUnits="userSpaceOnUse"><stop stop-color="#BB7241"/><stop offset=".297" stop-color="#B36C3E"/><stop offset=".756" stop-color="#9D5C38"/><stop offset="1" stop-color="#8F5133"/></linearGradient><linearGradient id="c" x1="48.05" y1="19.62" x2="55.988" y2="28.755" gradientUnits="userSpaceOnUse"><stop offset=".055" stop-color="#3E150D" stop-opacity=".893"/><stop offset=".436" stop-color="#46180D" stop-opacity=".533"/><stop offset="1" stop-color="#5B1F0D" stop-opacity="0"/></linearGradient><linearGradient id="d" x1="46.984" y1="12.119" x2="52.26" y2="17.131" gradientUnits="userSpaceOnUse"><stop stop-color="#2891D2"/><stop offset=".366" stop-color="#2388CE"/><stop offset=".974" stop-color="#156EC4"/><stop offset="1" stop-color="#146DC3"/></linearGradient><linearGradient id="e" x1="23.795" y1="45.985" x2="59.849" y2="45.985" gradientUnits="userSpaceOnUse"><stop stop-color="#77B6DE"/><stop offset=".062" stop-color="#73B4DE"/><stop offset=".126" stop-color="#66AFDC"/><stop offset=".191" stop-color="#52A5DA"/><stop offset=".215" stop-color="#48A1D9"/><stop offset=".753" stop-color="#77B6DE"/><stop offset=".94" stop-color="#2891D2"/></linearGradient><linearGradient id="f" x1="33.42" y1="32.729" x2="49.888" y2="55.582" gradientUnits="userSpaceOnUse"><stop stop-color="#96C8E6"/><stop offset=".128" stop-color="#87C0E3"/><stop offset=".462" stop-color="#65AFDE"/><stop offset=".737" stop-color="#50A5DA"/><stop offset=".918" stop-color="#48A1D9"/></linearGradient><linearGradient id="g" x1="41.779" y1="48.08" x2="59.85" y2="48.08" gradientUnits="userSpaceOnUse"><stop offset="0" stop-color="#146DC3"/><stop offset="1" stop-color="#407CB8" stop-opacity=".6"/></linearGradient><linearGradient id="h" x1="35.874" y1="38.088" x2="45.007" y2="29.119" gradientUnits="userSpaceOnUse"><stop offset=".213" stop-color="#E4A79A"/><stop offset=".678" stop-color="#DB8A79"/><stop offset="1" stop-color="#C77C6D"/></linearGradient><linearGradient id="j" x1="31.442" y1="22.81" x2="46.585" y2="9.847" gradientUnits="userSpaceOnUse"><stop offset=".17" stop-color="#BB7241"/><stop offset="1" stop-color="#83482F"/></linearGradient><linearGradient id="k" x1="41.133" y1="12.71" x2="50.922" y2="24.402" gradientUnits="userSpaceOnUse"><stop stop-color="#C27F4C"/><stop offset=".21" stop-color="#BB7241"/><stop offset=".394" stop-color="#B46D3F"/><stop offset=".667" stop-color="#A05E38"/><stop offset=".96" stop-color="#83482F"/></linearGradient><linearGradient id="m" x1="12.018" y1="17.133" x2="15.91" y2="5.005" gradientUnits="userSpaceOnUse"><stop offset=".233" stop-color="#835648"/><stop offset=".791" stop-color="#48170B"/></linearGradient><linearGradient id="n" x1=".144" y1="42.29" x2="39.895" y2="42.29" gradientUnits="userSpaceOnUse"><stop stop-color="#818CC4"/><stop offset=".065" stop-color="#7D88C2"/><stop offset=".132" stop-color="#707DBC"/><stop offset=".2" stop-color="#5C69B2"/><stop offset=".215" stop-color="#5664AF"/><stop offset=".613" stop-color="#818CC4"/><stop offset=".94" stop-color="#5664AF"/></linearGradient><linearGradient id="o" x1=".949" y1="31.029" x2="9.444" y2="34.618" gradientUnits="userSpaceOnUse"><stop stop-color="#818CC4"/><stop offset=".112" stop-color="#7A86C1"/><stop offset=".618" stop-color="#606DB4"/><stop offset=".918" stop-color="#5664AF"/></linearGradient><linearGradient id="p" x1="5.02" y1="32.465" x2="27.346" y2="45.74" gradientUnits="userSpaceOnUse"><stop stop-color="#818CC4"/><stop offset=".111" stop-color="#7682BF"/><stop offset=".36" stop-color="#6471B6"/><stop offset=".622" stop-color="#5A67B1"/><stop offset=".918" stop-color="#5664AF"/></linearGradient><linearGradient id="q" x1="19.842" y1="44.921" x2="39.897" y2="44.921" gradientUnits="userSpaceOnUse"><stop offset="0" stop-color="#3648AA"/><stop offset="1" stop-color="#3648AA" stop-opacity=".81"/></linearGradient><linearGradient id="r" x1="14.485" y1="32.662" x2="24.638" y2="22.692" gradientUnits="userSpaceOnUse"><stop offset=".087" stop-color="#E19D8F"/><stop offset=".311" stop-color="#DD9080"/><stop offset=".506" stop-color="#DB8A79"/><stop offset="1" stop-color="#B97162"/></linearGradient><linearGradient id="v" x1="12.546" y1="3.782" x2="30.842" y2="3.782" gradientUnits="userSpaceOnUse"><stop offset=".209" stop-color="#48170B"/><stop offset=".767" stop-color="#5B1F0D" stop-opacity=".6"/></linearGradient><radialGradient id="i" cx="0" cy="0" r="1" gradientUnits="userSpaceOnUse" gradientTransform="matrix(15.27315 -2.41692 4.0931 25.86544 33.64 25.176)"><stop offset=".125" stop-color="#E9B7AC"/><stop offset=".355" stop-color="#E7B0A4"/><stop offset=".54" stop-color="#E4A79A"/><stop offset="1" stop-color="#DE9585"/></radialGradient><radialGradient id="l" cx="0" cy="0" r="1" gradientUnits="userSpaceOnUse" gradientTransform="rotate(4.138 -419.419 484.989) scale(24.6548 24.6547)"><stop stop-color="#E7B1A6"/><stop offset=".381" stop-color="#E4A79A"/><stop offset=".86" stop-color="#DE9585"/></radialGradient><radialGradient id="s" cx="0" cy="0" r="1" gradientUnits="userSpaceOnUse" gradientTransform="rotate(-8.995 129.447 -58.918) scale(16.8783 28.5921)"><stop stop-color="#FBCFC5"/><stop offset=".396" stop-color="#F4C1B6"/><stop offset="1" stop-color="#E6A597"/></radialGradient><radialGradient id="t" cx="0" cy="0" r="1" gradientUnits="userSpaceOnUse" gradientTransform="matrix(34.7126 0 0 34.7125 12.08 4.043)"><stop offset=".233" stop-color="#835648"/><stop offset=".999" stop-color="#48170B"/></radialGradient><radialGradient id="u" cx="0" cy="0" r="1" gradientUnits="userSpaceOnUse" gradientTransform="rotate(4.138 -355.951 159.309) scale(30.8516)"><stop stop-color="#FDC4B8"/><stop offset="1" stop-color="#DE9585"/></radialGradient><clipPath id="a"><path fill="#fff" transform="translate(0 .5)" d="M0 0h60v60H0z"/></clipPath></defs></svg>