<svg xmlns="http://www.w3.org/2000/svg" width="69" height="60" fill="none"><path fill="url(#a)" d="m26.4 59.8-6.7-25.6c.4-.2.7-.6.7-1L0 44.3c0 .3 0 .7.4 1L25.7 60l.7-.2Z"/><path fill="url(#b)" d="m45.5 24.6.1 23.2-25.2-14.6-.1-23.3 25.2 14.7Z"/><path fill="url(#c)" d="m25.2 59 20.4-11.2-25.2-14.6L0 44.3 25.2 59Z"/><path fill="url(#d)" d="M15 47.2 20 50l-3.5 1.9-4.8-2.8 3.4-2Z"/><path fill="#FFE2A8" d="M44.1 44.5 22 31.5V13l22.2 12.9v18.6Z"/><path fill="url(#e)" d="M44.1 44.5 22 31.5v-8.7c4.7.6 8.6 17.2 22.2 5v16.7Z"/><path fill="#1D3091" d="M22 13v18.5l22.1 12.8v.2L22 31.5V13h.2Z"/><path fill="#3648A0" d="m21.2 9.9 25.3 14.6-1 .1L20.4 9.9h.9Z"/><path fill="url(#f)" d="m26.2 60 19-10.6c.4-.1.5-1 .4-1.6L25.3 59c0 .5.5 1.1.9 1Z"/><path fill="url(#g)" d="M18.6 38v.3l-1.7 1V39l1.7-1Z"/><path fill="#156DC0" d="M16.9 39v.3l-2-1v-.5l2 1.1Z"/><path fill="url(#h)" d="M21.7 39.7v.5l-1.7 1v-.5l1.7-1Z"/><path fill="#156DC0" d="M20 40.7v.4l-2-1v-.5l2 1.1Z"/><path fill="url(#i)" d="M24.8 41.5v.4l-1.7 1v-.5l1.7-1Z"/><path fill="#156DC0" d="M23.1 42.5v.4l-1.9-1v-.5l2 1.1Z"/><path fill="url(#j)" d="M28 43.3v.4l-1.8 1v-.4l1.7-1Z"/><path fill="#156DC0" d="M26.2 44.3v.4l-2-1v-.5l2 1.1Z"/><path fill="url(#k)" d="M31 45v.5l-1.7 1v-.4l1.7-1Z"/><path fill="#156DC0" d="M29.3 46.1v.4l-1.9-1V45l2 1.1Z"/><path fill="url(#l)" d="M34.1 46.9v.4l-1.7 1v-.4l1.7-1Z"/><path fill="#156DC0" d="M32.4 47.9v.4l-2-1v-.5l2 1Z"/><path fill="url(#m)" d="M37.2 48.7v.4l-1.7 1v-.4l1.7-1Z"/><path fill="#156DC0" d="M35.5 49.7v.4L33.6 49v-.4l2 1Z"/><path fill="url(#n)" d="M15.3 39.9v.4l-1.7 1v-.4l1.7-1Z"/><path fill="#156DC0" d="M13.6 40.9v.4l-2-1.1v-.4l2 1Z"/><path fill="url(#o)" d="M11.9 41.8v.5l-1.8 1v-.5l1.8-1Z"/><path fill="#156DC0" d="M10.1 42.8v.5l-1.9-1.1v-.4l2 1Z"/><path fill="url(#p)" d="M18.4 41.6v.5l-1.7 1v-.5l1.7-1Z"/><path fill="#156DC0" d="M16.7 42.7v.4l-2-1.1v-.4l2 1Z"/><path fill="url(#q)" d="M21.5 43.4v.5l-1.7 1v-.5l1.7-1Z"/><path fill="#156DC0" d="M19.8 44.5v.4l-2-1.1v-.4l2 1Z"/><path fill="url(#r)" d="M24.6 45.2v.5l-1.7 1v-.4l1.7-1Z"/><path fill="#156DC0" d="M22.9 46.2v.4l-2-1V45l2 1.1Z"/><path fill="url(#s)" d="M27.7 47v.5l-1.7 1V48l1.7-1Z"/><path fill="#156DC0" d="M26 48v.5l-2-1.1v-.5l2 1.1Z"/><path fill="url(#t)" d="M30.8 48.8v.4l-1.7 1v-.4l1.7-1Z"/><path fill="#156DC0" d="M29.1 49.8v.5l-2-1.2v-.4l2 1.1Z"/><path fill="url(#u)" d="M34 50.6v.5l-1.8 1v-.5l1.7-1Z"/><path fill="#156DC0" d="M32.2 51.6v.4l-2-1v-.5l2 1.1Z"/><path fill="url(#v)" d="M27.4 50.8v.5l-1.7 1v-.5l1.7-1Z"/><path fill="#156DC0" d="M25.6 51.8v.5L11.3 44v-.4l14.3 8.2Z"/><path fill="url(#w)" d="M30.5 52.6v.4l-1.8 1v-.4l1.8-1Z"/><path fill="#156DC0" d="M28.7 53.6v.4l-1.9-1.1v-.5l2 1.2Z"/><path fill="url(#x)" d="M21.7 36v.5l-1.7 1V37l1.7-1Z"/><path fill="#156DC0" d="M20 37v.4l-2-1v-.5l2 1.1Z"/><path fill="url(#y)" d="M24.8 37.8v.5l-1.7 1v-.5l1.7-1Z"/><path fill="#156DC0" d="M23 38.8v.4l-1.8-1v-.5l1.9 1.1Z"/><path fill="url(#z)" d="M27.9 39.6v.4l-1.7 1v-.4l1.7-1Z"/><path fill="#156DC0" d="M26.2 40.6v.4l-2-1v-.5l2 1.1Z"/><path fill="url(#A)" d="M31 41.4v.4l-1.7 1v-.4l1.7-1Z"/><path fill="#156DC0" d="M29.3 42.4v.4l-2-1v-.5l2 1.1Z"/><path fill="url(#B)" d="M34.1 43.2v.4l-1.7 1v-.4l1.7-1Z"/><path fill="#156DC0" d="M32.4 44.2v.4l-2-1V43l2 1.1Z"/><path fill="url(#C)" d="M37.2 45v.4l-1.7 1V46l1.7-1Z"/><path fill="#156DC0" d="M35.5 46v.4l-2-1.1v-.4l2 1Z"/><path fill="url(#D)" d="M40.3 46.8v.4l-1.7 1v-.4l1.7-1Z"/><path fill="#156DC0" d="M38.6 47.8v.4l-2-1.1v-.4l2 1Z"/><path fill="url(#E)" d="m18.6 38-1.7 1-2-1.2 1.8-1 1.9 1.1Z"/><path fill="url(#F)" d="m21.7 39.7-1.7 1-2-1 1.8-1 2 1Z"/><path fill="url(#G)" d="m24.8 41.5-1.7 1-1.9-1.1 1.7-1 2 1Z"/><path fill="url(#H)" d="m28 43.3-1.8 1-2-1.1 1.8-1 2 1Z"/><path fill="url(#I)" d="m31 45-1.7 1-1.9-1 1.7-1 2 1Z"/><path fill="url(#J)" d="m34.1 46.9-1.7 1-2-1.1 1.8-1 2 1Z"/><path fill="url(#K)" d="m37.2 48.7-1.7 1-1.9-1.1 1.7-1 2 1Z"/><path fill="url(#L)" d="M21.7 36 20 37l-2-1.1 1.8-1 1.9 1.1Z"/><path fill="url(#M)" d="m24.8 37.8-1.7 1-2-1.1 1.8-1 2 1.1Z"/><path fill="url(#N)" d="m27.9 39.6-1.7 1-2-1.1 1.8-1 1.9 1.1Z"/><path fill="url(#O)" d="m31 41.4-1.7 1-2-1.1 1.8-1 2 1Z"/><path fill="url(#P)" d="m34 43.2-1.6 1-2-1.1 1.8-1 1.9 1Z"/><path fill="url(#Q)" d="m37.2 45-1.7 1-2-1.1 1.8-1 2 1Z"/><path fill="url(#R)" d="m40.3 46.8-1.7 1-1.9-1.1 1.7-1 2 1Z"/><path fill="url(#S)" d="m15.3 39.9-1.8 1-1.9-1.1 1.8-1 1.9 1Z"/><path fill="url(#T)" d="m11.9 41.8-1.8 1-1.9-1 1.7-1 2 1Z"/><path fill="url(#U)" d="m18.4 41.7-1.7 1-2-1.1 1.8-1 1.9 1Z"/><path fill="url(#V)" d="m21.5 43.4-1.7 1-2-1 1.8-1 1.9 1Z"/><path fill="url(#W)" d="m24.6 45.2-1.7 1-2-1 1.8-1 1.9 1Z"/><path fill="url(#X)" d="M27.7 47 26 48l-2-1 1.8-1 1.9 1Z"/><path fill="url(#Y)" d="m30.8 48.8-1.7 1-2-1 1.8-1 1.9 1Z"/><path fill="url(#Z)" d="m33.9 50.6-1.7 1-2-1 1.8-1 1.9 1Z"/><path fill="url(#aa)" d="m27.4 50.8-1.7 1-14.4-8.3 1.7-1 14.4 8.3Z"/><path fill="url(#ab)" d="m30.5 52.6-1.8 1-1.9-1.1 1.7-1 2 1.1Z"/><path fill="url(#ac)" d="M46.6 24.9V47s0 .5-1 .8V24.6s1-.5 1 .3Z"/><path fill="url(#ad)" d="M56.1 4.7s.4 0 .4.2c.2 3 2.1 7.6 5.7 7.2 5.5-.6-4 3.4-4 3.4-.2 0-6.4-8.4-6.4-8.4l4.3-2.4Z"/><path fill="#5564AF" d="M52.5 5.4 54.3 7 67 14l.3-.2v-.4L60.5 6 60 4.4l-.8-.4-.3.2-.2.8-6.2-.1-.4.2.3.3Zm.4-.2 6 .2 1.1.8 6 6.7-13-7.7Z"/><path fill="#3648AA" d="M52.1 5.2s0 .2.2.2L66.8 14h.1v-.3L60 6.1l-.5-1.5-.7-.4-.5 1-6.2-.1H52Zm.8.3h5.8l1.2.7 6.4 7.2-13.4-8Z"/><path fill="url(#ae)" d="M60.8 2.7c0 .6-.2.9-.5 1h-.6v.7h-.2l-.4-.8.4-.3h.5c.2-.1.5-.3.5-.8l-.3-1.2a2 2 0 0 0-.8-.7s-.3-.2-.6 0h-.1l-.2.3-.1.2h-.1c-.1.1-.2.1-.2 0-.1-.3 0-.6.2-.8V.1h.1l.2-.2c.4-.1.8.2.8.2s.6.3 1 1c.3.4.4 1 .4 1.5Z"/><path fill="url(#af)" d="M60.6 2.8c0 .5 0 .7-.3.8-.2.2-.4.2-.6.2h-.2v.7l-.4-.2v-.8l.4-.2h.5c.2-.2.3-.4.3-.7 0-.5-.1-.8-.3-1.2-.3-.5-.7-.7-.8-.7 0 0-.2-.2-.5-.1h-.1l-.2.4-.1.2H58c-.1 0-.2 0-.2-.2a1.3 1.3 0 0 1 .4-.8.3.3 0 0 1 .1 0c.4-.2.8.1.8.1s.6.3 1 1c.3.4.4 1 .4 1.5Z"/><path fill="url(#ag)" d="M68.7 50.6C57.2 46 50.7 40 50.7 40l2-9.5c1.2-5 2.2-9.3 3-11l-.7-3.3a185 185 0 0 1-2-11.7l3.1.1s-.3 4 3 6.7c.4.4 1 .7 1.5.9 2.6.6 2.8-2.3 2.7-3.2 0-.1.2-.1.2 0l3 2.7-2.2 8.2-.4 4.1v.2a327.8 327.8 0 0 1 2.8 14.6c1.2 6 2.2 11.5 2 11.7Z"/><path fill="url(#ah)" d="M66.5 11.8c1 1.3 2.4 7.9 2.4 7.9l-4.3 1.6-.3-1.3 2.2-8.2Z"/><path fill="#B2412B" d="M55.5 23.3s-.1 0 0-.1c0-.1.5-2.3 1-3h.2v.1c-.5.7-1 2.9-1 3h-.2ZM57.3 22.3c-.1 0-.2 0-.1-.1 0-.1.2-1 .4-1.2 0 0 .1-.1.2 0v.1c-.2.2-.4.9-.4 1.1l-.1.1ZM60.1 24.7l-.1-.1-.1-2.2v-.1h.2l.1 2.3ZM62.4 26v-.1l-.3-2.3a.1.1 0 0 1 .2 0l.2 2.3v.1Z"/><path fill="url(#ai)" d="m54.6 12-.3.5-.1.1-.9 1.6-2.3-2-1.4-1.3s1.4-4.1 1.9-5c.4-.8.8-1.1 1.5-1.3h.2v.5l.1.2v.5l.2.3v.2l.8 4 .3 1.7Z"/><path fill="url(#aj)" d="M54.2 12.5v.1l-.9 1.6-2.3-2c1.1-.4 1.8-2.2 2.2-3.3l.2-1 .3 1.7.5 3Z" opacity=".6"/><path fill="url(#ak)" d="m64.3 20-.4 4.1-3.7-1.6-4.5-3-.7-3.2c1 1.7 7.5 1.8 9.6-2.5-1.2 2.5-.3 6.2-.3 6.2Z" opacity=".6"/><path fill="#B2412B" d="M63.9 24.3V24c-.9-.4-5.7-2.4-8.2-4.9v.5c3 3 8.2 4.7 8.2 4.7Z"/><path fill="url(#al)" d="M68.7 50.6C57.2 46 50.7 40 50.7 40l2-9.5c2.1 9.1 10.8 3.7 12.3-1a907 907 0 0 1 3.7 21Z" opacity=".6"/><defs><linearGradient id="a" x1="-5.4" x2="32.7" y1="51.4" y2="45" gradientUnits="userSpaceOnUse"><stop stop-color="#1D68AD"/><stop offset="1" stop-color="#288ECF"/></linearGradient><linearGradient id="b" x1="19.2" x2="43" y1="37.5" y2="22.6" gradientUnits="userSpaceOnUse"><stop stop-color="#3648A0"/><stop offset=".6" stop-color="#4C5BA3"/><stop offset="1" stop-color="#5664A5"/></linearGradient><linearGradient id="c" x1="2.4" x2="47.6" y1="46.1" y2="46.1" gradientUnits="userSpaceOnUse"><stop stop-color="#489ED6"/><stop offset=".5" stop-color="#6EB0D9"/><stop offset=".9" stop-color="#82BBDB"/></linearGradient><linearGradient id="d" x1="11.5" x2="19.9" y1="49.5" y2="49.5" gradientUnits="userSpaceOnUse"><stop stop-color="#3648A0"/><stop offset="1" stop-color="#5664A5"/></linearGradient><linearGradient id="e" x1="21.6" x2="60" y1="30" y2="40.4" gradientUnits="userSpaceOnUse"><stop offset=".1" stop-color="#FFBC2E"/><stop offset="1" stop-color="#FFD277" stop-opacity="0"/></linearGradient><linearGradient id="f" x1="42.6" x2="22" y1="49.7" y2="62.4" gradientUnits="userSpaceOnUse"><stop stop-color="#1D68AD"/><stop offset=".6" stop-color="#255FA9"/><stop offset="1" stop-color="#2D54A5"/></linearGradient><linearGradient id="g" x1="16.9" x2="18.6" y1="38.6" y2="38.6" gradientUnits="userSpaceOnUse"><stop stop-color="#2F51A4"/><stop offset="1" stop-color="#2163AB"/></linearGradient><linearGradient id="h" x1="20" x2="21.7" y1="40.4" y2="40.4" gradientUnits="userSpaceOnUse"><stop stop-color="#2F51A4"/><stop offset="1" stop-color="#2163AB"/></linearGradient><linearGradient id="i" x1="23.1" x2="24.8" y1="42.2" y2="42.2" gradientUnits="userSpaceOnUse"><stop stop-color="#2F51A4"/><stop offset="1" stop-color="#2163AB"/></linearGradient><linearGradient id="j" x1="26.2" x2="27.9" y1="44" y2="44" gradientUnits="userSpaceOnUse"><stop stop-color="#2F51A4"/><stop offset="1" stop-color="#2163AB"/></linearGradient><linearGradient id="k" x1="29.3" x2="31" y1="45.8" y2="45.8" gradientUnits="userSpaceOnUse"><stop stop-color="#2F51A4"/><stop offset="1" stop-color="#2163AB"/></linearGradient><linearGradient id="l" x1="32.4" x2="34.1" y1="47.6" y2="47.6" gradientUnits="userSpaceOnUse"><stop stop-color="#2F51A4"/><stop offset="1" stop-color="#2163AB"/></linearGradient><linearGradient id="m" x1="35.5" x2="37.2" y1="49.4" y2="49.4" gradientUnits="userSpaceOnUse"><stop stop-color="#2F51A4"/><stop offset="1" stop-color="#2163AB"/></linearGradient><linearGradient id="n" x1="13.6" x2="15.3" y1="40.6" y2="40.6" gradientUnits="userSpaceOnUse"><stop stop-color="#2F51A4"/><stop offset="1" stop-color="#2163AB"/></linearGradient><linearGradient id="o" x1="10.1" x2="11.9" y1="42.5" y2="42.5" gradientUnits="userSpaceOnUse"><stop stop-color="#2F51A4"/><stop offset="1" stop-color="#2163AB"/></linearGradient><linearGradient id="p" x1="16.7" x2="18.4" y1="42.3" y2="42.3" gradientUnits="userSpaceOnUse"><stop stop-color="#2F51A4"/><stop offset="1" stop-color="#2163AB"/></linearGradient><linearGradient id="q" x1="19.8" x2="21.5" y1="44.1" y2="44.1" gradientUnits="userSpaceOnUse"><stop stop-color="#2F51A4"/><stop offset="1" stop-color="#2163AB"/></linearGradient><linearGradient id="r" x1="22.9" x2="24.6" y1="45.9" y2="45.9" gradientUnits="userSpaceOnUse"><stop stop-color="#2F51A4"/><stop offset="1" stop-color="#2163AB"/></linearGradient><linearGradient id="s" x1="26" x2="27.7" y1="47.7" y2="47.7" gradientUnits="userSpaceOnUse"><stop stop-color="#2F51A4"/><stop offset="1" stop-color="#2163AB"/></linearGradient><linearGradient id="t" x1="29.1" x2="30.8" y1="49.5" y2="49.5" gradientUnits="userSpaceOnUse"><stop stop-color="#2F51A4"/><stop offset="1" stop-color="#2163AB"/></linearGradient><linearGradient id="u" x1="32.2" x2="33.9" y1="51.3" y2="51.3" gradientUnits="userSpaceOnUse"><stop stop-color="#2F51A4"/><stop offset="1" stop-color="#2163AB"/></linearGradient><linearGradient id="v" x1="25.7" x2="27.4" y1="51.6" y2="51.6" gradientUnits="userSpaceOnUse"><stop stop-color="#2F51A4"/><stop offset="1" stop-color="#2163AB"/></linearGradient><linearGradient id="w" x1="28.7" x2="30.5" y1="53.3" y2="53.3" gradientUnits="userSpaceOnUse"><stop stop-color="#2F51A4"/><stop offset="1" stop-color="#2163AB"/></linearGradient><linearGradient id="x" x1="20" x2="21.7" y1="36.7" y2="36.7" gradientUnits="userSpaceOnUse"><stop stop-color="#2F51A4"/><stop offset="1" stop-color="#2163AB"/></linearGradient><linearGradient id="y" x1="23.1" x2="24.8" y1="38.5" y2="38.5" gradientUnits="userSpaceOnUse"><stop stop-color="#2F51A4"/><stop offset="1" stop-color="#2163AB"/></linearGradient><linearGradient id="z" x1="26.2" x2="27.9" y1="40.3" y2="40.3" gradientUnits="userSpaceOnUse"><stop stop-color="#2F51A4"/><stop offset="1" stop-color="#2163AB"/></linearGradient><linearGradient id="A" x1="29.3" x2="31" y1="42.1" y2="42.1" gradientUnits="userSpaceOnUse"><stop stop-color="#2F51A4"/><stop offset="1" stop-color="#2163AB"/></linearGradient><linearGradient id="B" x1="32.4" x2="34.1" y1="43.9" y2="43.9" gradientUnits="userSpaceOnUse"><stop stop-color="#2F51A4"/><stop offset="1" stop-color="#2163AB"/></linearGradient><linearGradient id="C" x1="35.5" x2="37.2" y1="45.7" y2="45.7" gradientUnits="userSpaceOnUse"><stop stop-color="#2F51A4"/><stop offset="1" stop-color="#2163AB"/></linearGradient><linearGradient id="D" x1="38.6" x2="40.3" y1="47.5" y2="47.5" gradientUnits="userSpaceOnUse"><stop stop-color="#2F51A4"/><stop offset="1" stop-color="#2163AB"/></linearGradient><linearGradient id="E" x1="-7.9" x2="40.6" y1="33.7" y2="41.9" gradientUnits="userSpaceOnUse"><stop offset=".1" stop-color="#7FB9DB"/><stop offset="1" stop-color="#BEE3F8"/><stop offset="1" stop-color="#B2D4E7"/></linearGradient><linearGradient id="F" x1="-8.1" x2="40.4" y1="34.9" y2="43.2" gradientUnits="userSpaceOnUse"><stop offset=".1" stop-color="#7FB9DB"/><stop offset="1" stop-color="#B0D3E7"/><stop offset="1" stop-color="#B2D4E7"/></linearGradient><linearGradient id="G" x1="-8.3" x2="40.2" y1="36.1" y2="44.4" gradientUnits="userSpaceOnUse"><stop offset=".1" stop-color="#7FB9DB"/><stop offset="1" stop-color="#B0D3E7"/><stop offset="1" stop-color="#B2D4E7"/></linearGradient><linearGradient id="H" x1="-8.5" x2="40" y1="37.3" y2="45.6" gradientUnits="userSpaceOnUse"><stop offset=".1" stop-color="#7FB9DB"/><stop offset="1" stop-color="#B0D3E7"/><stop offset="1" stop-color="#B2D4E7"/></linearGradient><linearGradient id="I" x1="-8.7" x2="39.7" y1="38.5" y2="46.8" gradientUnits="userSpaceOnUse"><stop offset=".1" stop-color="#7FB9DB"/><stop offset="1" stop-color="#B0D3E7"/><stop offset="1" stop-color="#B2D4E7"/></linearGradient><linearGradient id="J" x1="-8.9" x2="39.5" y1="39.8" y2="48.1" gradientUnits="userSpaceOnUse"><stop offset=".1" stop-color="#7FB9DB"/><stop offset="1" stop-color="#B0D3E7"/><stop offset="1" stop-color="#B2D4E7"/></linearGradient><linearGradient id="K" x1="-9.1" x2="39.3" y1="41" y2="49.3" gradientUnits="userSpaceOnUse"><stop offset=".1" stop-color="#7FB9DB"/><stop offset="1" stop-color="#B0D3E7"/><stop offset="1" stop-color="#B2D4E7"/></linearGradient><linearGradient id="L" x1="-7.4" x2="41" y1="31.3" y2="39.6" gradientUnits="userSpaceOnUse"><stop offset=".1" stop-color="#7FB9DB"/><stop offset="1" stop-color="#B0D3E7"/><stop offset="1" stop-color="#B2D4E7"/></linearGradient><linearGradient id="M" x1="-7.7" x2="40.8" y1="32.5" y2="40.8" gradientUnits="userSpaceOnUse"><stop offset=".1" stop-color="#7FB9DB"/><stop offset="1" stop-color="#B0D3E7"/><stop offset="1" stop-color="#B2D4E7"/></linearGradient><linearGradient id="N" x1="-7.9" x2="40.6" y1="33.8" y2="42" gradientUnits="userSpaceOnUse"><stop offset=".1" stop-color="#7FB9DB"/><stop offset="1" stop-color="#B0D3E7"/><stop offset="1" stop-color="#B2D4E7"/></linearGradient><linearGradient id="O" x1="-8.1" x2="40.4" y1="34.9" y2="43.2" gradientUnits="userSpaceOnUse"><stop offset=".1" stop-color="#7FB9DB"/><stop offset="1" stop-color="#B0D3E7"/><stop offset="1" stop-color="#B2D4E7"/></linearGradient><linearGradient id="P" x1="-8.3" x2="40.1" y1="36.2" y2="44.5" gradientUnits="userSpaceOnUse"><stop offset=".1" stop-color="#7FB9DB"/><stop offset="1" stop-color="#B0D3E7"/><stop offset="1" stop-color="#B2D4E7"/></linearGradient><linearGradient id="Q" x1="-8.5" x2="39.9" y1="37.4" y2="45.7" gradientUnits="userSpaceOnUse"><stop offset=".1" stop-color="#7FB9DB"/><stop offset="1" stop-color="#B0D3E7"/><stop offset="1" stop-color="#B2D4E7"/></linearGradient><linearGradient id="R" x1="-8.7" x2="39.7" y1="38.6" y2="46.9" gradientUnits="userSpaceOnUse"><stop offset=".1" stop-color="#7FB9DB"/><stop offset="1" stop-color="#B0D3E7"/><stop offset="1" stop-color="#B2D4E7"/></linearGradient><linearGradient id="S" x1="-8.3" x2="40.2" y1="36.1" y2="44.4" gradientUnits="userSpaceOnUse"><stop offset=".1" stop-color="#7FB9DB"/><stop offset="1" stop-color="#B0D3E7"/><stop offset="1" stop-color="#B2D4E7"/></linearGradient><linearGradient id="T" x1="-8.7" x2="39.7" y1="38.6" y2="46.9" gradientUnits="userSpaceOnUse"><stop offset=".1" stop-color="#7FB9DB"/><stop offset="1" stop-color="#B0D3E7"/><stop offset="1" stop-color="#B2D4E7"/></linearGradient><linearGradient id="U" x1="-8.5" x2="40" y1="37.3" y2="45.6" gradientUnits="userSpaceOnUse"><stop offset=".1" stop-color="#7FB9DB"/><stop offset="1" stop-color="#B0D3E7"/><stop offset="1" stop-color="#B2D4E7"/></linearGradient><linearGradient id="V" x1="-8.7" x2="39.7" y1="38.5" y2="46.8" gradientUnits="userSpaceOnUse"><stop offset=".1" stop-color="#7FB9DB"/><stop offset="1" stop-color="#B0D3E7"/><stop offset="1" stop-color="#B2D4E7"/></linearGradient><linearGradient id="W" x1="-8.9" x2="39.5" y1="39.8" y2="48" gradientUnits="userSpaceOnUse"><stop offset=".1" stop-color="#7FB9DB"/><stop offset="1" stop-color="#B0D3E7"/><stop offset="1" stop-color="#B2D4E7"/></linearGradient><linearGradient id="X" x1="-9.1" x2="39.3" y1="41" y2="49.3" gradientUnits="userSpaceOnUse"><stop offset=".1" stop-color="#7FB9DB"/><stop offset="1" stop-color="#B0D3E7"/><stop offset="1" stop-color="#B2D4E7"/></linearGradient><linearGradient id="Y" x1="-9.3" x2="39.1" y1="42.2" y2="50.5" gradientUnits="userSpaceOnUse"><stop offset=".1" stop-color="#7FB9DB"/><stop offset="1" stop-color="#B0D3E7"/><stop offset="1" stop-color="#B2D4E7"/></linearGradient><linearGradient id="Z" x1="-9.5" x2="38.9" y1="43.4" y2="51.7" gradientUnits="userSpaceOnUse"><stop offset=".1" stop-color="#7FB9DB"/><stop offset="1" stop-color="#B0D3E7"/><stop offset="1" stop-color="#B2D4E7"/></linearGradient><linearGradient id="aa" x1="-9.3" x2="39.1" y1="42.3" y2="50.6" gradientUnits="userSpaceOnUse"><stop offset=".1" stop-color="#7FB9DB"/><stop offset="1" stop-color="#B0D3E7"/><stop offset="1" stop-color="#B2D4E7"/></linearGradient><linearGradient id="ab" x1="-10" x2="38.5" y1="45.9" y2="54.2" gradientUnits="userSpaceOnUse"><stop offset=".1" stop-color="#7FB9DB"/><stop offset="1" stop-color="#B0D3E7"/><stop offset="1" stop-color="#B2D4E7"/></linearGradient><linearGradient id="ac" x1="45.7" x2="46.5" y1="24.5" y2="47.5" gradientUnits="userSpaceOnUse"><stop stop-color="#1D3091"/><stop offset=".5" stop-color="#273A97"/><stop offset="1" stop-color="#3648A0"/></linearGradient><linearGradient id="ad" x1="56.2" x2="59.2" y1="6" y2="12.6" gradientUnits="userSpaceOnUse"><stop stop-color="#8D4329"/><stop offset=".9" stop-color="#BE4923"/></linearGradient><linearGradient id="af" x1="60.9" x2="57.7" y1="1.7" y2="2.7" gradientUnits="userSpaceOnUse"><stop stop-color="#1975B2"/><stop offset="1" stop-color="#2C8CCC"/></linearGradient><linearGradient id="ag" x1="55.5" x2="60.3" y1="3.9" y2="38.1" gradientUnits="userSpaceOnUse"><stop stop-color="#FF9B4F"/><stop offset="1" stop-color="#FF804E"/></linearGradient><linearGradient id="ah" x1="65.5" x2="67" y1="3.3" y2="26.2" gradientUnits="userSpaceOnUse"><stop stop-color="#FF9B4F"/><stop offset="1" stop-color="#FF804E"/></linearGradient><linearGradient id="ai" x1="51.6" x2="53.1" y1="4.3" y2="27.1" gradientUnits="userSpaceOnUse"><stop stop-color="#FF9B4F"/><stop offset="1" stop-color="#FF804E"/></linearGradient><linearGradient id="aj" x1="51" x2="54.9" y1="12.5" y2="10" gradientUnits="userSpaceOnUse"><stop offset="0" stop-color="#EF6C00"/><stop offset="1" stop-color="#BE4923"/></linearGradient><radialGradient id="ae" cx="0" cy="0" r="1" gradientTransform="translate(60.1 .3) scale(2.20191)" gradientUnits="userSpaceOnUse"><stop offset=".2" stop-color="#84C1E2"/><stop offset=".4" stop-color="#77BDE1"/><stop offset=".6" stop-color="#62B6E0"/><stop offset=".8" stop-color="#57ADDC"/><stop offset=".9" stop-color="#4FA5D9"/></radialGradient><radialGradient id="ak" cx="0" cy="0" r="1" gradientTransform="translate(55.3 14) scale(12.3945)" gradientUnits="userSpaceOnUse"><stop offset="0" stop-color="#EF6C00"/><stop offset="1" stop-color="#BE4923"/></radialGradient><radialGradient id="al" cx="0" cy="0" r="1" gradientTransform="translate(52.7 36.2) scale(26.4675)" gradientUnits="userSpaceOnUse"><stop offset="0" stop-color="#EF6C00" stop-opacity=".7"/><stop offset="1" stop-color="#BE4923"/></radialGradient></defs></svg>