<svg xmlns="http://www.w3.org/2000/svg" width="65" height="60" fill="none"><path fill="url(#a)" d="m60.8 46.4.1.7.5 2.2s0 .2.5.2c.3 0 .4-.1.5-.2l.6-2.9h-2.2Z"/><path fill="url(#b)" d="m41 56 .3 1.6.4 2.2s0 .2.5.2l.5-.1.6-3L41 56Z"/><path fill="url(#c)" d="m1.5 33.1.3 1.5.5 2.2s0 .2.5.2h.4l.1-.2L4 34 1.5 33Z"/><path fill="url(#d)" d="M20.7 16.5 5.3 25.3l33.4 19.1L50 33 20.7 16.5Z"/><path fill="url(#e)" d="m23 26-2.5-2.5s-5 .8-5.7.5c-.7-.2-3.4-2.2-3.4-2.2l4.3-2.4 9.6 1.2 5.5 3.1-7.7 2.3Z" opacity=".8"/><path fill="url(#f)" d="M25.8 7.3a9.2 9.2 0 0 0-5.5-2.9L0 15.9s4 .5 5.1 3.3l20.6-12Z"/><path fill="url(#g)" d="M5.3 18.7v17l-5.3-3V15.8s2.8-.7 5.3 2.8Z"/><path fill="url(#h)" d="M64.7 29.8 44 41.4v17l20.7-11.9V29.8Z"/><path fill="url(#i)" d="M20.7 10 5.3 18.7v6.8l15.4-9V10Z"/><path fill="url(#j)" d="m38.7 44.4-33.4-19v10.3l33.1 19.5.3-10.8Z"/><path fill="url(#k)" d="M5.3 25.3v6.2l33.2 19 .2-6L5.3 25.2Z"/><path fill="url(#l)" d="m47.5 32-8.8 7.7L49 33l-1.6-.9Z" opacity=".8"/><path fill="url(#m)" d="M64.7 29.8c-1.7-2-3.9-3.2-5.7-3L38.5 38.5s3.9.5 5.5 3l20.7-11.7Z"/><path fill="url(#n)" d="M44 41.4v17l-5.6-3.2V38.5c.1 0 3.1-.6 5.6 3Z"/><path stroke="#146DC0" stroke-miterlimit="10" stroke-width=".3" d="M38.4 44.2v11"/><path fill="url(#o)" d="M59 19c-1.7 0-3.5 1.1-5.3 3.2l-.1 7.7 5.4-3.1V19Z"/><path stroke="#146DC0" stroke-miterlimit="10" stroke-width=".3" d="M5.5 25.4V36M38.4 50.5l-33-18.9"/><path fill="url(#p)" d="M59 19 25.8 0a8.4 8.4 0 0 0-5.3 3l33 19.2L59 19Z"/><path fill="url(#q)" d="M53.4 22 20.6 3v13.5l28 16.2 5-2.8v-7.7"/><path stroke="#146DC0" stroke-miterlimit="10" stroke-width=".3" d="M41.5 9.1c-3.3 0-5.2 3-5.2 3v13.4l-15 9v6.2"/><path fill="url(#r)" d="M13.2 11c-.1.1 0 1.7.1 3.7.3 3.8 1 9.4 1.5 9.3 1 0-.7-12-.7-12l-.9-1Z"/><path fill="url(#s)" d="M17 11c3.4 0 8.3-.2 8.7-.3.8-.3.7-.2 1 .5.1.4.6 1.6 1.2 5.2l.6 5.9c.1.5.3 1-.4 1-.3-.1-4.3 0-6.7.2 0-.4-2-3.1-2-3.6.7-5.1-1.9-5.3-2.4-8.9Z"/><path fill="url(#t)" d="M14.8 23.5c.3-.7-.4-8-1.3-11.5-.2-.6-.6-1-.2-1.1.6-.1 2 .1 3.7.1 4.4 1.2 4.6 12 4.5 12.5-3.2.2-5.6.5-5.9.6-.7.2-1 0-.8-.6Z"/><path fill="url(#u)" d="M23.8 15.4c-.2.8-1 10.3-.7 10.6.1.3 2.2 0 5 0s5.1.2 5.2 0a25 25 0 0 0 .8-10c0-.2-2.7-.2-4.2-.3-2.6-.3-6.1-.3-6.1-.3Z"/><path fill="url(#v)" d="M23.8 15.4c-.5.2-.8 3.4-1 5.2-.1 2.9.1 5.4.3 5.4V25l.2-.6c.4-2.6.4-5 .5-6.4V15.4Z"/><defs><linearGradient id="a" x1="61.9" x2="62" y1="46.4" y2="51.3" gradientUnits="userSpaceOnUse"><stop offset=".2" stop-color="#5664A1"/><stop offset=".4" stop-color="#6374A9"/><stop offset=".8" stop-color="#7084B2"/></linearGradient><linearGradient id="b" x1="42.1" x2="42.1" y1="54.3" y2="62" gradientUnits="userSpaceOnUse"><stop offset=".2" stop-color="#5664A1"/><stop offset=".4" stop-color="#6374A9"/><stop offset=".8" stop-color="#7084B2"/></linearGradient><linearGradient id="c" x1="2.6" x2="3.2" y1="33.2" y2="37.6" gradientUnits="userSpaceOnUse"><stop offset=".2" stop-color="#5664A1"/><stop offset=".4" stop-color="#6374A9"/><stop offset=".8" stop-color="#7084B2"/></linearGradient><linearGradient id="d" x1="5.3" x2="50" y1="30.5" y2="30.5" gradientUnits="userSpaceOnUse"><stop offset=".2" stop-color="#62B6E0"/><stop offset="1" stop-color="#48A1D9"/></linearGradient><linearGradient id="e" x1="21.3" x2="20.8" y1="24.9" y2="17.8" gradientUnits="userSpaceOnUse"><stop stop-color="#2C8CCC"/><stop offset="1" stop-color="#3895D2"/></linearGradient><linearGradient id="f" x1=".1" x2="25.8" y1="11.8" y2="11.8" gradientUnits="userSpaceOnUse"><stop stop-color="#62B6E0"/><stop offset="1" stop-color="#48A1D9"/></linearGradient><linearGradient id="g" x1="4.2" x2="-2.2" y1="22.9" y2="35.1" gradientUnits="userSpaceOnUse"><stop stop-color="#2C8CCC"/><stop offset="1" stop-color="#3895D2"/></linearGradient><linearGradient id="h" x1="48.7" x2="62.8" y1="38.3" y2="52.8" gradientUnits="userSpaceOnUse"><stop stop-color="#1A6DBD"/><stop offset="1" stop-color="#2988CA"/></linearGradient><linearGradient id="i" x1="9.5" x2="15.7" y1="14.1" y2="20.6" gradientUnits="userSpaceOnUse"><stop stop-color="#1A6DBD"/><stop offset="1" stop-color="#2988CA"/></linearGradient><linearGradient id="j" x1="23.6" x2="17.4" y1="36.8" y2="49.2" gradientUnits="userSpaceOnUse"><stop stop-color="#1E75C1"/><stop offset="1" stop-color="#3895D2"/></linearGradient><linearGradient id="k" x1="24" x2="20" y1="34.1" y2="41.6" gradientUnits="userSpaceOnUse"><stop stop-color="#2C8CCC"/><stop offset="1" stop-color="#3895D2"/></linearGradient><linearGradient id="l" x1="41.1" x2="50.6" y1="35.4" y2="37.4" gradientUnits="userSpaceOnUse"><stop stop-color="#2988CA"/><stop offset="1" stop-color="#1A6DBD"/></linearGradient><linearGradient id="m" x1="38.5" x2="64.7" y1="34.1" y2="34.1" gradientUnits="userSpaceOnUse"><stop stop-color="#62B6E0"/><stop offset="1" stop-color="#48A1D9"/></linearGradient><linearGradient id="n" x1="43.7" x2="37.3" y1="43.8" y2="56" gradientUnits="userSpaceOnUse"><stop stop-color="#2C8CCC"/><stop offset="1" stop-color="#3895D2"/></linearGradient><linearGradient id="o" x1="52.8" x2="63.1" y1="21.5" y2="30.1" gradientUnits="userSpaceOnUse"><stop stop-color="#1A6DBD"/><stop offset="1" stop-color="#2988CA"/></linearGradient><linearGradient id="p" x1="20.6" x2="58.9" y1="11.1" y2="11.1" gradientUnits="userSpaceOnUse"><stop offset=".1" stop-color="#62B6E0"/><stop offset="1" stop-color="#48A1D9"/></linearGradient><linearGradient id="q" x1="36.9" x2="37.5" y1="8.3" y2="33.1" gradientUnits="userSpaceOnUse"><stop stop-color="#2C8CCC"/><stop offset="1" stop-color="#3895D2"/></linearGradient><linearGradient id="r" x1="11.1" x2="14.4" y1="22.6" y2="17" gradientUnits="userSpaceOnUse"><stop offset=".3" stop-color="#E27427"/><stop offset=".9" stop-color="#C8632C"/></linearGradient><linearGradient id="s" x1="22" x2="31.8" y1="15.4" y2="24.2" gradientUnits="userSpaceOnUse"><stop offset=".1" stop-color="#F67937"/><stop offset=".5" stop-color="#EF7425"/><stop offset="1" stop-color="#C95D2E"/></linearGradient><linearGradient id="t" x1="23.5" x2="13.4" y1="28.3" y2="12.8" gradientUnits="userSpaceOnUse"><stop stop-color="#FF804E"/><stop offset="1" stop-color="#FF8D4F"/></linearGradient><linearGradient id="v" x1="30.1" x2="19.4" y1="19.1" y2="23.8" gradientUnits="userSpaceOnUse"><stop offset=".1" stop-color="#D28500"/><stop offset="1" stop-color="#F4B847"/></linearGradient><radialGradient id="u" cx="0" cy="0" r="1" gradientTransform="translate(24.4 16.1) scale(13.8239)" gradientUnits="userSpaceOnUse"><stop stop-color="#FFD380"/><stop offset=".9" stop-color="#F9C44F"/></radialGradient></defs></svg>