<svg xmlns="http://www.w3.org/2000/svg" width="61" height="60" fill="none"><path fill="#9D9D9D" d="M2.2 46.7v.3l9.6 5.6v-.3l-9.6-5.6ZM11.8 52.3v.3l9.4 5.5v-.3l-9.4-5.5Z"/><path fill="url(#a)" d="M29.3 54.4 8 42l-5.9 4.7 9.6 5.6 9.4 5.5 8-3.4Z"/><path fill="url(#b)" d="M21.2 57.8v.6l8-3.4v-.6l-8 3.4Z"/><path fill="#2E1D0A" d="M11.3 52.2ZM11.3 52ZM11.2 52v-.1Z"/><path fill="#000" d="M11 52.4h.1-.2Z"/><path fill="#2E1D0A" d="M14.7 53.9h-.4.3ZM17.6 55.9h-.2.2Z"/><path fill="url(#c)" d="M22.2 57.3 22 57 2.7 45.7c-.3-.2-.8-.2-1 0h-.2l-1.3 1-.2.5v.2l.2.1.1.1 18.3 10.7c.4.2 1 .3 1.4 0l1.8-.7h.2l.1-.1v-.2ZM4.2 48l-.1.2a1 1 0 0 1-.8 0c-.2-.1-.2-.3 0-.5H4l.1.3Zm3.4 2.2-.2.1h-.6l-.1-.3v-.1l.1-.1c.2-.1.6-.1.8 0 .2.1.2.3 0 .4Zm3.6 1.8V52.4H10.2v-.1c-.1 0-.1-.2 0-.2v-.1c.3-.2.6-.2.8 0h.1v.1Zm3.6 2.3h-.1a1 1 0 0 1-.8 0l-.2-.1c0-.1 0-.2.2-.3H14.6c.2.1.2.3.2.4Zm3.5 2-.1.1h-.8l-.1-.1V56l.3-.1H18.2c.2.2.2.3 0 .4Z"/><path fill="url(#d)" d="M0 48.7c0 .1.1.3.4.4l18.2 10.7v-1.5L.4 47.6H.2v-.1H0v-.2 1.4Z"/><path fill="url(#e)" d="M18.6 58.3v1.5c.4.2 1 .3 1.4 0l1.8-.7h.2l.2-.3v-1.5.1H22l-.1.1h-.2l-1.8.8c-.4.2-1 .2-1.4 0Z"/><path fill="url(#f)" d="M3.5 57.1 3 57l-.1-.2h.1v-.1l.8-.4.5-.3.3-.1h1l.1.2-.1.1-.5.3-.8.4a2 2 0 0 1-.7.2Zm3.1-7v-.2.1ZM8 52.5l-1 .5-1.2.4-1.1.5-1.1.4-1.2.5-.9.3-.2.2h-.2l-.5.4-.1.2c-.1.2-.2.3-.1.5v.6c0 .3.2.7.7 1l1 .6c.5.3 1.2.4 1.9.4h.6l.4-.2.6-.2.2-.1.2-.1.6-.6.8-.6.8-.7.8-.6.7-.6.6-.5.2-.8L8 52.6ZM6.7 50l.1-.1-.1.1Z"/><path fill="url(#g)" d="M5.7 56v-.4h-.2c-.3-.2-.6-.3-1-.2a1 1 0 0 0-.3.1l-.5.3-.7.4-.1.1-.1.1v.4h.1v-.1l.8-.4.5-.3.3-.1h1l.1.2Z"/><path fill="url(#h)" d="M.4 56.7v.2l.1.2.2.1.2.2.2.2 1 .6a3.8 3.8 0 0 0 2.5.3H5l.6-.3.2-.1.2-.1.6-.6 1.6-1.3.8-.7 1.5-1.3v.6l-.8.7-.8.6-.8.7-.7.7-.8.7-.6.5-.2.1-.2.1-.6.3h-.4l-.6.1c-.7 0-1.4-.1-1.9-.4l-1-.6c-.5-.3-.7-.7-.7-1v-.5Z"/><path fill="url(#i)" d="M10.7 52.4c.4 0 .6-.1.6-.3 0-.2-.2-.4-.6-.4-.3 0-.6.2-.6.4s.3.3.6.3Z"/><path fill="url(#j)" d="M7.2 50.4c.3 0 .6-.2.6-.4s-.3-.3-.6-.3-.6.1-.6.3c0 .2.3.4.6.4Z"/><path fill="url(#k)" d="M3.7 48.3c.3 0 .5-.2.5-.3 0-.2-.2-.4-.5-.4-.4 0-.6.2-.6.4 0 .1.2.3.6.3Z"/><path fill="url(#l)" d="M14.3 54.5c.3 0 .6-.2.6-.4s-.3-.3-.6-.3c-.4 0-.6.1-.6.3 0 .2.2.4.6.4Z"/><path fill="url(#m)" d="M17.8 56.5c.3 0 .6-.1.6-.3 0-.2-.3-.4-.6-.4s-.6.2-.6.4.3.3.6.3Z"/><path fill="url(#n)" d="m45 17-9.4 6-30-17.2 10-5.8L45 17Z"/><path fill="url(#o)" d="m60.5 53.2-10 5.8V26.1l10-5.8v32.9Z"/><path fill="url(#p)" d="m60.5 25.4-4.7 2.8V23l4.7-2.7v5.1Z"/><path fill="url(#q)" d="m55.2 28.5-4.8 2.8V26l4.8-2.7v5.1Z"/><path fill="url(#r)" d="m60.5 31.1-10 5.9v-5.2l10-5.8V31Z"/><path fill="url(#s)" d="m60.5 36.1-4.7 2.7v-4.4l4.7-2.7V36Z"/><path fill="url(#t)" d="m55.2 39.2-4.8 2.7v-4.4l4.8-2.8v4.5Z"/><path fill="url(#u)" d="m60.5 41.8-10 5.8v-5.2l10-5.8v5.2Z"/><path fill="url(#v)" d="m60.5 47.5-4.7 2.7v-5.1l4.7-2.8v5.2Z"/><path fill="url(#w)" d="m55.2 50.6-4.8 2.7v-5.2l4.8-2.7v5.2Z"/><path fill="url(#x)" d="m60.5 53.2-10 5.8v-5.2l10-5.8v5.2Z"/><path fill="url(#y)" d="m60.5 20.3-10 5.8L21 9l10-5.8 29.4 17.1Z"/><path fill="url(#z)" d="M50.4 26v33l-33-19.2L5.7 33V5.8l9.7 5.6.6.4 5 2.9V9l6 3.4 3.5 2 .6.4 5.7 3.3 3.8 2.2.6.4 7 4 2.2 1.3Z"/><path fill="url(#A)" d="m30.5 19.6-9.4-5.5V9l9.4 5.5v5.1Z"/><path fill="url(#B)" d="M40.6 20.2v5.2l-6-3.4-3.5-2v-5.2l5.7 3.3 3.8 2.1Z"/><path fill="url(#C)" d="M50.4 26v5.2l-9.2-5.5v-5.1l7 4.1 2.2 1.4Z"/><path fill="url(#D)" d="M35.5 28.1 26 22.7v-5.2l9.5 5.5V28Z"/><path fill="url(#E)" d="m45.4 34-9.3-5.5v-5.2l9.3 5.5v5.1Z"/><path fill="url(#F)" d="m15.4 16.6-9.7-5.7V5.8l9.7 5.6v5.2Z"/><path fill="url(#G)" d="M25.5 22.4 16 16.9v-5.2l9.5 5.5v5.2Z"/><path fill="url(#H)" d="M50.4 37 46 34.2V29l4.4 2.6V37Z"/><path fill="url(#I)" d="m30.5 30.2-9.4-5.4v-4.4l9.4 5.4v4.4Z"/><path fill="url(#J)" d="M40.6 36 31 30.6v-4.4l9.5 5.4V36Z"/><path fill="url(#K)" d="m10.3 18.6-4.6-2.7v-4.4l4.6 2.6v4.5Z"/><path fill="url(#L)" d="M20.5 24.5 11 18.9v-4.4l9.6 5.5v4.5Z"/><path fill="url(#M)" d="m50.4 41.9-9.2-5.5v-4.5l9.2 5.5V42Z"/><path fill="url(#N)" d="M35.5 38.8 26 33.3v-5.1l9.5 5.4v5.2Z"/><path fill="url(#O)" d="M45.4 44.6 36.1 39V34l9.3 5.4v5.2Z"/><path fill="url(#P)" d="m15.4 27.2-9.7-5.6v-5.2l9.7 5.7v5.1Z"/><path fill="url(#Q)" d="M25.5 33 16 27.6v-5.2l9.5 5.5V33Z"/><path fill="url(#R)" d="M50.4 47.6 46 44.9v-5.1l4.4 2.6v5.2Z"/><path fill="url(#S)" d="m30.5 41.6-9.4-5.4V31l9.4 5.5v5.1Z"/><path fill="url(#T)" d="M40.6 46.7 31 42v-5.2l9.5 5.5v4.4Z"/><path fill="url(#U)" d="m10.3 30-4.6-2.7V22l4.6 2.7v5.1Z"/><path fill="url(#V)" d="M20.5 35.8 11 30.3V25l9.6 5.6v5.1Z"/><path fill="url(#W)" d="M50.4 53.2 41.2 47v-4.4l9.2 5.5v5.1Z"/><path fill="url(#X)" d="M35.5 50.1 26 44.7v-5.1l9.5 5.4V50Z"/><path fill="url(#Y)" d="m45.4 56-9.3-5.5v-5.2l9.3 5.5v5.1Z"/><path fill="url(#Z)" d="M15.4 38.6 5.7 33v-5.2l9.7 5.6v5.2Z"/><path fill="url(#aa)" d="M25.5 44.4 16 38.9v-5.1l9.5 5.4v5.2Z"/><path fill="url(#ab)" d="M50.4 53.8v5.1L46 56.3V51l4.4 2.7Z"/><path fill="url(#ac)" d="M50.4 26v33l-33-19.2c-.1-1-.3-3.3.7-4.8l.3-.4c.5-.4 1-.9 1.8-1.2a7 7 0 0 1 0-3V30c.4-.8 1-2.2 2.3-2.3 1.2-.1 2.2.2 3 .7l.5.4c1.7 1.2 3 3 5 3l1-.2.5-.2c1-.7 1-2 1.2-3.7V27c.2-1.2.3-3.3.8-4.7l.2-.4c.4-1 1-2.9 2-3.9h.1l3.8 2.1v.1l.6.4v-.1l7 4.1 2.2 1.4Z"/><path fill="url(#ad)" d="M13.4 45.1c-2.8 2 3.2 3.9 3.2 3.9s-.6 2.5 2.6 4.1c3.3 1.7 7.8 0 7.8 0l-13.6-8Z"/><defs><linearGradient id="a" x1="16.8" x2="14.7" y1="38.2" y2="63.3" gradientUnits="userSpaceOnUse"><stop offset=".1" stop-color="#BCD7EA"/><stop offset=".9" stop-color="#EEF8FF"/></linearGradient><linearGradient id="b" x1="21.2" x2="29.3" y1="56.4" y2="56.4" gradientUnits="userSpaceOnUse"><stop stop-color="#82B9DD"/><stop offset="1" stop-color="#98C7EE"/></linearGradient><linearGradient id="c" x1="0" x2="22.2" y1="52" y2="52" gradientUnits="userSpaceOnUse"><stop stop-color="#56659B"/><stop offset=".2" stop-color="#626FA6"/><stop offset=".6" stop-color="#7884BC"/><stop offset=".9" stop-color="#818CC4"/></linearGradient><linearGradient id="d" x1="22.8" x2="-4.2" y1="62.6" y2="44.6" gradientUnits="userSpaceOnUse"><stop stop-color="#46569E"/><stop offset=".7" stop-color="#324488"/></linearGradient><linearGradient id="e" x1="8.7" x2="47.8" y1="58.2" y2="59.6" gradientUnits="userSpaceOnUse"><stop stop-color="#36488B"/><stop offset=".2" stop-color="#324488"/><stop offset=".3" stop-color="#1D3080"/><stop offset=".3" stop-color="#233580"/><stop offset=".3" stop-color="#324488"/></linearGradient><linearGradient id="f" x1="7.1" x2="3.9" y1="57.7" y2="53.9" gradientUnits="userSpaceOnUse"><stop stop-color="#2C8CCC"/><stop offset="1" stop-color="#1B77B3"/></linearGradient><linearGradient id="g" x1="1" x2="6.6" y1="56.3" y2="55.9" gradientUnits="userSpaceOnUse"><stop stop-color="#1B66B0"/><stop offset=".3" stop-color="#265AA7"/><stop offset=".6" stop-color="#234E9C"/><stop offset=".9" stop-color="#22509E"/><stop offset="1" stop-color="#2155A3"/></linearGradient><linearGradient id="h" x1="1" x2="6.7" y1="57.2" y2="56.7" gradientUnits="userSpaceOnUse"><stop stop-color="#1B66B0"/><stop offset=".5" stop-color="#265AA7"/><stop offset=".6" stop-color="#234E9C"/><stop offset="1" stop-color="#2155A3"/></linearGradient><linearGradient id="i" x1="10.1" x2="11.3" y1="52.1" y2="52.1" gradientUnits="userSpaceOnUse"><stop offset=".1" stop-color="#293C95"/><stop offset=".8" stop-color="#293C95"/></linearGradient><linearGradient id="j" x1="6.6" x2="7.8" y1="50" y2="50" gradientUnits="userSpaceOnUse"><stop offset=".1" stop-color="#293C95"/><stop offset=".8" stop-color="#293C95"/></linearGradient><linearGradient id="k" x1="3.1" x2="4.2" y1="48" y2="48" gradientUnits="userSpaceOnUse"><stop offset=".1" stop-color="#293C95"/><stop offset=".8" stop-color="#293C95"/></linearGradient><linearGradient id="l" x1="13.7" x2="14.9" y1="54.1" y2="54.1" gradientUnits="userSpaceOnUse"><stop offset=".1" stop-color="#293C95"/><stop offset=".8" stop-color="#293C95"/></linearGradient><linearGradient id="m" x1="17.2" x2="18.4" y1="56.2" y2="56.2" gradientUnits="userSpaceOnUse"><stop offset=".1" stop-color="#293C95"/><stop offset=".8" stop-color="#293C95"/></linearGradient><linearGradient id="n" x1="13.7" x2="25" y1="-4.8" y2="10.9" gradientUnits="userSpaceOnUse"><stop stop-color="#FBCFC5"/><stop offset=".4" stop-color="#F4C1B6"/><stop offset="1" stop-color="#E6A597"/></linearGradient><linearGradient id="o" x1="31.2" x2="69" y1="12.6" y2="54.7" gradientUnits="userSpaceOnUse"><stop stop-color="#BD7158"/><stop offset=".6" stop-color="#DA9685"/><stop offset=".9" stop-color="#E6A597"/></linearGradient><linearGradient id="p" x1="58.6" x2="36.5" y1="24.1" y2="32.6" gradientUnits="userSpaceOnUse"><stop stop-color="#C55826"/><stop offset="1" stop-color="#80412B"/></linearGradient><linearGradient id="q" x1="58.9" x2="36.9" y1="25" y2="33.5" gradientUnits="userSpaceOnUse"><stop stop-color="#C55826"/><stop offset="1" stop-color="#80412B"/></linearGradient><linearGradient id="r" x1="60.6" x2="38.6" y1="29.5" y2="38" gradientUnits="userSpaceOnUse"><stop stop-color="#C55826"/><stop offset="1" stop-color="#80412B"/></linearGradient><linearGradient id="s" x1="62.3" x2="40.2" y1="33.7" y2="42.2" gradientUnits="userSpaceOnUse"><stop stop-color="#C55826"/><stop offset="1" stop-color="#80412B"/></linearGradient><linearGradient id="t" x1="62.6" x2="40.6" y1="34.6" y2="43" gradientUnits="userSpaceOnUse"><stop stop-color="#C55826"/><stop offset="1" stop-color="#80412B"/></linearGradient><linearGradient id="u" x1="64.2" x2="42.2" y1="38.7" y2="47.2" gradientUnits="userSpaceOnUse"><stop stop-color="#C55826"/><stop offset="1" stop-color="#80412B"/></linearGradient><linearGradient id="v" x1="66" x2="43.9" y1="43.2" y2="51.8" gradientUnits="userSpaceOnUse"><stop stop-color="#C55826"/><stop offset="1" stop-color="#80412B"/></linearGradient><linearGradient id="w" x1="66.3" x2="44.3" y1="44.1" y2="52.6" gradientUnits="userSpaceOnUse"><stop stop-color="#C55826"/><stop offset="1" stop-color="#80412B"/></linearGradient><linearGradient id="x" x1="68" x2="46" y1="48.6" y2="57.1" gradientUnits="userSpaceOnUse"><stop stop-color="#C55826"/><stop offset="1" stop-color="#80412B"/></linearGradient><linearGradient id="y" x1="23.8" x2="78.8" y1="1" y2="45.1" gradientUnits="userSpaceOnUse"><stop stop-color="#FBD5CD"/><stop offset=".5" stop-color="#F4C1B6"/><stop offset="1" stop-color="#E6A597"/></linearGradient><linearGradient id="z" x1="10.8" x2="30.5" y1="-7.8" y2="34.7" gradientUnits="userSpaceOnUse"><stop stop-color="#FFE0CA"/><stop offset="1" stop-color="#F4C1B6"/></linearGradient><linearGradient id="A" x1="36.2" x2="23.9" y1="37.6" y2="10" gradientUnits="userSpaceOnUse"><stop stop-color="#C55826"/><stop offset="1" stop-color="#E4722D"/></linearGradient><linearGradient id="B" x1="42.4" x2="30.1" y1="34.8" y2="7.2" gradientUnits="userSpaceOnUse"><stop stop-color="#C55826"/><stop offset="1" stop-color="#E4722D"/></linearGradient><linearGradient id="C" x1="48.5" x2="36.2" y1="32" y2="4.4" gradientUnits="userSpaceOnUse"><stop stop-color="#C55826"/><stop offset="1" stop-color="#E4722D"/></linearGradient><linearGradient id="D" x1="37.1" x2="24.8" y1="37.1" y2="9.5" gradientUnits="userSpaceOnUse"><stop stop-color="#C55826"/><stop offset="1" stop-color="#E4722D"/></linearGradient><linearGradient id="E" x1="43.3" x2="31" y1="34.4" y2="6.8" gradientUnits="userSpaceOnUse"><stop stop-color="#C55826"/><stop offset="1" stop-color="#E4722D"/></linearGradient><linearGradient id="F" x1="24.6" x2="12.3" y1="42.7" y2="15.1" gradientUnits="userSpaceOnUse"><stop stop-color="#C55826"/><stop offset="1" stop-color="#E4722D"/></linearGradient><linearGradient id="G" x1="30.9" x2="18.6" y1="39.9" y2="12.3" gradientUnits="userSpaceOnUse"><stop stop-color="#C55826"/><stop offset="1" stop-color="#E4722D"/></linearGradient><linearGradient id="H" x1="47.9" x2="35.6" y1="32.3" y2="4.7" gradientUnits="userSpaceOnUse"><stop stop-color="#C55826"/><stop offset="1" stop-color="#E4722D"/></linearGradient><linearGradient id="I" x1="32.1" x2="19.8" y1="39.4" y2="11.8" gradientUnits="userSpaceOnUse"><stop stop-color="#C55826"/><stop offset="1" stop-color="#E4722D"/></linearGradient><linearGradient id="J" x1="38.3" x2="26" y1="36.6" y2="9" gradientUnits="userSpaceOnUse"><stop stop-color="#C55826"/><stop offset="1" stop-color="#E4722D"/></linearGradient><linearGradient id="K" x1="21.1" x2="8.7" y1="44.3" y2="16.7" gradientUnits="userSpaceOnUse"><stop stop-color="#C55826"/><stop offset="1" stop-color="#E4722D"/></linearGradient><linearGradient id="L" x1="25.8" x2="13.5" y1="42.2" y2="14.6" gradientUnits="userSpaceOnUse"><stop stop-color="#C55826"/><stop offset="1" stop-color="#E4722D"/></linearGradient><linearGradient id="M" x1="44.4" x2="32.1" y1="33.9" y2="6.3" gradientUnits="userSpaceOnUse"><stop stop-color="#C55826"/><stop offset="1" stop-color="#E4722D"/></linearGradient><linearGradient id="N" x1="33.2" x2="20.8" y1="38.9" y2="11.3" gradientUnits="userSpaceOnUse"><stop stop-color="#C55826"/><stop offset="1" stop-color="#E4722D"/></linearGradient><linearGradient id="O" x1="39.4" x2="27" y1="36.1" y2="8.6" gradientUnits="userSpaceOnUse"><stop stop-color="#C55826"/><stop offset="1" stop-color="#E4722D"/></linearGradient><linearGradient id="P" x1="20.7" x2="8.3" y1="44.5" y2="16.9" gradientUnits="userSpaceOnUse"><stop stop-color="#C55826"/><stop offset="1" stop-color="#E4722D"/></linearGradient><linearGradient id="Q" x1="27" x2="14.7" y1="41.7" y2="14.1" gradientUnits="userSpaceOnUse"><stop stop-color="#C55826"/><stop offset="1" stop-color="#E4722D"/></linearGradient><linearGradient id="R" x1="43.9" x2="31.6" y1="34.1" y2="6.5" gradientUnits="userSpaceOnUse"><stop stop-color="#C55826"/><stop offset="1" stop-color="#E4722D"/></linearGradient><linearGradient id="S" x1="28" x2="15.7" y1="41.2" y2="13.6" gradientUnits="userSpaceOnUse"><stop stop-color="#C55826"/><stop offset="1" stop-color="#E4722D"/></linearGradient><linearGradient id="T" x1="34.2" x2="21.9" y1="38.4" y2="10.8" gradientUnits="userSpaceOnUse"><stop stop-color="#C55826"/><stop offset="1" stop-color="#E4722D"/></linearGradient><linearGradient id="U" x1="17" x2="4.6" y1="46.1" y2="18.6" gradientUnits="userSpaceOnUse"><stop stop-color="#C55826"/><stop offset="1" stop-color="#E4722D"/></linearGradient><linearGradient id="V" x1="21.7" x2="9.4" y1="44" y2="16.4" gradientUnits="userSpaceOnUse"><stop stop-color="#C55826"/><stop offset="1" stop-color="#E4722D"/></linearGradient><linearGradient id="W" x1="40.5" x2="28.1" y1="35.6" y2="8" gradientUnits="userSpaceOnUse"><stop stop-color="#C55826"/><stop offset="1" stop-color="#E4722D"/></linearGradient><linearGradient id="X" x1="28.9" x2="16.6" y1="40.8" y2="13.2" gradientUnits="userSpaceOnUse"><stop stop-color="#C55826"/><stop offset="1" stop-color="#E4722D"/></linearGradient><linearGradient id="Y" x1="35.1" x2="22.8" y1="38" y2="10.4" gradientUnits="userSpaceOnUse"><stop stop-color="#C55826"/><stop offset="1" stop-color="#E4722D"/></linearGradient><linearGradient id="Z" x1="16.4" x2="4.1" y1="46.4" y2="18.8" gradientUnits="userSpaceOnUse"><stop stop-color="#C55826"/><stop offset="1" stop-color="#E4722D"/></linearGradient><linearGradient id="aa" x1="22.7" x2="10.4" y1="43.6" y2="16" gradientUnits="userSpaceOnUse"><stop stop-color="#C55826"/><stop offset="1" stop-color="#E4722D"/></linearGradient><linearGradient id="ab" x1="39.7" x2="27.4" y1="36" y2="8.4" gradientUnits="userSpaceOnUse"><stop stop-color="#C55826"/><stop offset="1" stop-color="#E4722D"/></linearGradient><linearGradient id="ac" x1="-3.4" x2="50.1" y1="81.1" y2="30.1" gradientUnits="userSpaceOnUse"><stop stop-color="#338ECC"/><stop offset="1" stop-color="#62B6E0"/></linearGradient><linearGradient id="ad" x1="-9.2" x2="28.4" y1="61.2" y2="45.8" gradientUnits="userSpaceOnUse"><stop stop-color="#338ECC"/><stop offset="1" stop-color="#62B6E0"/></linearGradient></defs></svg>