<svg xmlns="http://www.w3.org/2000/svg" width="50" height="61" fill="none"><path fill="url(#a)" d="m20 34.3 1.4-.9h.4L33 39.7v3l-13.8-8 .8-.5Z"/><path fill="url(#b)" d="M21.7 4v29.2h.1l.3-.1V4.2l-.4-.1Z"/><path fill="url(#c)" d="M21.7 33.2 33 39.7v-.3L22 33l-.2.1Z"/><path fill="url(#d)" d="M22 4.2v28.9l.2-.2V4.3H22Z"/><path fill="url(#e)" d="m22 33 11 6.4v-.2l-10.8-6.3-.2.2Z"/><path fill="url(#f)" d="m19.3 1 .5 2 1.7 1 .2.1v29.2l-.1.1-.2.1-1.4.9-.7.4V1Z"/><path fill="url(#g)" d="M47.6 17.2 20 1.2l-.2.1L33 9l14.3 8.3.2-.1Z"/><path fill="#C5E6FF" d="m20 .6 13.8 8L48 16.9l.1-.1L34 8.5 20.6 1 20 .6Z"/><path fill="url(#h)" d="M48.6 16.6 21 .6l-.3.2h-.1l13.3 7.7 14.3 8.3.4-.2Z"/><path fill="url(#i)" d="m21.1 0 28.1 16.2-1.8 1-1.5 1-9.6-5.7-1.9-1-1.5-1-13.7-7.9V1.1l2-1.1Z"/><path fill="#4F6A73" d="M35 11.8v29.7h.2V11.9H35Z"/><path fill="url(#j)" d="m47.8 17-.2.2L20 1.2l-.3-.4 13.8 8L47.8 17Z"/><path fill="url(#k)" d="M33.5 8.7 19.7.8h.1l.3.1 13.4 7.8L48 17 33.4 8.7Z"/><path fill="url(#l)" d="m48.1 16.9-.2.1L20 1V.5l13.7 8L48 16.9Z"/><path fill="url(#m)" d="M33.8 8.6 20 .6l.2.1 13.5 7.8 14.4 8.3-14.5-8.2Z"/><path fill="url(#n)" d="m48.8 16.4-.2.2L21 .6l-.2-.4 13.7 8 14.3 8.2Z"/><path fill="url(#o)" d="M34.5 8.2 20.7.2h.1l.2.1 13.5 7.8L49 16.4h-.1L34.5 8.2Z"/><path fill="url(#p)" d="m49.1 16.3-.2.1L21 .4V0L34.8 8 49 16.3Z"/><path fill="url(#q)" d="M34.8 8 21 0h.1l.2.2 13.5 7.7 14.4 8.3L34.7 8Z"/><path fill="#fff" d="m19.8.9 3.6 2L26.9 5 33.6 9l7 4 3.7 2 3.5 2.1-3.5-2-3.6-2-7-4.2-6.8-3.9-3.5-2-3.6-2ZM20.1.7l3.6 2 3.5 2.1 6.7 3.9 7.1 4 3.6 2.1 3.5 2-3.5-2-3.6-2-7-4.2-6.8-3.8-3.5-2L20 .6ZM20.8.3l3.6 2 3.5 2.1 6.7 3.9 7 4 3.6 2.1 3.6 2-3.5-2-3.6-2-7-4.2-6.8-3.8-3.5-2L20.8.2ZM21.1.1l3.6 2 3.5 2.1L35 8.1l7 4 3.6 2.1 3.6 2-3.5-2-3.6-2L35 8l-6.7-3.8-3.6-2-3.6-2Z"/><path fill="url(#r)" d="m19.7 1.3.3-.1-.3-.4v.5Z"/><path fill="url(#s)" d="m20.7.8.3-.2-.3-.4v.6Z"/><path fill="#1D3080" d="M21.5 4v29.4l.2-.2V4.1l-.2-.1Z"/><path fill="#4A5AA4" d="M21.5 33.4 33 40v-.3l-11.3-6.5-.2.2Z"/><path fill="url(#t)" d="M17.4 5.9V32l.3.2V5.7l-.3.2Z"/><path fill="#1D3080" d="M18.4 5.2h.2v27.6l-.3-.1V5.3h.1Z"/><path fill="#6FAFBF" d="M17.8 32.4h.2V5.6h-.2v26.9Z"/><path fill="url(#u)" d="M9.5 37.3v.4l8.8-5-.3-.2-8.5 4.8Z"/><path fill="#4A5AA4" d="M9.5 38.4v.5l9.8-5.6-.4-.3-9.4 5.4ZM18.6 32.8l-.3-.1-8.8 5v.3l9-5.2ZM18 32.5l-.3-.2L9.6 37v.4l8.4-5Z"/><path fill="url(#v)" d="M9.5 36.6v.4l8.2-4.7-.3-.2-7.9 4.5Z"/><path fill="#1D3080" d="M17.7 20.8v11.5l.3.2v-27l-.3.2v15.1Z"/><path fill="url(#w)" d="m18.6 32.8-9 5.2v.4l9.3-5.4-.3-.2Z"/><path fill="url(#x)" d="M18.6 5.1v27.7l.3.2V5l-.3.1Z"/><path fill="url(#y)" d="M18 5.5v27l.3.2V5.3l-.3.2Z"/><path fill="#1D3080" d="M19 4.8 19 5V33l.4.3V4.7l-.2.1Z"/><path fill="url(#z)" d="M7.1 40.8V9L7 8.9v31.7l.1.2Z"/><path fill="url(#A)" d="M7 8.9H7l12.6-7.2h-.2L7 8.9Z"/><path fill="#1D3080" d="M7.1 9V40.9 9ZM7.1 9l12.7-7.3L7 9ZM7.2 9V41l.3-.2v-.2l.1-31.4h-.4Z"/><path fill="#4A5AA4" d="m7.3 40.7-.1.2 1.3-.7v-.3l-1.3.8Z"/><path fill="#1D3080" d="M7.2 9h.1l12.3-7h.1l.1-.3L7.2 9Z"/><path fill="#4A5AA4" d="M7.3 40.5v.2l1.2-.7v-.2l-1.2.7Z"/><path fill="url(#B)" d="M7.3 9v31.5s1.7-.8 1.8-1L7.7 9.3 7.3 9Z"/><path fill="url(#C)" d="M7.7 9.3v30.5l.3.2V9.5l-.3-.2Z"/><path fill="url(#D)" d="m7.7 9.3.4.2L19.6 3l-.3-.2L7.7 9.3Z"/><path fill="url(#E)" d="m8 9.5.4.2 11.2-6.4v-.4L8.1 9.5Z"/><path fill="url(#F)" d="M8.4 39.9V9.8L8 9.5V40l.4-.1Z"/><path fill="url(#G)" d="M8.4 40.2v.1l.7.4V10.1l-.7-.3v30.4Z"/><path fill="url(#H)" d="m8.4 9.8.7.3 11.6-6.6L20 3 8.4 9.8Z"/><path fill="url(#I)" d="M9.2 10.1v30.6l1.2-2.1V10.9l-1.2-.8Z"/><path fill="url(#J)" d="M10.4 38.5 9 40.7 20.7 34l-1.3-.7-9 5.2Z"/><path fill="url(#K)" d="m10.4 38.5 9-5.2h-.1l-8.9 5v.2Z"/><path fill="url(#L)" d="m19.3 5.8.1-.1 1.3-2.2L9.2 10l1.2.8 9-5.1Z"/><path fill="#1D3080" d="m19.4 5.7-.1.1v27.5h.2V5.7h-.1Z"/><path fill="url(#M)" d="M19.4 5.6v27.7l1.3.7V3.5l-1.3 2.1Z"/><path fill="url(#N)" d="M19.6 2.9v-1L7.3 9.2l.4.2 11.6-6.6.3.2Z"/><path fill="#1D3080" d="M19.7 2h-.1v1.3h.1V1.8ZM19.7 2v1.2h.1V1.7 2Z"/><path fill="url(#O)" d="M47.4 17.3v33.1h.2V17.1h-.2Z"/><path fill="url(#P)" d="M48.2 16.8V50l.2-.1.2-.2V16.6l-.4.2Z"/><path fill="#fff" d="m34.4 41.9 2.8 2 2.9 1.8 2.9 1.8a87.5 87.5 0 0 0 .1-.2l-2.9-1.9c-1-.5-1.9-1.2-2.9-1.8L34.4 42Z"/><path fill="url(#Q)" d="M49.1 16.3v33.6h.1V16.2Z"/><path fill="#fff" d="m46 48.6-1.5-.8-1.5-1-2.8-1.6-3-1.6-1.4-.9-1.4-.8 1.4.9 1.4.8 3 1.7L43 47l1.5.8 1.4.8Z"/><path fill="url(#R)" d="m32.9 41.7 1.4-.8h.2l.2-.1L46 47.3l2.8 2.3-1.6 1.3-15-8.6.7-.6Z"/><path fill="url(#S)" d="M34.7 11.6v29.1l.3-.2V11.8l-.3-.2Z"/><path fill="url(#T)" d="M34.6 40.7 46 47.2v-.4l-11-6.3-.2.1v.1Z"/><path fill="url(#U)" d="M35 11.8v28.7h.2V11.8l-.2-.1Z"/><path fill="url(#V)" d="M35 40.5 45.9 47v-.3l-10.7-6.2-.2.1Z"/><path fill="url(#W)" d="m32.2 10.2.7.4 1.4.8.2.1.2.1v29l-.2.2h-.2l-1.4 1-.7-.4V10.2Z"/><path fill="#4A5AA4" d="M34.4 11.5v29.3l.2-.1V11.6l-.2-.1Z"/><path fill="url(#X)" d="M34.4 40.8 46 47.5v-.3l-11.3-6.5-.2.1Z"/><path fill="url(#Y)" d="m45.9 17.2 1.9-1-.5 33.9-1-.7v-.8L46 17.2Z"/><path fill="url(#Z)" d="m47.2 17.2 2-1V50l-2 1 .1-33.7h-.1Z"/><path fill="url(#aa)" d="m19.3 1.2 28 16 1.9-1L21.2 0l-2 1 .1.2Z"/><path fill="url(#ab)" d="m21.5 33.4-.8.7-.7.3 12.2 6.9v-1.8l-10.7-6.1Z"/><path fill="url(#ac)" d="m35.8 41.6 7.8 4.5v1.2l-.5.3-7.3-4.2v-1.8Z"/><path fill="url(#ad)" d="m8.4 40.3.7.4V10.1l-.7-.3v30.5Z"/><path fill="url(#ae)" d="m45 23.9-.1 23s-8.8 4.9-11.1 6.7c-2.3 1.9-17 11.8-31.5-.7 7 .2 11.3-4.8 11.4-5-.1.1-5.6 2-9.7-.7-2.3-1.5-3-5.7.8-8.5-1.7 4.4 3.3 6.8 9.5 5 8.7-2.5 9-8 18-14.4l-.1 3.5 2.5-1.5.1-3.7C39.2 25 45 24 45 24Z"/><path stroke="#62B6E0" stroke-linecap="round" stroke-linejoin="round" stroke-width=".3" d="M40.6 34.9c2-2 4.6-2.8 4.6-2.8M29.6 35.4c2.4-2.8 4.8-4.3 7.5-5.4"/><path fill="url(#af)" d="M43.6 21v26.3l.4.2V20.8l-.4.1Z"/><path fill="#1D3080" d="m44.7 20.3.2-.1V48l-.3-.1V20.3h.1Z"/><path fill="url(#ag)" d="M35.8 52.5v.4l8.8-5-.3-.2-8.5 4.8Z"/><path fill="#1D3080" d="M35.8 53.6v.5l9.8-5.7-.4-.2-9.4 5.4Z"/><path fill="#517680" d="m35.8 53.2 9-5.2-9 5.2Z"/><path fill="#1D3080" d="M35.8 53v.2l9-5.2-.2-.2-8.8 5.1ZM44.3 47.7l-.3-.2-8.2 4.7v.3l8.5-4.8Z"/><path fill="url(#ah)" d="M35.8 51.8v.4l8.2-4.7-.4-.2-7.8 4.5Z"/><path fill="#1D3080" d="m44.3 20.5-.2.1-.1.1V47.5l.3.2V20.5Z"/><path fill="url(#ai)" d="m44.9 48-9.1 5.2v.4l9.4-5.4-.3-.2Z"/><path fill="url(#aj)" d="M44.9 20.2V48l.3.2V20l-.3.2Z"/><path fill="url(#ak)" d="M44.3 20.5v27.2l.3.1V20.3l-.3.2Z"/><path fill="#1D3080" d="M45.4 19.9h-.2v28.3l.4.2V19.8h-.2Z"/><path fill="url(#al)" d="m33.4 24.1.6.4.1 30.5-.7-.3h-.1V24v.1Z"/><path fill="url(#am)" d="M46 16.7h.1l.7.4v.1L34 24.5l-.7-.4L46 16.7Z"/><path fill="#1D3080" d="M34.1 55v1.4h.1V24.6 55Z"/><path fill="#4A5AA4" d="m34.1 24.5.2.2 12.5-7.4-1.3.6-11.4 6.6Z"/><path fill="url(#an)" d="M34.2 24.6h.4l1.3.8V54a75 75 0 0 1-1.3 2.3l-.1.1h-.3V24.6Z"/><path fill="url(#ao)" d="M46.8 17.3h.2v.3l-1.4 2.2-.2.2h-.2v.1l-.4.2-.4.2-.2.1-.6.4-7.8 4.5-1.3-.7H34.1v-.2l12.6-7.3Z"/><path fill="url(#ap)" d="m45.6 19.8 1.4-2.2v31.6l-1.2-.6-.2-.1V19.8Z"/><path fill="url(#aq)" d="M34.5 56.4 36 54l9.7-5.7.2.1 1.2.7-12.5 7.2Z"/><path stroke="#62B6E0" stroke-linecap="round" stroke-linejoin="round" stroke-width=".3" d="M3.2 41.8c1.6.4 1.4-2.3-.6-2.2-1.8.2-3.5 3.4-1.1 6.1 1 1.1 3 2.1 5.7 2.5M29.8 45a16.2 16.2 0 0 1-9.9 7.2"/><path fill="url(#ar)" d="M5.5 56.6c-.1.9 1.4 1.4 3 1.6a22 22 0 0 0 14.2-4.6A24 24 0 0 1 9.6 56c-2.2-.2-4-.6-4.1.5Z"/><path fill="url(#as)" d="M.5 50.1c-1 .2-.3 2 1.5 2.3 1.6.3 3.8-.4 3.8-.4-1.9 0-2.7-.3-3.5-.7C1.8 51 1 50 .5 50.1Z"/><path stroke="#62B6E0" stroke-linecap="round" stroke-linejoin="round" stroke-width=".3" d="M17.5 60c2.8.3 6.5-1.3 7.3-1.9"/><path fill="url(#at)" d="M31.5 28.4h-.7c-.7 0-2 .1-3.3 1-1.8 1.4-2 3-2.9 2.9l-.2-.2V32c-.1 0-.1 0 0-.1 0-.6.6-1.6 1.1-2 1.2-1.1 3.6-2.2 6-1.4Z"/><path fill="url(#au)" d="M29.3 41c-1.2 2.9-4 4.2-6 4.5-1.4.1-3.7-.3-3.4-1.3.3-.9 2.7 0 5-.4 3-.6 4.4-2.9 4.4-2.9Z"/><path fill="#1C93DE" d="m10.3 11 8.9-5.2v27.5l-8.9 5V11ZM35.9 25.5l8.8-5.1v27.4L36 53V25.5Z" opacity=".5"/><path fill="url(#av)" d="m35.8 40.5-.1 1.2c-.1.2-.4.4-.6.4-.2 0-.5-.2-.5-.4v-1.3c0-.3.2-.5.4-.6h.1c0-.1.1-.1.2 0l.3.1c.3.1.2.3.2.6Z"/><path fill="url(#aw)" d="M35.6 40.5c-.2 0-.5.4-.4.6v.2c.3.2.6.3 1 .3a4 4 0 0 0 2.3-1l.8-.7s0-.2-.2-.2-.4.4-1 .8c-.6.3-1.3.5-1.8.3l-.6-.3Z"/><path fill="url(#ax)" d="M19 17.1 10.4 12v4l8.8 4.5v-3.4Z"/><path fill="url(#ay)" d="m44.6 33.4-8.7-5.2v4l8.7 4.6v-3.4Z"/><path fill="url(#az)" d="m19 24-8.7-5.2v2.4l8.8 4.6V24Z"/><path fill="url(#aA)" d="M44.6 40.3 35.9 35v2.4l8.7 4.5v-1.7Z"/><defs><linearGradient id="a" x1="27.4" x2="25.3" y1="36.6" y2="40.2" gradientUnits="userSpaceOnUse"><stop offset=".4" stop-color="#1670BA"/><stop offset=".4" stop-color="#1B5EAD"/></linearGradient><linearGradient id="b" x1="21.7" x2="22.3" y1="18.7" y2="18.7" gradientUnits="userSpaceOnUse"><stop stop-color="#2298E8"/><stop offset="1" stop-color="#2186CB"/></linearGradient><linearGradient id="c" x1="21.7" x2="41" y1="36.4" y2="37.4" gradientUnits="userSpaceOnUse"><stop stop-color="#2298E8"/><stop offset="1" stop-color="#2186CB"/></linearGradient><linearGradient id="d" x1="22" x2="37.1" y1="34.5" y2="-4.7" gradientUnits="userSpaceOnUse"><stop stop-color="#1D3080"/><stop offset="1" stop-color="#3B4C9D"/></linearGradient><linearGradient id="e" x1="18.6" x2="18.6" y1="39.7" y2="29.6" gradientUnits="userSpaceOnUse"><stop stop-color="#1D3080"/><stop offset="1" stop-color="#3B4C9D"/></linearGradient><linearGradient id="f" x1="19.3" x2="21.7" y1="17.9" y2="17.9" gradientUnits="userSpaceOnUse"><stop stop-color="#2080C1"/><stop offset="1" stop-color="#146DB8"/></linearGradient><linearGradient id="g" x1="47.6" x2="19.8" y1="9.2" y2="9.2" gradientUnits="userSpaceOnUse"><stop stop-color="#C8C8C8"/><stop offset=".1" stop-color="#B8B8B8"/></linearGradient><linearGradient id="h" x1="34.6" x2="33.3" y1="8.7" y2="10.9" gradientUnits="userSpaceOnUse"><stop stop-color="#C8C8C8"/><stop offset=".1" stop-color="#B8B8B8"/></linearGradient><linearGradient id="i" x1="26.5" x2="49.2" y1="37.8" y2="9.1" gradientUnits="userSpaceOnUse"><stop stop-color="#2080C1"/><stop offset="1" stop-color="#146DB8"/></linearGradient><linearGradient id="j" x1="33.8" x2="33.6" y1="8.9" y2="9.2" gradientUnits="userSpaceOnUse"><stop stop-color="#C8C8C8"/><stop offset=".1" stop-color="#D5D5D5"/><stop offset=".1" stop-color="#EEE"/><stop offset=".1" stop-color="#ECECEC"/><stop offset=".9" stop-color="#EEE"/></linearGradient><linearGradient id="k" x1="33.8" x2="33.2" y1="8.9" y2="9.9" gradientUnits="userSpaceOnUse"><stop stop-color="#C8C8C8"/><stop offset=".1" stop-color="#D5D5D5"/><stop offset=".1" stop-color="#EEE"/><stop offset=".1" stop-color="#ECECEC"/><stop offset=".9" stop-color="#EEE"/></linearGradient><linearGradient id="l" x1="34.1" x2="33.9" y1="8.7" y2="9" gradientUnits="userSpaceOnUse"><stop stop-color="#C8C8C8"/><stop offset=".1" stop-color="#D5D5D5"/><stop offset=".1" stop-color="#EEE"/><stop offset=".1" stop-color="#ECECEC"/><stop offset=".9" stop-color="#EEE"/></linearGradient><linearGradient id="m" x1="34.1" x2="33.5" y1="8.7" y2="9.8" gradientUnits="userSpaceOnUse"><stop stop-color="#C8C8C8"/><stop offset=".1" stop-color="#D5D5D5"/><stop offset=".1" stop-color="#EEE"/><stop offset=".1" stop-color="#ECECEC"/><stop offset=".9" stop-color="#EEE"/></linearGradient><linearGradient id="n" x1="34.8" x2="34.5" y1="8.3" y2="8.8" gradientUnits="userSpaceOnUse"><stop stop-color="#C8C8C8"/><stop offset=".1" stop-color="#D5D5D5"/><stop offset=".1" stop-color="#EEE"/><stop offset=".1" stop-color="#ECECEC"/><stop offset=".9" stop-color="#EEE"/></linearGradient><linearGradient id="o" x1="34.8" x2="34.2" y1="8.3" y2="9.4" gradientUnits="userSpaceOnUse"><stop stop-color="#C8C8C8"/><stop offset=".1" stop-color="#D5D5D5"/><stop offset=".1" stop-color="#EEE"/><stop offset=".1" stop-color="#ECECEC"/><stop offset=".9" stop-color="#EEE"/></linearGradient><linearGradient id="p" x1="35.1" x2="34.8" y1="8.1" y2="8.6" gradientUnits="userSpaceOnUse"><stop stop-color="#C8C8C8"/><stop offset=".1" stop-color="#D5D5D5"/><stop offset=".1" stop-color="#EEE"/><stop offset=".1" stop-color="#ECECEC"/><stop offset=".9" stop-color="#EEE"/></linearGradient><linearGradient id="q" x1="35.1" x2="34.5" y1="8.1" y2="9.2" gradientUnits="userSpaceOnUse"><stop stop-color="#C8C8C8"/><stop offset=".1" stop-color="#D5D5D5"/><stop offset=".1" stop-color="#EEE"/><stop offset=".1" stop-color="#ECECEC"/><stop offset=".9" stop-color="#EEE"/></linearGradient><linearGradient id="r" x1="20" x2="19.7" y1="1" y2="1" gradientUnits="userSpaceOnUse"><stop offset=".1" stop-color="#ECECEC"/><stop offset=".9" stop-color="#EEE"/></linearGradient><linearGradient id="s" x1="21" x2="20.7" y1=".5" y2=".5" gradientUnits="userSpaceOnUse"><stop offset=".1" stop-color="#ECECEC"/><stop offset=".9" stop-color="#EEE"/></linearGradient><linearGradient id="t" x1="17.4" x2="17.7" y1="19" y2="19" gradientUnits="userSpaceOnUse"><stop stop-color="#2180C2"/><stop offset="1" stop-color="#2C8CCC"/></linearGradient><linearGradient id="u" x1="9.5" x2="18.3" y1="35.1" y2="35.1" gradientUnits="userSpaceOnUse"><stop stop-color="#2180C2"/><stop offset="1" stop-color="#2C8CCC"/></linearGradient><linearGradient id="v" x1="9.5" x2="17.7" y1="34.6" y2="34.6" gradientUnits="userSpaceOnUse"><stop stop-color="#2298E8"/><stop offset="1" stop-color="#2186CB"/></linearGradient><linearGradient id="w" x1="9.5" x2="18.9" y1="35.6" y2="35.6" gradientUnits="userSpaceOnUse"><stop stop-color="#2180C2"/><stop offset="1" stop-color="#2C8CCC"/></linearGradient><linearGradient id="x" x1="18.6" x2="18.9" y1="19" y2="19" gradientUnits="userSpaceOnUse"><stop stop-color="#2180C2"/><stop offset="1" stop-color="#2C8CCC"/></linearGradient><linearGradient id="y" x1="18" x2="18.3" y1="19" y2="19" gradientUnits="userSpaceOnUse"><stop stop-color="#2180C2"/><stop offset="1" stop-color="#2C8CCC"/></linearGradient><linearGradient id="A" x1="7" x2="19.7" y1="5.3" y2="5.3" gradientUnits="userSpaceOnUse"><stop stop-color="#2298E8"/><stop offset="1" stop-color="#2186CB"/></linearGradient><linearGradient id="B" x1="7.3" x2="9.1" y1="24.8" y2="24.8" gradientUnits="userSpaceOnUse"><stop stop-color="#1169BB"/><stop offset="1" stop-color="#146DB8"/></linearGradient><linearGradient id="D" x1="7.7" x2="19.6" y1="6.1" y2="6.1" gradientUnits="userSpaceOnUse"><stop stop-color="#2298E8"/><stop offset="1" stop-color="#2186CB"/></linearGradient><linearGradient id="E" x1="8.1" x2="19.6" y1="6.3" y2="6.3" gradientUnits="userSpaceOnUse"><stop stop-color="#1169BB"/><stop offset="1" stop-color="#146DB8"/></linearGradient><linearGradient id="F" x1="8" x2="8.4" y1="24.8" y2="24.8" gradientUnits="userSpaceOnUse"><stop stop-color="#1169BB"/><stop offset="1" stop-color="#146DB8"/></linearGradient><linearGradient id="G" x1="10.5" x2="6.2" y1="25.2" y2="25.2" gradientUnits="userSpaceOnUse"><stop stop-color="#C8C8C8"/><stop offset=".3" stop-color="#D5D5D5"/><stop offset=".3" stop-color="#EEE"/><stop offset=".9" stop-color="#EEE"/></linearGradient><linearGradient id="H" x1="8.4" x2="20.7" y1="6.6" y2="6.6" gradientUnits="userSpaceOnUse"><stop stop-color="#2298E8"/><stop offset="1" stop-color="#2186CB"/></linearGradient><linearGradient id="I" x1="9.8" x2="9.4" y1="30.4" y2="30.4" gradientUnits="userSpaceOnUse"><stop stop-color="#126FB9"/><stop offset=".9" stop-color="#2363B5"/></linearGradient><linearGradient id="J" x1="15.7" x2="14.5" y1="38.2" y2="36.4" gradientUnits="userSpaceOnUse"><stop stop-color="#126FB9"/><stop offset=".9" stop-color="#2363B5"/></linearGradient><linearGradient id="K" x1="19.1" x2="10.7" y1="33.3" y2="38.6" gradientUnits="userSpaceOnUse"><stop stop-color="#2180C2"/><stop offset="1" stop-color="#2C8CCC"/></linearGradient><linearGradient id="L" x1="15.7" x2="14.5" y1="8.4" y2="6.6" gradientUnits="userSpaceOnUse"><stop stop-color="#126FB9"/><stop offset=".9" stop-color="#2363B5"/></linearGradient><linearGradient id="M" x1="20.7" x2="18.6" y1="52.8" y2="52.8" gradientUnits="userSpaceOnUse"><stop stop-color="#126FB9"/><stop offset=".9" stop-color="#2363B5"/></linearGradient><linearGradient id="N" x1="7.3" x2="19.6" y1="5.6" y2="5.6" gradientUnits="userSpaceOnUse"><stop stop-color="#1169BB"/><stop offset="1" stop-color="#146DB8"/></linearGradient><linearGradient id="O" x1="47.6" x2="47.4" y1="33.8" y2="33.8" gradientUnits="userSpaceOnUse"><stop stop-color="#C8C8C8"/><stop offset=".3" stop-color="#B8B8B8"/></linearGradient><linearGradient id="P" x1="48.7" x2="47.4" y1="33.3" y2="33.3" gradientUnits="userSpaceOnUse"><stop stop-color="#C8C8C8"/><stop offset=".3" stop-color="#B8B8B8"/></linearGradient><linearGradient id="Q" x1="49.1" x2="49.2" y1="33.1" y2="33.1" gradientUnits="userSpaceOnUse"><stop stop-color="#2298E8"/><stop offset="1" stop-color="#2186CB"/></linearGradient><linearGradient id="R" x1="40.4" x2="38.3" y1="44" y2="47.6" gradientUnits="userSpaceOnUse"><stop offset=".4" stop-color="#1670BA"/><stop offset=".4" stop-color="#1B5EAD"/></linearGradient><linearGradient id="S" x1="34.7" x2="35.2" y1="26.2" y2="26.2" gradientUnits="userSpaceOnUse"><stop stop-color="#2298E8"/><stop offset="1" stop-color="#2186CB"/></linearGradient><linearGradient id="T" x1="34.6" x2="53.9" y1="43.9" y2="44.9" gradientUnits="userSpaceOnUse"><stop stop-color="#2298E8"/><stop offset="1" stop-color="#2186CB"/></linearGradient><linearGradient id="U" x1="34.9" x2="49.6" y1="41.9" y2="2.5" gradientUnits="userSpaceOnUse"><stop stop-color="#1D3080"/><stop offset="1" stop-color="#3B4C9D"/></linearGradient><linearGradient id="V" x1="31.6" x2="31.6" y1="47.2" y2="37.2" gradientUnits="userSpaceOnUse"><stop stop-color="#1D3080"/><stop offset="1" stop-color="#3B4C9D"/></linearGradient><linearGradient id="W" x1="32.2" x2="34.7" y1="26.2" y2="26.2" gradientUnits="userSpaceOnUse"><stop stop-color="#2080C1"/><stop offset="1" stop-color="#146DB8"/></linearGradient><linearGradient id="X" x1="30.9" x2="30.9" y1="47.8" y2="37.2" gradientUnits="userSpaceOnUse"><stop stop-color="#1D3080"/><stop offset="1" stop-color="#3B4C9D"/></linearGradient><linearGradient id="Y" x1="46.4" x2="50.1" y1="88.7" y2="88.5" gradientUnits="userSpaceOnUse"><stop stop-color="#2080C1"/><stop offset="1" stop-color="#146DB8"/></linearGradient><linearGradient id="Z" x1="46.6" x2="49.2" y1="52.6" y2="-1.5" gradientUnits="userSpaceOnUse"><stop stop-color="#6471B2"/><stop offset=".2" stop-color="#5A68AC"/><stop offset=".5" stop-color="#4F5EA6"/><stop offset="1" stop-color="#3B4C9D"/></linearGradient><linearGradient id="aa" x1="19.3" x2="70.4" y1="8.7" y2="11.5" gradientUnits="userSpaceOnUse"><stop stop-color="#2298E8"/><stop offset="1" stop-color="#2186CB"/></linearGradient><linearGradient id="ab" x1="20" x2="21.3" y1="37.3" y2="12.4" gradientUnits="userSpaceOnUse"><stop stop-color="#2080C1"/><stop offset="1" stop-color="#146DB8"/></linearGradient><linearGradient id="ac" x1="35.8" x2="43.6" y1="44.6" y2="44.6" gradientUnits="userSpaceOnUse"><stop stop-color="#2080C1"/><stop offset="1" stop-color="#146DB8"/></linearGradient><linearGradient id="ae" x1="1.4" x2="40.3" y1="65.5" y2="27.8" gradientUnits="userSpaceOnUse"><stop stop-color="#C3DFF1" stop-opacity="0"/><stop offset="1" stop-color="#8CCAED"/></linearGradient><linearGradient id="af" x1="43.6" x2="44" y1="34.1" y2="34.1" gradientUnits="userSpaceOnUse"><stop stop-color="#2180C2"/><stop offset="1" stop-color="#2C8CCC"/></linearGradient><linearGradient id="ag" x1="35.8" x2="44.6" y1="50.3" y2="50.3" gradientUnits="userSpaceOnUse"><stop stop-color="#2180C2"/><stop offset="1" stop-color="#2C8CCC"/></linearGradient><linearGradient id="ah" x1="35.8" x2="44" y1="49.7" y2="49.7" gradientUnits="userSpaceOnUse"><stop stop-color="#2298E8"/><stop offset="1" stop-color="#2186CB"/></linearGradient><linearGradient id="ai" x1="35.8" x2="45.2" y1="50.8" y2="50.8" gradientUnits="userSpaceOnUse"><stop stop-color="#2180C2"/><stop offset="1" stop-color="#2C8CCC"/></linearGradient><linearGradient id="aj" x1="44.9" x2="45.2" y1="34.1" y2="34.1" gradientUnits="userSpaceOnUse"><stop stop-color="#2180C2"/><stop offset="1" stop-color="#2C8CCC"/></linearGradient><linearGradient id="ak" x1="44.3" x2="44.6" y1="34.1" y2="34.1" gradientUnits="userSpaceOnUse"><stop stop-color="#2180C2"/><stop offset="1" stop-color="#2C8CCC"/></linearGradient><linearGradient id="am" x1="33.3" x2="46.8" y1="20.6" y2="20.6" gradientUnits="userSpaceOnUse"><stop stop-color="#2298E8"/><stop offset="1" stop-color="#2186CB"/></linearGradient><linearGradient id="an" x1="35.7" x2="28.3" y1="40.5" y2="40.5" gradientUnits="userSpaceOnUse"><stop stop-color="#126EB8"/><stop offset=".2" stop-color="#2561B4"/><stop offset=".2" stop-color="#5BB1DF"/></linearGradient><linearGradient id="ao" x1="39.1" x2="36.8" y1="22.9" y2="19.1" gradientUnits="userSpaceOnUse"><stop stop-color="#126EB8"/><stop offset=".2" stop-color="#2561B4"/><stop offset=".2" stop-color="#5BB1DF"/></linearGradient><linearGradient id="ap" x1="46.2" x2="43.8" y1="70.3" y2="70.1" gradientUnits="userSpaceOnUse"><stop stop-color="#126FB9"/><stop offset=".9" stop-color="#2363B5"/></linearGradient><linearGradient id="aq" x1="42.8" x2="38.1" y1="60.3" y2="42.3" gradientUnits="userSpaceOnUse"><stop stop-color="#126FB9"/><stop offset=".9" stop-color="#2363B5"/></linearGradient><linearGradient id="av" x1="34.6" x2="36.3" y1="40.2" y2="40.9" gradientUnits="userSpaceOnUse"><stop stop-color="#6471B2"/><stop offset=".2" stop-color="#5A68AC"/><stop offset=".5" stop-color="#4F5EA6"/><stop offset="1" stop-color="#3B4C9D"/></linearGradient><linearGradient id="aw" x1="36.4" x2="36.2" y1="41.8" y2="39.7" gradientUnits="userSpaceOnUse"><stop offset=".1" stop-color="#1D3080"/><stop offset=".8" stop-color="#5664AF"/></linearGradient><linearGradient id="ax" x1="-2.1" x2="14.7" y1="9.4" y2="20.5" gradientUnits="userSpaceOnUse"><stop stop-color="#fff"/><stop offset="1" stop-color="#fff" stop-opacity="0"/></linearGradient><linearGradient id="ay" x1="23.4" x2="40.2" y1="25.7" y2="36.8" gradientUnits="userSpaceOnUse"><stop stop-color="#fff"/><stop offset="1" stop-color="#fff" stop-opacity="0"/></linearGradient><linearGradient id="az" x1="-2.1" x2="14.7" y1="14.7" y2="25.8" gradientUnits="userSpaceOnUse"><stop stop-color="#fff"/><stop offset="1" stop-color="#fff" stop-opacity="0"/></linearGradient><linearGradient id="aA" x1="23.4" x2="40.2" y1="30.9" y2="42" gradientUnits="userSpaceOnUse"><stop stop-color="#fff"/><stop offset="1" stop-color="#fff" stop-opacity="0"/></linearGradient><radialGradient id="z" cx="0" cy="0" r="1" gradientTransform="matrix(.1640249 8.38021493 -.67685036 .0132479 7 24.5)" gradientUnits="userSpaceOnUse"><stop stop-color="#7BBFE3"/><stop offset=".1" stop-color="#62B6E0"/><stop offset=".9" stop-color="#48A1D9"/></radialGradient><radialGradient id="C" cx="0" cy="0" r="1" gradientTransform="rotate(90.6 -1 9) scale(29.7326 4.57467)" gradientUnits="userSpaceOnUse"><stop stop-color="#7BBFE3"/><stop offset=".1" stop-color="#62B6E0"/><stop offset=".9" stop-color="#48A1D9"/></radialGradient><radialGradient id="ad" cx="0" cy="0" r="1" gradientTransform="rotate(88 -.5 8.5) scale(32.1744 9.71389)" gradientUnits="userSpaceOnUse"><stop stop-color="#7BBFE3"/><stop offset=".1" stop-color="#62B6E0"/><stop offset=".9" stop-color="#48A1D9"/></radialGradient><radialGradient id="al" cx="0" cy="0" r="1" gradientTransform="rotate(-87.7 44.4 10.7) scale(32.8263 11.3668)" gradientUnits="userSpaceOnUse"><stop offset=".1" stop-color="#298CD5"/><stop offset=".9" stop-color="#48A1D9"/></radialGradient><radialGradient id="ar" cx="0" cy="0" r="1" gradientTransform="rotate(2.3 -1392 228.7) scale(11.0471 2.38218)" gradientUnits="userSpaceOnUse"><stop stop-color="#7BBFE3"/><stop offset=".2" stop-color="#62B6E0"/><stop offset=".9" stop-color="#48A1D9"/></radialGradient><radialGradient id="as" cx="0" cy="0" r="1" gradientTransform="matrix(3.66029737 1.13391244 -.38951044 1.25734932 1 50.6)" gradientUnits="userSpaceOnUse"><stop stop-color="#7BBFE3"/><stop offset=".2" stop-color="#62B6E0"/><stop offset=".9" stop-color="#48A1D9"/></radialGradient><radialGradient id="at" cx="0" cy="0" r="1" gradientTransform="matrix(4.84741278 -4.0395148 1.3230699 1.58768225 24.7 30.9)" gradientUnits="userSpaceOnUse"><stop stop-color="#7BBFE3"/><stop offset=".2" stop-color="#62B6E0"/><stop offset=".9" stop-color="#48A1D9"/></radialGradient><radialGradient id="au" cx="0" cy="0" r="1" gradientTransform="rotate(-1.4 1881.4 -875.6) scale(6.20269 1.69683)" gradientUnits="userSpaceOnUse"><stop stop-color="#7BBFE3"/><stop offset=".2" stop-color="#62B6E0"/><stop offset=".9" stop-color="#48A1D9"/></radialGradient></defs></svg>