<svg xmlns="http://www.w3.org/2000/svg" width="81" height="60" fill="none"><path fill="#3648A8" d="M16.923 24.433c0 .194-.014.388-.055.582a.323.323 0 0 1-.084.139.6.6 0 0 1-.097.09 1.806 1.806 0 0 1-.79.346 1.821 1.821 0 0 1-.387 0h-.07a1.6 1.6 0 0 1-.428-.125c-.028 0-.056-.028-.097-.055l-.097-.056a5.053 5.053 0 0 1-1.725-1.759 1.194 1.194 0 0 1-.11-.297 2.276 2.276 0 0 1-.07-.367v-.742a2.03 2.03 0 0 1 .083-.408c.049-.256.173-.485.36-.665a.697.697 0 0 1 .236-.125.67.67 0 0 1 .263-.013c.415.055 1.039.415 2.07 1.128.45.312.79.755.97 1.268v.041a.6.6 0 0 1 .042.222v.817l-.014-.02Z"/><path fill="#1D3092" d="M36.68 46.814c.499.859 1.157 1.752 1.163 3.255l-.117 1.842L13.32 37.258l.298-1.829c0-1.51-1.073-2.867-1.551-3.725L36.68 46.828v-.014Z"/><path fill="url(#a)" d="M33.85 50.04c-.152-.333-.318-.658-.464-.99.215.491.319 1.017.298 1.55a7.919 7.919 0 0 1-3.663 6.199l.914-.035a6.916 6.916 0 0 0 2.237-2.306 6.86 6.86 0 0 0 .948-3.068 3.227 3.227 0 0 0-.249-1.35h-.021Z"/><path fill="url(#b)" d="M30.936 56.164a5.653 5.653 0 0 0 1.863-1.932 5.717 5.717 0 0 0 .789-2.57 1.842 1.842 0 0 0-.145-.983 1.846 1.846 0 0 0-.63-.768l.18.11c.276.194.491.465.63.77.138.31.187.65.145.983a5.664 5.664 0 0 1-.79 2.562 5.847 5.847 0 0 1-1.862 1.932 1.82 1.82 0 0 1-.88.312 1.806 1.806 0 0 1-.914-.16l-.18-.11a1.805 1.805 0 0 0 1.794-.16v.014Z"/><path fill="#141414" d="m35.12 48.954-.68-.388c.749.437 1.213 1.372 1.192 2.687-.035 2.59-1.87 5.686-4.079 6.912l.679.388c2.216-1.233 4.037-4.294 4.079-6.912.014-1.309-.43-2.264-1.191-2.687Z"/><path fill="url(#c)" d="M27.428 55.445c0-.263.028-.526.063-.782.055-.395.152-.727.152-.796a6.87 6.87 0 0 1 .242-.755c.09-.264.194-.513.326-.755l.18-.374c.062-.111.138-.256.2-.36.063-.104.153-.25.222-.347.07-.097.333-.491.485-.678.083-.104.18-.229.27-.326.152-.18.381-.394.54-.56.153-.167.215-.195.319-.278.097-.083.194-.159.298-.228a6.36 6.36 0 0 1 .644-.416c.117-.062.284-.152.415-.2l.277-.111c.083-.028.18-.063.27-.083.146-.042.298-.07.45-.09l.229-.028h.346c.166 0 .34.028.499.083.076.02.152.042.228.076l.347.153c.748.436 1.212 1.37 1.19 2.686-.034 2.59-1.869 5.686-4.078 6.912-1.074.588-2.043.637-2.756.228l-.277-.187-.153-.117a2.276 2.276 0 0 1-.277-.298l-.117-.166a8.664 8.664 0 0 1-.194-.347 4.111 4.111 0 0 1-.18-.436 4.58 4.58 0 0 1-.153-.679c0-.117-.027-.283-.034-.415l.02-.319.007-.007Zm3.698.831a5.652 5.652 0 0 0 1.863-1.932 5.717 5.717 0 0 0 .79-2.569c.027-1.683-1.115-2.403-2.563-1.614a5.652 5.652 0 0 0-1.863 1.933 5.717 5.717 0 0 0-.789 2.562c-.035 1.69 1.115 2.403 2.555 1.614l.007.006Z"/><path fill="url(#d)" d="M32.717 57.195a5.652 5.652 0 0 0 1.863-1.932 5.717 5.717 0 0 0 .79-2.57 1.842 1.842 0 0 0-.146-.982 1.846 1.846 0 0 0-.63-.77l.194.112c.277.194.491.464.63.768.138.312.187.651.145.984a5.664 5.664 0 0 1-.79 2.562 5.847 5.847 0 0 1-1.862 1.932 1.82 1.82 0 0 1-.88.312 1.806 1.806 0 0 1-.914-.16l-.194-.11a1.805 1.805 0 0 0 1.794-.16v.014Z"/><path fill="url(#e)" d="m29.743 55.242.027-.153a5.294 5.294 0 0 0-.103.935c-.028 2.098 1.398 2.999 3.22 2.001a7.17 7.17 0 0 0 2.327-2.41 7.17 7.17 0 0 0 .983-3.199c.028-2.098-1.399-2.999-3.22-2.001-.326.18-.623.401-.9.65l.11-.103c.291-.257.61-.485.95-.679 1.904-1.073 3.42-.104 3.392 2.147a7.588 7.588 0 0 1-3.511 5.956c-1.904 1.073-3.42.103-3.393-2.147 0-.333.042-.665.11-.99l.008-.008Z"/><path fill="url(#f)" d="M32.858 58.034a7.17 7.17 0 0 0 2.327-2.41c.574-.977.914-2.07.983-3.2.035-2.098-1.399-2.998-3.22-2.001a7.171 7.171 0 0 0-2.327 2.41 7.172 7.172 0 0 0-.983 3.2c-.014 2.098 1.405 2.998 3.22 2Zm0-.347c-1.614.908-2.936.09-2.909-1.82a6.464 6.464 0 0 1 .894-2.91 6.6 6.6 0 0 1 2.119-2.188c1.613-.907 2.936-.09 2.908 1.822a6.465 6.465 0 0 1-.893 2.915 6.601 6.601 0 0 1-2.12 2.188v-.007Z"/><path fill="url(#g)" d="M29.61 55.346s.062-.028.09-.048a.374.374 0 0 1-.09.048 8.61 8.61 0 0 1 2.597-4.543 5.292 5.292 0 0 1 1.025-.727c2.036-1.129 3.65-.11 3.615 2.264-.035 2.376-1.71 5.215-3.76 6.337-2.05 1.122-3.65.11-3.616-2.265.007-.36.056-.713.132-1.066h.007Zm3.421 3.04a7.568 7.568 0 0 0 2.465-2.555 7.63 7.63 0 0 0 1.046-3.394c.035-2.23-1.489-3.185-3.393-2.146a5.873 5.873 0 0 0-.963.678c-.083.083-.2.18-.284.27-.242.25-.332.347-.47.54-.14.188-.285.36-.395.54-.111.18-.284.437-.395.63-.194.326-.36.673-.499 1.019-.034.104-.09.228-.131.332-.035.104-.083.243-.111.347-.055.18-.111.436-.152.616a6.107 6.107 0 0 0-.111.997c-.035 2.23 1.489 3.186 3.393 2.147l.014-.02h-.014Z"/><path fill="url(#h)" d="M24.665 54.627c.055-3.83 1.323-6.018 4.633-7.846 1.233-.68 2.334-.728 3.137-.257l3.372 1.96c-.803-.464-1.904-.415-3.123.256-2.5 1.385-4.577 4.896-4.626 7.826-.02.65.09 1.302.346 1.904a4.447 4.447 0 0 0 1.614-.54l2.535 1.447c-1.212.68-2.306.72-3.103.27l-3.386-1.932c-.859-.491-1.378-1.55-1.358-3.074l-.034-.014h-.007Z"/><path fill="url(#i)" d="M33.084 59.037c2.202-1.22 4.01-4.294 4.058-6.863.048-2.57-1.71-3.67-3.92-2.452-2.216 1.226-4.01 4.294-4.058 6.863-.048 2.57 1.71 3.67 3.92 2.452Zm0-.873c-1.794.99-3.22.104-3.193-1.994a7.144 7.144 0 0 1 .984-3.193 7.174 7.174 0 0 1 2.32-2.396c1.793-.99 3.22-.104 3.192 2.001a7.107 7.107 0 0 1-.976 3.186 7.109 7.109 0 0 1-2.32 2.396h-.014.007Z"/><path fill="#5664AD" d="M28.054 56.558c0 1.517.498 2.576 1.357 3.075l.194.104.25.104c.138.041.283.083.422.11.104 0 .249.035.36.049h.387c.09 0 .18-.007.27-.028.153-.034.375-.062.54-.11.167-.049.43-.153.617-.222.187-.07.332-.16.471-.229l.055-.034.291-.173c.118-.084.277-.18.395-.277.2-.153.464-.374.658-.54a8.63 8.63 0 0 0 .65-.68c.209-.235.403-.477.583-.733.048-.063.27-.374.54-.79.152-.27.298-.54.443-.824.27-.554.478-1.129.63-1.724.152-.561.236-1.136.25-1.718 0-.27 0-.54-.035-.803 0-.132-.042-.298-.063-.422a2.304 2.304 0 0 0-.069-.298c-.041-.139-.083-.284-.138-.416a2.46 2.46 0 0 0-.111-.235 2.758 2.758 0 0 0-.222-.395 7.178 7.178 0 0 0-.284-.36c-.09-.104-.124-.118-.166-.166a1.584 1.584 0 0 0-.166-.139l-.305-.2c-.803-.465-1.904-.416-3.123.263-2.548 1.378-4.619 4.889-4.668 7.818l-.013-.007Z"/><path fill="url(#j)" d="m34.393 54.19-.049-.048c.097.042.187.097.27.166l-.221-.131v.014Z"/><path fill="url(#k)" d="M29.902 55.9c-.035 1.919 1.302 2.729 2.964 1.808a6.593 6.593 0 0 0 2.14-2.21 6.584 6.584 0 0 0 .9-2.943c0-1.925-1.302-2.735-2.964-1.807a6.637 6.637 0 0 0-2.147 2.216 6.614 6.614 0 0 0-.9 2.95l.007-.014Z"/><path fill="#1D3092" d="M74.487 24.972c.499.858 1.157 1.752 1.164 3.254l-.118 1.379L53.06 15.359l-.665-1.932c0-1.51-1.074-2.867-1.551-3.725L74.5 24.972h-.014Z"/><path fill="url(#l)" d="M71.668 28.193c-.152-.332-.318-.658-.464-.99.215.492.319 1.018.298 1.551a7.919 7.919 0 0 1-3.663 6.198l.914-.035a6.886 6.886 0 0 0 3.186-5.374 3.23 3.23 0 0 0-.25-1.35h-.021Z"/><path fill="url(#m)" d="M68.755 34.328a5.652 5.652 0 0 0 1.863-1.932 5.717 5.717 0 0 0 .79-2.569 1.843 1.843 0 0 0-.146-.983 1.846 1.846 0 0 0-.63-.769l.18.11c.27.195.492.458.63.756.139.304.194.637.16.97a5.717 5.717 0 0 1-.79 2.568 5.846 5.846 0 0 1-1.863 1.933 1.82 1.82 0 0 1-.88.311 1.805 1.805 0 0 1-.913-.16l-.18-.11a1.801 1.801 0 0 0 1.793-.132l-.014.008Z"/><path fill="#141414" d="m72.938 27.105-.679-.387c.748.436 1.212 1.37 1.191 2.687-.034 2.59-1.87 5.685-4.079 6.911l.679.388c2.216-1.233 4.037-4.294 4.079-6.912.014-1.315-.443-2.264-1.191-2.687Z"/><path fill="url(#n)" d="M65.236 33.6c0-.262.027-.526.062-.782.055-.395.152-.727.152-.796.063-.229.153-.54.243-.755.09-.263.193-.512.325-.755l.18-.374c.062-.11.139-.256.2-.36a5.91 5.91 0 0 1 .223-.346c.069-.097.332-.492.484-.679.083-.104.18-.228.27-.325.153-.18.381-.395.54-.561.09-.083.215-.194.32-.277.096-.083.193-.16.297-.229.208-.152.422-.29.644-.415.118-.063.284-.153.415-.201l.277-.111c.084-.028.18-.062.27-.083.146-.042.298-.07.45-.09l.23-.028h.345c.174 0 .34.035.5.083.075.021.151.042.228.076l.346.153c.748.436 1.212 1.371 1.191 2.687-.035 2.59-1.87 5.685-4.079 6.911-1.073.589-2.043.637-2.756.229l-.277-.18-.153-.118a2.821 2.821 0 0 1-.277-.298l-.117-.166c-.063-.104-.139-.229-.194-.346a4.094 4.094 0 0 1-.18-.437 4.578 4.578 0 0 1-.153-.678c0-.118-.027-.284-.034-.416l.02-.325.008-.007Zm3.697.832a5.755 5.755 0 0 0 2.653-4.516c.028-1.682-1.115-2.402-2.562-1.613a5.65 5.65 0 0 0-1.863 1.932 5.717 5.717 0 0 0-.79 2.57c-.027 1.71 1.115 2.43 2.563 1.634v-.007Z"/><path fill="url(#o)" d="M70.524 35.339a5.652 5.652 0 0 0 1.863-1.932 5.717 5.717 0 0 0 .79-2.57 1.842 1.842 0 0 0-.146-.983 1.846 1.846 0 0 0-.63-.769l.194.111c.277.194.492.464.63.769.139.311.187.65.146.983a5.717 5.717 0 0 1-.79 2.57 5.846 5.846 0 0 1-1.863 1.932 1.82 1.82 0 0 1-.88.311 1.805 1.805 0 0 1-.913-.159l-.194-.11a1.804 1.804 0 0 0 1.794-.16v.007Z"/><path fill="url(#p)" d="m67.564 33.4.028-.153a5.303 5.303 0 0 0-.104.935c-.028 2.098 1.399 2.998 3.22 2.001a7.218 7.218 0 0 0 2.32-2.41c.575-.976.907-2.07.976-3.192.028-2.098-1.398-2.999-3.22-2.002a4.88 4.88 0 0 0-.9.651l.11-.103c.291-.257.61-.485.95-.68 1.904-1.072 3.42-.103 3.393 2.148a7.628 7.628 0 0 1-3.518 5.948c-1.905 1.074-3.421.104-3.394-2.146a4.79 4.79 0 0 1 .125-.998h.014Z"/><path fill="url(#q)" d="M70.665 36.199a7.173 7.173 0 0 0 2.327-2.41c.575-.977.914-2.07.983-3.2.028-2.098-1.398-2.998-3.22-2.001a7.214 7.214 0 0 0-2.313 2.417 7.27 7.27 0 0 0-.97 3.206c-.034 2.085 1.4 2.978 3.193 1.98v.008Zm0-.347c-1.613.908-2.936.09-2.908-1.82a6.474 6.474 0 0 1 .9-2.916 6.427 6.427 0 0 1 2.133-2.182c1.613-.9 2.936-.09 2.908 1.822a6.513 6.513 0 0 1-3.033 5.076v.027-.007Z"/><path fill="url(#r)" d="M67.417 33.497s.063-.028.09-.048a.374.374 0 0 1-.09.048 8.637 8.637 0 0 1 2.597-4.543 5.292 5.292 0 0 1 1.025-.727c2.036-1.129 3.65-.11 3.615 2.265-.035 2.375-1.71 5.214-3.76 6.336-2.05 1.122-3.65.111-3.615-2.264.007-.36.055-.714.131-1.067h.007Zm3.421 3.02a7.629 7.629 0 0 0 3.518-5.949c.035-2.23-1.489-3.186-3.393-2.147A5.878 5.878 0 0 0 70 29.1c-.083.083-.2.18-.284.27-.242.25-.332.346-.47.54-.14.194-.284.36-.395.54-.111.18-.284.436-.395.63a8.845 8.845 0 0 0-.499.99c-.034.105-.09.23-.131.333-.035.104-.083.242-.111.346-.055.18-.11.437-.152.617a6.105 6.105 0 0 0-.111.997c-.035 2.23 1.489 3.185 3.393 2.147l.014.014-.02-.007Z"/><path fill="url(#s)" d="M62.483 32.792c.056-3.83 1.323-6.018 4.633-7.846 1.233-.68 2.334-.728 3.137-.257l3.373 1.96c-.804-.464-1.905-.415-3.124.256-2.5 1.386-4.577 4.896-4.626 7.826-.02.65.09 1.302.347 1.904a4.447 4.447 0 0 0 1.613-.54l2.535 1.447c-1.212.68-2.306.72-3.103.27l-3.386-1.931c-.859-.492-1.378-1.552-1.357-3.075l-.035-.014h-.007Z"/><path fill="#5664AD" d="M65.88 34.716c0 1.517.498 2.583 1.357 3.075.055.028.131.076.194.104.083.041.159.069.249.104.125.041.298.083.422.11l.367.042h.395c.09 0 .18-.007.263-.028a5 5 0 0 0 .54-.11 7.33 7.33 0 0 0 .617-.222 5.71 5.71 0 0 0 .457-.222l.041-.028.257-.152a8.068 8.068 0 0 0 1.696-1.496 7.64 7.64 0 0 0 .582-.74c.194-.257.374-.52.54-.79.153-.263.305-.54.444-.824a9.456 9.456 0 0 0 .63-1.718c.152-.56.235-1.142.249-1.724 0-.27 0-.533-.028-.803 0-.132-.048-.298-.062-.43-.014-.131-.049-.207-.076-.297a3.26 3.26 0 0 0-.139-.416c-.034-.083-.069-.166-.11-.242a3.112 3.112 0 0 0-.222-.388c-.083-.111-.194-.263-.284-.367-.09-.104-.125-.118-.166-.166a.99.99 0 0 0-.166-.132c-.09-.062-.215-.152-.305-.2-.803-.465-1.905-.416-3.123.255-2.5 1.365-4.571 4.869-4.613 7.805h-.007Z"/><path fill="url(#t)" d="m70.737 37.567.032-.026-.038.026h.012-.006Z"/><path fill="url(#u)" d="M67.758 34.073c0 1.904 1.295 2.714 2.936 1.793a6.512 6.512 0 0 0 2.126-2.195c.526-.886.83-1.89.893-2.922 0-1.905-1.295-2.715-2.936-1.794a6.511 6.511 0 0 0-2.126 2.195 6.493 6.493 0 0 0-.893 2.923Z"/><path fill="url(#v)" d="M80.718 19.77c0 .257-.263 2.598-.263 2.598a6.454 6.454 0 0 1-1.551 3.497l-2.992 3.414v-1.42c0-2.015-1.212-3.366-2.479-3.83l3.144-3.698 1.51-3.22.706-.616 1.129-1.302.526 1.731a6.16 6.16 0 0 1 .27 1.85v1.003-.007Z"/><path fill="url(#w)" d="M0 41.564v.492l.145 1.655c0 .194.27 2.078.27 2.112v.063c.118.505.804 1.904.915 2.216v.048l2.957 2.563 6.627 3.884c.471.277.963.513 1.475.7l5.042 1.89 4.882.998 4.467-.333v-1.675a11.667 11.667 0 0 1 1.904-5.984 12.644 12.644 0 0 1 1.683-2.147 9.763 9.763 0 0 1 2.036-1.613c.9-.589 1.98-.845 3.054-.727 1.565.249 2.61 1.662 2.61 3.96v2.002l26.58-15.304v-1.995c0-2.541 1.253-5.485 3.116-7.61a9.826 9.826 0 0 1 2.514-2.148 5.473 5.473 0 0 1 1.953-.734 3.276 3.276 0 0 1 1.613.132c.824-1.115 2.382-3.22 2.757-3.698a21.55 21.55 0 0 0 1.495-3.22l.707-.603 1.128-1.302s-.034-.45-.076-.92a6.94 6.94 0 0 1 0-.929v-.851l-.367-.707-.277-.277-.2-.2-1.766-1.794-3.9-2.874-7.09-4.107L61.308.443 61.19.394 60.048.096l-.36-.09h-1.184l-5.72 2.521-5.949.499-.388.138a54.454 54.454 0 0 0-5.062 2.092c-2.237 1.108-5.651 3.012-8.213 4.584-2.563 1.572-5.748 3.816-6.628 4.48-.173.132-.616.492-1.253 1.019-2.57 2.146-8.276 7.098-11.856 11.087-.589.464-1.357.97-1.835 1.343-2.549 1.974-3.726 3.075-4.682 3.92-.948.852-2.541 2.202-2.95 2.555l-.097.084-1.108 1.121-1.177 2.154-.873 2.057-.318-.395v.063c-.028.062-.063.145-.111.256-.049.11.222.242.2.297-.04.153-.332.167-.366.354v.173c-.035.401-.056.803-.049 1.205L0 41.578v-.014Z"/><path fill="url(#x)" d="M25.295 15.347c2.88 2.098 16.974 12.25 18.026 10.74 1.17-1.662 6.704-6.218 9.668-7.742 2.964-1.517 8.324-4.03 11.606-4.439l-3.552-5.409-12.355-4.48-2.237-.873a54.454 54.454 0 0 0-5.062 2.092c-2.237 1.108-5.651 3.012-8.213 4.584-2.563 1.572-5.748 3.816-6.628 4.48-.18.153-.63.513-1.26 1.04l.007.007Z"/><path fill="url(#y)" d="M52.77 2.528c-.298 1.613 15.52 11.489 16.98 11.53 1.877.056 4.17 0 4.481-.034 1.94-.347 2.597-.492 5.229-2.265l-.277-.277-.201-.2-1.752-1.78-3.899-2.874L66.24 2.52 61.295.436l-.118-.048L60.035.09l-.36-.09H58.49l-5.72 2.52v.008Z"/><path fill="url(#z)" d="M28.73 50.22a11.645 11.645 0 0 0-1.905 5.984v1.676l-4.467.332-4.882-1.01-3.947-1.462a23.338 23.338 0 0 1-3.546-1.676l-5.644-3.303-2.95-2.576a13.148 13.148 0 0 1-.97-2.3v-.062c0-.028-.394-3.282-.415-3.76v-.492c0-.228.028-.824.048-1.205v-.18c.028-.222.083-.443.167-.651l.131-.319.423-.048-.111.443.138.887.25 1.253.145.194.215-.028.99-.436.228-.616-.048-.284-.298-.776.423-.076.63.18 2.313 3.975 7.618 4.626 3.15-1.004.797.665.035.249-1.012.242-.2.72.9 1.877 1.378.485 3.456-.104 1.904-.602.63-.423.963-.962 1.974.318 1.495.243h-.013l.007.007Z"/><path fill="url(#A)" d="m29.116 48.718 1.295-.65a13.212 13.212 0 0 0-1.683 2.146 11.647 11.647 0 0 0-1.904 5.984v1.676l-4.467.332-4.591-.949a5.27 5.27 0 0 1-.568-.16L12.69 55.43a11.825 11.825 0 0 1-1.94-.921l-4.702-2.75a21.321 21.321 0 0 1-3.206-2.299L1.388 48.2l-.028-.048c-.11-.319-.796-1.71-.914-2.217v-.062c0-.028-.416-3.76-.416-3.76v-.492c0-.221 0-.755.049-1.205a29.564 29.564 0 0 0 1.018 3.76c.36.72 3.303 3.172 3.303 3.172l7.175 4.024c1.64.505 3.324.886 5.027 1.129 1.745.131 4.896.657 6.295.27.914-.25 2.84-1.655 4.356-2.743a18.828 18.828 0 0 1 1.877-1.253l-.014-.049v-.007Z"/><path fill="url(#B)" d="M29.106 48.72c-.65.38-1.274.796-1.876 1.253-1.517 1.074-3.45 2.486-4.356 2.743-1.413.387-4.557-.153-6.295-.27a31.225 31.225 0 0 1-5.028-1.13l-7.175-4.023s-2.936-2.451-3.303-3.172a32.063 32.063 0 0 1-1.018-3.76c-.048.443-.048.983-.048 1.205v.492s.408 3.726.415 3.76v.063c0 .055.464.817.485.9v-.769l.166-.512.27-.222.222.104 2.687 2.396 7.05 3.947 4.356 1.766.824.665 2.32 2.417.962.914 2.604.755 4.467-.332v-1.662a11.731 11.731 0 0 1 1.904-5.984 12.63 12.63 0 0 1 1.683-2.147c-.54.257-.99.513-1.295.651l-.014-.034-.007-.014Z"/><path fill="url(#C)" d="m66.536 27.507 1.212-.755c-1.85 2.147-3.124 5.07-3.117 7.618v2.001L38.101 51.69v-2.002c0-2.292-.679-4.75-1.461-5.2a2.866 2.866 0 0 0 1.537-.54l15.88-9.336L66.535 27.5v.007Z"/><path fill="url(#D)" d="M78.08 17.106a22.01 22.01 0 0 1-1.509 3.22c-.374.485-1.932 2.59-2.756 3.698a3.276 3.276 0 0 0-1.614-.131l.118-.076c1.163-.783 4.106-4.08 4.106-4.08l1.656-2.624v-.014.007Z"/><path fill="url(#E)" d="M27.508 45.686h.748l4.57-3.691L34.8 38.11l-2.209.319-1.703-.485-4.467-1.85-3.67-1.793s-4.606-2.832-5.499-3.497c-.9-.665-2.258-1.718-2.258-1.718l-1.682-1.78-.139-.27-.132-.11c-3.026 2.334-5.159 3.857-6.15 4.737-1.128 1.01-3.04 2.624-3.04 2.638L3 35.949l-1.094 2.154.415 1.731.693 2.383.658 1.267L5.555 44.8l5.693 3.13 3.539.997-.61.478 3.089-.977s5.713-.713 6.357-.997l3.885-1.752-.014.014.014-.007Z"/><path fill="url(#F)" d="m19.76 57.472-.99-.887-2.32-2.417-.824-.678-.221-.09a69.631 69.631 0 0 1-8.006-3.844l-.027-.014a33.478 33.478 0 0 1-5.825-4.155l-.221-.104-.25.215-.166.513c0 .519.083 1.031.25 1.523l.221.644.077.062c2.09 2.14 3.261 2.833 5.443 4.107l3.11 1.71A22.062 22.062 0 0 0 13.48 55.7l3.954 1.309 2.327.464Z"/><path fill="#1D3092" d="M13.32 27.3s2.95-3.366 7.25-7.375c4.204-3.92 5.062-4.495 5.194-4.46.131.034 5 2.687 7.265 3.996 2.264 1.308 9.494 5.373 10.276 6.15v.49s-2.437 3.616-4.75 7.362c-2.306 3.747-2.77 4.176-2.874 4.218a5.79 5.79 0 0 1-1.357.56 7.759 7.759 0 0 1-1.739.18l-1.69-.498-4.466-1.849-3.67-1.793-5.5-3.498-2.257-1.717-1.69-1.773.007.007ZM64.573 13.934l6.496.152c.215 0 .416-.069.582-.2a.898.898 0 0 0 .311-.534.905.905 0 0 0-.083-.54l-.284-.54a.873.873 0 0 0-.235-.29l-3.338-2.64-.097-.062L62.6 6.11c-.825-.485-1.683-.9-2.577-1.24l-4.106-1.551h-.063a13.499 13.499 0 0 0-4.01-.499c-2 .11-4.702.443-4.702.443l-.373.201 4.224 1.988c.492.228.97.477 1.433.754l6.233 3.622 4.467 2.902a9.055 9.055 0 0 1 1.461 1.212v-.014l-.014.007Z"/><path fill="url(#G)" d="m79.909 15.166-1.13 1.33-.706.588c.049-.083.804-1.433 1.76-2.86.027.471.076.921.076.921v.021Z"/><path fill="url(#H)" d="M14.393 26.926s2.182 1.752 6.088 4.266a75.752 75.752 0 0 0 7.68 4.294s5.027 2.23 5.256 2.23c.228 0 1.579-.167 1.579-.167s3.67-5.97 4.834-7.583c1.163-1.613 2.742-3.996 2.742-3.996l-.409-.436s-4.397-2.458-6.585-3.76c-2.189-1.302-6.524-3.892-6.642-3.94-.11-.05-3.102-1.822-3.102-1.822h-.616s-5.063 4.584-10.471 10.208c-.409.491-.409.575-.409.575l.055.166v-.035Z"/><path fill="#3648A8" d="M71.513 12.729s0 .54-.152.665c-.153.131-4.945-.347-6.552-.111-2.119-1.565-3.074-2.12-3.074-2.12l-3.601-2.25-5.95-3.421-4.729-2.189c.29.063.589.063.88 0 .948-.207 1.904-.36 2.873-.443a17.68 17.68 0 0 1 4.433.443c.88.215 5.09 1.898 5.373 2.05.277.153 6.018 3.484 6.42 3.76.402.278 3.885 3.193 3.885 3.193l.18.443.014-.02Z"/><path fill="#146DC1" d="M52.602 31.751s-1.876.99-1.973 1.22c-.097.228-.055.394-.229.56a2.762 2.762 0 0 1-.72.346 2.643 2.643 0 0 1-.166-.727c.083-.187.208-.36.36-.498a24.47 24.47 0 0 1 2.34-1.254c.395-.104.395.346.395.346v.014l-.007-.007ZM66.566 23.685s-1.877.99-1.974 1.219c-.097.229-.056.395-.229.56a2.766 2.766 0 0 1-.72.347 2.641 2.641 0 0 1-.166-.727c.083-.187.208-.36.36-.499.755-.457 1.537-.88 2.334-1.253.394-.104.395.346.395.346v.014-.007Z"/><path fill="#1D3092" d="m66.307 20.63.804-.54c.297-.193.547-.456.72-.775.166-.312.256-.658.256-1.011V17.12c0-.257-1.78-.54-1.78-.54l-4.12-.603 3.282 4.072.845.575-.007.007Z"/><path fill="#1D3092" d="m37.093 38.572 29.232-17.936-.845-.575-3.283-4.065-1.87.388c-.858.18-1.703.436-2.506.776l-1.392.581c-.825.347-1.62.741-2.39 1.192l-2.243 1.315-1.835 1.17a28.16 28.16 0 0 0-3.207 2.369 19.406 19.406 0 0 0-3.075 3.317l-1.752 2.41a35.734 35.734 0 0 0-2.216 3.428l-2.424 4.245-.187 1.378-.007.007Z"/><path fill="#3648A8" d="m39.73 36.323 25.008-15.139-3.54-4.605-.83.166c-.935.187-1.85.471-2.722.845l-1.122.485c-.97.416-1.904.907-2.797 1.475l-3.345 2.112a29.014 29.014 0 0 0-3.262 2.396l-.118.097a19.187 19.187 0 0 0-3.06 3.297l-1.469 2.008a31.596 31.596 0 0 0-2.583 4.183l-.132.25-.228 1.613.187.817h.014Z"/><path fill="#1D3092" d="m50.858 21.113.575 8.456 2.687-1.752-1.35-7.985-1.912 1.281Z"/><path fill="#3648A8" d="m65.518 20.624 1.31-.734c.581-.575.92-1.212.54-2.078l-.485-.54-4.509-.9 3.144 4.245v.007Z"/><path fill="url(#I)" d="m4.362 47.298 7.174 4.024s4.245 1.551 5.99 1.683c1.78.173 3.58.076 5.333-.284.914-.25 2.84-1.655 4.356-2.742l-1.974-.32-.962.964-.63.422-1.905.602-3.456.104-1.64-.415-.617-.201v-1.738l.457-.554-1.448-.423c-4.439-1.8-9.778-4.231-11.793-6.904l-.575-.61-.228.617-.99.436-.215.028.152-.243-.2-1.163-.132-.873-.035-1.35-.637.887-.132.318c-.083.208-.138.43-.166.651v.18c.055.568.152 1.136.277 1.69.18.713.43 1.399.741 2.063.36.72 3.303 3.172 3.303 3.172l-.034-.014-.014-.007Z"/><path fill="url(#J)" d="M.426 45.88c.235.783.554 1.545.935 2.265v-.048c-.111-.312-.804-1.71-.935-2.216Z"/><path fill="url(#K)" d="m15.66 51.24.034-.775v-.388l.028-.824-.035-.056c-.422-.72-.54-.768-.637-.782-.104-.014-1.579-.623-2.507-.99l-.131-.063-5.658-3.268-1.718-1.101-.11-.084-1.67-1.405h-.533l-.145.228-.36.54-.423.638a.993.993 0 0 0-.166.54c0 .173.048.339.132.491l.2.374a.91.91 0 0 0 .187.243l1.912 1.807c.041.035.076.07.124.104l1.642 1.115.062.035 5.568 3.22c.07.041.145.076.228.097l1.143.325h.083l1.71.326c.243.048.5 0 .707-.132l.346-.208-.014-.007Z"/><path fill="url(#L)" d="m16.437 47.548 2.334-1.15s5.679-2.88 7.777-4.043c2.098-1.164 9.141-4.675 9.141-4.675l1.4.893-8.817 7.113-1.246.768-3.664 2.223-3.718 1.157-2.355-1.392-.035-.25-.782-.637h-.014l-.02-.007Z"/><path fill="url(#M)" d="M64.632 34.363v2.002l.388-.222v-1.78c0-.443.035-.886.104-1.322 0-.09.028-.18.048-.27.035-.18.084-.382.132-.562 0-.083.048-.152.062-.242 0-.034.014-.062.028-.09 0-.076.048-.152.062-.229.056-.18.118-.36.18-.54.063-.18.084-.214.132-.325l.138-.326c.049-.11.09-.214.153-.325l.152-.326.277-.491c.056-.104.118-.201.18-.305l.277-.45a.74.74 0 0 1 .104-.152l.18-.27s.02-.035.035-.049l.194-.256c.062-.09.138-.18.2-.256.25-.312.513-.61.797-.894.083-.083.152-.152.242-.228a9.704 9.704 0 0 1 .755-.65c.256-.195.52-.375.797-.541 1.613-.935 3.067-.935 4.037-.167l.221.194.056.056.083.09s.042.055.062.076c.132.166.25.346.347.54.034.076.076.152.11.229.25.63.374 1.308.36 1.987v1.316l.388-.222v-1.537c0-3.58-2.541-5.035-5.657-3.22-3.117 1.807-5.63 6.163-5.624 9.75v.007Z"/><path fill="url(#N)" d="M27.757 52.05c.035-.111.153.678.201.574l.139-.325c.048-.111.09-.215.152-.326l.152-.325c.084-.153.167-.319.25-.464.083-.146.117-.201.18-.305l.277-.45c.034-.049.062-.104.104-.152l.18-.27s.02-.035.034-.049l.194-.256c.063-.09.139-.18.201-.256.256-.319.533-.63.824-.921.083-.084.153-.153.243-.229.048-.042.097-.083.145-.132.2-.187.415-.367.637-.54.256-.194.52-.374.797-.54 1.613-.935 3.067-.935 4.037-.166l.222.194.055.055.083.09s.042.056.062.076c.132.167.25.347.347.54.034.077.076.153.11.23.25.63.374 1.308.36 1.987v1.295l.388-.153.741-.47-.61-1.704c0-4.051-2.264-6.58-5.788-4.543-2.217 1.281-4.17 3.968-5.305 6.786 0 .381.2.63.63.741l-.035-.013-.007.02Z"/><path fill="url(#O)" d="M26.814 56.205v1.676l.388-.222v-1.447c0-.443.034-.886.104-1.323 0-.09.027-.18.048-.27.035-.18.083-.38.132-.56 0-.084.048-.153.062-.243 0-.028.014-.062.028-.09 0-.076.048-.152.062-.229.055-.18.118-.36.18-.54.063-.18.083-.215.132-.325l.138-.326c.049-.11.09-.214.153-.325l.152-.326c.083-.152.166-.318.25-.464.082-.145.117-.2.18-.304l.276-.45c.035-.049.063-.104.104-.153l.18-.27s.021-.035.035-.049l.194-.256c.062-.09.138-.18.2-.256.257-.319.534-.63.825-.921.083-.083.152-.152.242-.228a.889.889 0 0 0 .118-.111c.2-.187.415-.367.637-.54.256-.194.52-.374.796-.54 1.614-.936 3.068-.936 4.038-.167l.221.194.056.056.083.09s.041.055.062.076c.132.166.25.346.346.54.035.076.077.152.111.228.25.63.374 1.31.36 1.988v1.766l.388-.222v-1.994c0-3.58-2.541-5.035-5.658-3.22-3.116 1.807-5.63 6.163-5.623 9.75v.007Z"/><path fill="#3648A8" d="M38.812 37.264a2.004 2.004 0 0 1-.686-.228c-.2-.173-.055-.769.29-.99.347-.222 1.303.263 1.462.18.16-.084 1.136.325 1.136.325l-.319.693a7.38 7.38 0 0 1-1.883.027v-.007Z"/><path fill="url(#P)" d="M40.756 34.745c-.9-.229-1.85.229-1.96 1.247-.146 1.218.415 1.288.761 1.44a7.89 7.89 0 0 0 3.13.713c1.559 0 1.753-.817 1.753-1.378v-.145c-.028-.658-.326-1.032-.859-1.191-1.15-.347-2.79-.693-2.79-.693h-.028l-.007.007Z"/><path fill="url(#Q)" d="M2.574 41.075a.555.555 0 0 0 .035-.367 7.221 7.221 0 0 1 0-3.22c.27-.943 1.225-3.166 1.225-3.166s-2.61 2.403-3.012 4.322c-.464 2.237.36 3.926.741 4.016.187.021.776-1.135 1.018-1.592l-.007.007Z"/><path fill="url(#R)" d="M16.063 49.212a.94.94 0 0 1 .914-.769c.11 0 .208.007.284 0 1.752.097 3.573-.173 5.207-.526 2.085-.443 4.55-1.468 4.744-1.35.831.221-.47 2.825-3.822 4.57-3.318 1.524-7.14.492-7.334 0-.139-.346-.104-1.309.014-1.932l-.007.007Z"/><path fill="url(#S)" d="M79.845 12.674a17.235 17.235 0 0 1-3.407 2.687.634.634 0 0 0-.194.236.63.63 0 0 0-.07.297c0 .104.021.208.07.298a.71.71 0 0 0 .194.236 2.447 2.447 0 0 0 1.662.699c.395-.028 1.392-.256 1.828-1.932.443-1.676-.083-2.528-.083-2.528v.007Z"/><defs><linearGradient id="a" x1="33.178" x2="30.443" y1="55.476" y2="50.76" gradientUnits="userSpaceOnUse"><stop stop-color="#2A2A2A"/><stop offset=".02" stop-color="#282828"/><stop offset=".23" stop-color="#202020"/><stop offset=".58" stop-color="#1E1E1E"/><stop offset=".64" stop-color="#1C1C1C"/><stop offset="1" stop-color="#1A1A1A"/></linearGradient><linearGradient id="b" x1="30.146" x2="33.837" y1="56.912" y2="50.506" gradientUnits="userSpaceOnUse"><stop offset=".23" stop-color="#383838"/><stop offset=".73" stop-color="#292929"/><stop offset="1" stop-color="#262626"/></linearGradient><linearGradient id="c" x1="33.612" x2="29.485" y1="57.004" y2="49.878" gradientUnits="userSpaceOnUse"><stop stop-color="#121212"/><stop offset=".43" stop-color="#0D0D0D"/></linearGradient><linearGradient id="d" x1="31.934" x2="35.633" y1="57.922" y2="51.53" gradientUnits="userSpaceOnUse"><stop offset=".23" stop-color="#383838"/><stop offset=".73" stop-color="#292929"/><stop offset="1" stop-color="#262626"/></linearGradient><linearGradient id="e" x1="34.812" x2="31.343" y1="57.326" y2="51.329" gradientUnits="userSpaceOnUse"><stop stop-color="#2A2A2A"/><stop offset=".02" stop-color="#282828"/><stop offset=".23" stop-color="#202020"/><stop offset=".58" stop-color="#1E1E1E"/><stop offset=".64" stop-color="#1C1C1C"/><stop offset="1" stop-color="#1A1A1A"/></linearGradient><linearGradient id="f" x1="34.541" x2="31.272" y1="57.064" y2="51.413" gradientUnits="userSpaceOnUse"><stop offset=".18" stop-color="#1A1A1A"/><stop offset=".65" stop-color="#1D1D1D"/><stop offset=".66" stop-color="#1E1E1E"/></linearGradient><linearGradient id="g" x1="35.012" x2="31.314" y1="57.583" y2="51.177" gradientUnits="userSpaceOnUse"><stop offset=".34" stop-color="#1F1F1F"/><stop offset=".4" stop-color="#1D1D1D"/><stop offset=".82" stop-color="#1A1A1A"/></linearGradient><linearGradient id="h" x1="27.74" x2="30.821" y1="61.496" y2="48.346" gradientUnits="userSpaceOnUse"><stop stop-color="#1D3092"/><stop offset=".43" stop-color="#293B9C"/><stop offset="1" stop-color="#3648A8"/></linearGradient><linearGradient id="i" x1="35.161" x2="31.152" y1="57.839" y2="50.92" gradientUnits="userSpaceOnUse"><stop stop-color="#161616"/><stop offset=".3" stop-color="#1A1A1A"/><stop offset=".79" stop-color="#1D1D1D"/><stop offset=".8" stop-color="#1E1E1E"/></linearGradient><linearGradient id="j" x1="34.476" x2="34.49" y1="54.239" y2="54.211" gradientUnits="userSpaceOnUse"><stop stop-color="#B1B1B3"/><stop offset=".19" stop-color="#BCBCBC"/><stop offset=".21" stop-color="#B6B6B7"/><stop offset=".28" stop-color="#A8A8AC"/><stop offset=".37" stop-color="#A0A0A5"/><stop offset=".53" stop-color="#9E9EA4"/><stop offset=".87" stop-color="#8F9098"/><stop offset=".88" stop-color="#82838D"/></linearGradient><linearGradient id="k" x1="32.901" x2="32.901" y1="49.765" y2="57.777" gradientUnits="userSpaceOnUse"><stop stop-color="#77B4DC"/><stop offset="1" stop-color="#A5CEE9"/></linearGradient><linearGradient id="l" x1="70.997" x2="68.261" y1="33.636" y2="28.913" gradientUnits="userSpaceOnUse"><stop stop-color="#2A2A2A"/><stop offset=".02" stop-color="#282828"/><stop offset=".23" stop-color="#202020"/><stop offset=".58" stop-color="#1E1E1E"/><stop offset=".64" stop-color="#1C1C1C"/><stop offset="1" stop-color="#1A1A1A"/></linearGradient><linearGradient id="m" x1="67.959" x2="71.657" y1="35.049" y2="28.664" gradientUnits="userSpaceOnUse"><stop offset=".23" stop-color="#383838"/><stop offset=".73" stop-color="#292929"/><stop offset="1" stop-color="#262626"/></linearGradient><linearGradient id="n" x1="71.413" x2="67.285" y1="35.166" y2="28.033" gradientUnits="userSpaceOnUse"><stop stop-color="#121212"/><stop offset=".43" stop-color="#0D0D0D"/></linearGradient><linearGradient id="o" x1="69.735" x2="73.433" y1="36.08" y2="29.681" gradientUnits="userSpaceOnUse"><stop offset=".23" stop-color="#383838"/><stop offset=".73" stop-color="#292929"/><stop offset="1" stop-color="#262626"/></linearGradient><linearGradient id="p" x1="72.619" x2="69.15" y1="35.491" y2="29.487" gradientUnits="userSpaceOnUse"><stop stop-color="#2A2A2A"/><stop offset=".02" stop-color="#282828"/><stop offset=".23" stop-color="#202020"/><stop offset=".58" stop-color="#1E1E1E"/><stop offset=".64" stop-color="#1C1C1C"/><stop offset="1" stop-color="#1A1A1A"/></linearGradient><linearGradient id="q" x1="72.355" x2="69.079" y1="35.222" y2="29.571" gradientUnits="userSpaceOnUse"><stop offset=".18" stop-color="#1A1A1A"/><stop offset=".65" stop-color="#1D1D1D"/><stop offset=".66" stop-color="#1E1E1E"/></linearGradient><linearGradient id="r" x1="72.819" x2="69.128" y1="35.734" y2="29.342" gradientUnits="userSpaceOnUse"><stop offset=".34" stop-color="#1F1F1F"/><stop offset=".4" stop-color="#1D1D1D"/><stop offset=".82" stop-color="#1A1A1A"/></linearGradient><linearGradient id="s" x1="63.813" x2="70.066" y1="41.531" y2="23.942" gradientUnits="userSpaceOnUse"><stop stop-color="#1D3092"/><stop offset="1" stop-color="#3648A8"/></linearGradient><linearGradient id="t" x1="70.769" x2="70.743" y1="37.516" y2="37.567" gradientUnits="userSpaceOnUse"><stop stop-color="#141414"/><stop offset=".44" stop-color="#1E1E1E"/><stop offset=".78" stop-color="#202020"/><stop offset=".98" stop-color="#282828"/><stop offset="1" stop-color="#2A2A2A"/></linearGradient><linearGradient id="u" x1="70.735" x2="70.735" y1="28.117" y2="36.053" gradientUnits="userSpaceOnUse"><stop stop-color="#77B4DC"/><stop offset="1" stop-color="#A5CEE9"/></linearGradient><linearGradient id="v" x1="-.922" x2="74.894" y1="27.762" y2="22.444" gradientUnits="userSpaceOnUse"><stop stop-color="#2081CA"/><stop offset="1" stop-color="#146DC1"/></linearGradient><linearGradient id="w" x1="24.508" x2="77.382" y1="37.271" y2="6.523" gradientUnits="userSpaceOnUse"><stop stop-color="#288FD0"/><stop offset="1" stop-color="#1F7FCA"/></linearGradient><linearGradient id="x" x1="31.59" x2="61.34" y1="21.905" y2="4.612" gradientUnits="userSpaceOnUse"><stop stop-color="#7AB9E1"/><stop offset="1" stop-color="#489FD7"/></linearGradient><linearGradient id="y" x1="71.988" x2="42.486" y1="4.834" y2="17.292" gradientUnits="userSpaceOnUse"><stop stop-color="#489FD7"/><stop offset="1" stop-color="#83BEE3"/></linearGradient><linearGradient id="z" x1=".599" x2="76.416" y1="49.459" y2="44.14" gradientUnits="userSpaceOnUse"><stop stop-color="#2081CA"/><stop offset="1" stop-color="#146DC1"/></linearGradient><linearGradient id="A" x1=".647" x2="76.464" y1="50.048" y2="44.73" gradientUnits="userSpaceOnUse"><stop stop-color="#2081CA"/><stop offset="1" stop-color="#146DC1"/></linearGradient><linearGradient id="B" x1=".637" x2="76.454" y1="50.043" y2="44.717" gradientUnits="userSpaceOnUse"><stop stop-color="#2081CA"/><stop offset="1" stop-color="#146DC1"/></linearGradient><linearGradient id="C" x1=".137" x2="75.954" y1="42.922" y2="37.597" gradientUnits="userSpaceOnUse"><stop stop-color="#2081CA"/><stop offset="1" stop-color="#146DC1"/></linearGradient><linearGradient id="D" x1="-1.053" x2="74.763" y1="25.97" y2="20.652" gradientUnits="userSpaceOnUse"><stop stop-color="#2081CA"/><stop offset="1" stop-color="#146DC1"/></linearGradient><linearGradient id="E" x1="25.036" x2="7.197" y1="32.75" y2="46.884" gradientUnits="userSpaceOnUse"><stop stop-color="#4FA3D8"/><stop offset="1" stop-color="#83BEE3"/></linearGradient><linearGradient id="F" x1="19.761" x2=".917" y1="51.378" y2="51.378" gradientUnits="userSpaceOnUse"><stop offset=".21" stop-color="#0354AE"/><stop offset="1" stop-color="#1160B7"/></linearGradient><linearGradient id="G" x1="-1.38" x2="74.438" y1="21.302" y2="15.983" gradientUnits="userSpaceOnUse"><stop stop-color="#2081CA"/><stop offset="1" stop-color="#146DC1"/></linearGradient><linearGradient id="H" x1="10.979" x2="38.673" y1="42.826" y2="19.606" gradientUnits="userSpaceOnUse"><stop stop-color="#3648A8"/><stop offset="1" stop-color="#5664AD"/></linearGradient><linearGradient id="I" x1="27.215" x2=".075" y1="45.719" y2="45.719" gradientUnits="userSpaceOnUse"><stop stop-color="#288FD0"/><stop offset="1" stop-color="#1E7DC9"/></linearGradient><linearGradient id="J" x1="1.361" x2=".426" y1="47.016" y2="47.016" gradientUnits="userSpaceOnUse"><stop stop-color="#2081CA"/><stop offset="1" stop-color="#146DC1"/></linearGradient><linearGradient id="K" x1="15.722" x2="1.622" y1="46.552" y2="46.552" gradientUnits="userSpaceOnUse"><stop offset=".21" stop-color="#0354AE"/><stop offset="1" stop-color="#1160B7"/></linearGradient><linearGradient id="L" x1="30.35" x2="13.653" y1="40.277" y2="53.504" gradientUnits="userSpaceOnUse"><stop stop-color="#4EA2D8"/><stop offset="1" stop-color="#83BEE3"/></linearGradient><linearGradient id="M" x1="-.416" x2="75.401" y1="34.945" y2="29.626" gradientUnits="userSpaceOnUse"><stop stop-color="#2081CA"/><stop offset="1" stop-color="#146DC1"/></linearGradient><linearGradient id="N" x1=".666" x2="76.483" y1="50.373" y2="45.055" gradientUnits="userSpaceOnUse"><stop stop-color="#2081CA"/><stop offset="1" stop-color="#146DC1"/></linearGradient><linearGradient id="O" x1=".907" x2="76.724" y1="53.878" y2="48.56" gradientUnits="userSpaceOnUse"><stop stop-color="#2081CA"/><stop offset="1" stop-color="#146DC1"/></linearGradient><linearGradient id="P" x1="40.479" x2="42.051" y1="38.381" y2="35.721" gradientUnits="userSpaceOnUse"><stop stop-color="#3648A8"/><stop offset=".86" stop-color="#2D3F9C"/><stop offset="1" stop-color="#2C3E9A"/></linearGradient><linearGradient id="Q" x1="2.456" x2="2.186" y1="42.397" y2="35.417" gradientUnits="userSpaceOnUse"><stop stop-color="#FCF7D7"/><stop offset=".74" stop-color="#FFE5AB"/></linearGradient><linearGradient id="R" x1="27.455" x2="15.959" y1="49.247" y2="49.247" gradientUnits="userSpaceOnUse"><stop stop-color="#FFE5AB"/><stop offset="1" stop-color="#FCFAD5"/></linearGradient><linearGradient id="S" x1="80.074" x2="77.297" y1="12.085" y2="16.919" gradientUnits="userSpaceOnUse"><stop stop-color="#FFE5AB"/><stop offset="1" stop-color="#FFD377"/></linearGradient></defs></svg>