<svg xmlns="http://www.w3.org/2000/svg" width="51" height="60" fill="none"><mask id="a" width="48" height="42" x="1" y="0" maskUnits="userSpaceOnUse" style="mask-type:luminance"><path fill="#fff" d="M48.235 0H1.215v41.332h47.02V0Z"/></mask><g mask="url(#a)"><path fill="url(#b)" d="M30.229 6.163s-3.074-.509-3.49-.572c-.414-.063-1.217-.902-.992-1.804 1.546-.773 1.071-2.364.903-2.662-.44-.755-3.396-2.35-4.641.601a1.777 1.777 0 0 0 .986 1.955c.127.83-.827 2.172-1.01 2.184a17.676 17.676 0 0 0-8.097 2.653C8.266 12.034 2.973 18.082 1.978 40.58c0 0 3.175-7.688 20.927-7.588 17.752.099 20.886 2.123 25.331 7.96 0 0-1.47-16.352-3.793-21.417-2.749-5.994-4.935-11.105-14.211-13.37l-.003-.002Z"/></g><path fill="url(#c)" d="M0 45.958c-.033 3.519 2.346 7.065 7.15 9.8 9.664 5.5 25.547 5.675 35.403.39 4.96-2.659 7.463-6.205 7.496-9.772l.066-2.776v-.644.139a.305.305 0 0 1 0 .075c0 .084 0 .168-.027.252-.027.085-.024.196-.036.301a8.12 8.12 0 0 1-.096.515v.02a7.98 7.98 0 0 1-.166.626c-.018.06-.036.114-.057.178-.021.063-.051.153-.078.228a6.627 6.627 0 0 1-.178.445.027.027 0 0 1 0 .018c-.036.09-.078.18-.123.271-.045.09-.09.19-.135.286a9.338 9.338 0 0 1-.479.836c-.153.24-.3.481-.493.716-.09.12-.18.237-.277.355-.096.117-.19.234-.3.346-.112.11-.139.16-.214.237-.075.079-.135.154-.208.226-.3.3-.601.601-.947.902-.126.108-.256.22-.385.325-.132.111-.268.22-.409.325l-.4.3a9.725 9.725 0 0 1-.49.343c-.166.109-.301.196-.445.301-.145.105-.262.166-.394.244-.358.22-.728.433-1.116.64-9.862 5.288-25.74 5.114-35.404-.39-4.812-2.734-7.176-6.278-7.15-9.8l-.09 3.757L0 45.958Z"/><path fill="url(#d)" d="M.092 42.204c-.03 3.52 2.346 7.065 7.15 9.8 9.663 5.5 25.54 5.675 35.403.39.388-.204.758-.42 1.116-.64l.394-.244c.153-.1.3-.195.445-.3.144-.106.33-.23.49-.343.16-.115.268-.196.4-.301.133-.105.274-.21.41-.325.129-.108.261-.214.384-.325.34-.3.656-.601.948-.902.072-.072.141-.148.207-.226.066-.078.145-.16.214-.237.07-.079.198-.232.3-.346.103-.115.19-.238.277-.355a11.222 11.222 0 0 0 .972-1.552c.045-.096.093-.19.135-.286.042-.096.087-.18.123-.27v-.016c.03-.066.058-.135.082-.201s.063-.163.093-.244c.03-.081.054-.153.078-.228.024-.076.04-.115.057-.178.063-.207.115-.418.166-.626v-.02c.039-.172.069-.34.096-.512.018-.1.03-.2.036-.3 0-.082.021-.169.027-.253v-.331a8.386 8.386 0 0 0-1.236-4.623 12.274 12.274 0 0 0-1.856-2.376 18.743 18.743 0 0 0-4.045-3.023c-9.664-5.5-25.545-5.675-35.404-.39C2.627 35.09.122 38.633.092 42.203Z"/><path fill="url(#e)" d="m26.137 48.912 22.59-1.784c.544-.899.955-1.871 1.222-2.887v-.022a9.95 9.95 0 0 0 .162-.625v-.758a8.385 8.385 0 0 0-1.236-4.623 12.27 12.27 0 0 0-1.856-2.376l-13.008.785-7.378 11.43-.518.863.022-.003Z"/><path fill="url(#f)" d="M7.674 38.646 26.13 48.911l-.024-8.812-9.324-13.896-9.108 4.512v7.931Z"/><path fill="url(#g)" d="m26.108 40.099.027 8.806L41.598 40.4l-.027-8.804-15.463 8.503Z"/><path fill="url(#h)" d="m22.9 44.845-3.36-1.93v-2.726l3.36 1.934v2.722Z"/><path fill="url(#i)" d="m12.762 39.269-3.363-1.931v-2.725l3.363 1.934v2.722Z"/><path fill="url(#j)" d="M17.407 37.377v6.734l-2.815-1.558v-6.722l2.815 1.546Z"/><path fill="url(#k)" d="m37.009 40.117 2.259-1.248v-2.722l-2.259 1.245v2.725Z"/><path fill="url(#l)" d="m32.895 42.388 2.258-1.248v-2.722l-2.258 1.245v2.725Z"/><path fill="url(#m)" d="m28.77 44.662 2.262-1.248V40.7l-2.261 1.249v2.713Z"/><path fill="url(#n)" d="m16.035 29.07 18.013-9.986-11.063 1.898L4.972 30.97l11.063-1.901Z"/><path fill="url(#o)" d="m26.86 43.362 18.014-9.988.204-.226-18.016 9.989-.202.225Z"/><path fill="url(#p)" d="m27.05 43.137 18.016-9.989-11.017-14.064-18.017 9.986L27.05 43.137Z"/><path fill="url(#q)" d="m16.035 29.07-11.063 1.9.199.446 10.86-1.865L26.86 43.359l.202-.225L16.035 29.07Z"/><path fill="url(#r)" d="m30.394 23.033 1.652.93 1.648-.93-1.648-.93-1.652.93Z"/><path fill="url(#s)" d="m30.392 25.13 1.651 2.105v-3.273l-1.651-.929v2.096Z"/><path fill="url(#t)" d="m32.046 27.229 1.648-.932V23.03l-1.648.93v3.269Z"/><path fill="url(#u)" d="m32.049 22.492.953.538-.953.526-.957-.538.957-.526Z"/><path fill="url(#v)" d="M16.099 32.58a2.13 2.13 0 0 1 .968 1.702c0 .622-.442.875-.99.556a2.144 2.144 0 0 1-.959-1.7c0-.63.443-.874.984-.559h-.003Z"/><path fill="url(#w)" d="m17.137 40.547-.44-.27v.219l.44.283v-.232Z"/><path fill="url(#x)" d="M16.746 19.12c-1.825 4.743-1.804 24.5-2.725 31.124-4.737-1.257-8.454-4.16-9.657-6.28 0 0 .517-18.777 4.21-26.733 2.082-4.481 7.598-9.354 12.503-10.046.04.554 1.36 1.805 4.374 1.402-3.718 1.67-7.31 6.918-8.705 10.527v.006Z" opacity=".8"/><path fill="url(#y)" d="M41.9 48.821c1.488-7.994-1.922-24.179-3.162-28.221-1.239-4.042-3.431-10.007-7.143-11.983 4.969 1.573 8.055 7.471 9.411 11.219 1.357 3.748 6.1 18.633 4.933 25.472-1.137 1.91-3.778 3.345-4.036 3.516l-.003-.003Z" opacity=".8"/><path fill="url(#z)" d="M26.628 5.51c.983.093 9.414.352 14.792 7.54 6.596 8.828 6.857 27.14 6.857 27.14l-.902.035s-.842-19.108-6.383-26.633c-5.227-7.098-13.104-7.315-13.588-7.384a1.95 1.95 0 0 0-.701-.629l-.072-.066-.003-.003Z"/><path fill="url(#A)" d="M8.538 12.99c4.427-5.922 10.975-7.035 13.576-7.317-.13.067-.253.147-.367.24-.104.114-.194.24-.267.376-2.184.268-8.407 1.251-12.687 7.104-6.202 8.48-6.692 26.853-6.692 26.853l-.42-.114s.26-18.31 6.857-27.139v-.003Z"/><path fill="url(#B)" d="M22.22 5.667a1.751 1.751 0 0 0-.286.11 1.321 1.321 0 0 0-.256.172.902.902 0 0 0-.192.24.84.84 0 0 0-.088.302.867.867 0 0 0 .037.3c.03.1.076.194.135.28a1.8 1.8 0 0 0 .445.448c.088.063.18.12.277.169.098.05.198.095.3.135.206.077.417.137.632.178.426.08.86.111 1.293.093a5.578 5.578 0 0 0 1.279-.199 3.918 3.918 0 0 0 .601-.228c.193-.092.374-.207.539-.343.166-.132.302-.299.4-.487a.775.775 0 0 0 .042-.602.797.797 0 0 0-.16-.265 1.22 1.22 0 0 0-.228-.204 2.106 2.106 0 0 0-.545-.268c.155.106.297.23.421.37a.821.821 0 0 1 .214.427.562.562 0 0 1-.111.403c-.1.13-.22.24-.358.325a2.447 2.447 0 0 1-.472.24 3.74 3.74 0 0 1-.527.16c-.371.083-.75.13-1.13.141h-.575a5.286 5.286 0 0 1-.566-.057c-.093 0-.186-.03-.273-.048a2.869 2.869 0 0 1-.518-.16 1.98 1.98 0 0 1-.237-.114 1.74 1.74 0 0 1-.397-.3 1.015 1.015 0 0 1-.136-.187.601.601 0 0 1 .03-.643c.05-.074.107-.142.172-.202.071-.063.146-.122.226-.174l.012-.012Z"/><path fill="url(#C)" d="M21.606 6.112a4.007 4.007 0 0 0 .927-.72c.084-.095.164-.195.237-.3a1.763 1.763 0 0 0 .304-.683c.045-.238.064-.481.057-.724a.103.103 0 0 0-.051-.088l-.226-.144a1.768 1.768 0 0 1-.658-.957 1.474 1.474 0 0 1 .138-1.088c.203-.349.504-.63.866-.806a2.674 2.674 0 0 1 1.252-.274c.43.006.853.119 1.23.328.178.1.34.224.484.37a1.542 1.542 0 0 1 .33.472c.159.344.181.735.064 1.095-.133.38-.388.705-.725.926l-.259.157a.117.117 0 0 0-.048.078 3.183 3.183 0 0 0 0 .355 1.34 1.34 0 0 0 .21.695c.068.108.148.21.238.3.188.173.39.331.602.472.204.145.418.286.635.412a7.116 7.116 0 0 1-.575-.469c-.093-.078-.18-.162-.27-.243a3.046 3.046 0 0 1-.253-.256 1.72 1.72 0 0 1-.199-.277 1.126 1.126 0 0 1-.111-.3 1.299 1.299 0 0 1-.03-.322c.003-.11.014-.218.033-.325l-.057.078.267-.141c.396-.239.704-.6.876-1.029a1.723 1.723 0 0 0-.036-1.284 2.17 2.17 0 0 0-.163-.301 2.088 2.088 0 0 0-.216-.27 2.406 2.406 0 0 0-.563-.443 2.983 2.983 0 0 0-1.437-.39 3.083 3.083 0 0 0-1.46.324c-.425.21-.775.547-1 .965a1.735 1.735 0 0 0-.13 1.285c.141.437.424.815.803 1.073l.232.136-.058-.09c.024.229.024.46 0 .688-.033.23-.11.45-.228.65-.124.21-.273.403-.442.578-.178.182-.371.35-.578.499l-.012-.012Z"/><path fill="url(#D)" d="M24.653.592c.503.058.968.298 1.305.677a1.41 1.41 0 0 1-.33 2.106c-.34.195-.473.336-.437.556.12.728.105 1.203 1.522 2.04.33.6-.541 1.6-2.59 1.404 0 0 .13-3.131.136-3.23.02-.256.174-.641.676-1.146.785-.788.024-1.613-.406-1.76-.902-.319-1.428.03-1.428.03s.337-.815 1.558-.67l-.006-.007Z"/><path fill="url(#E)" d="M2.233 37.858c-.093.481-.16.962-.207 1.453a.767.767 0 0 0 .081.553v.385a7.52 7.52 0 0 0 1.504 4.391c1.068 1.504 2.67 2.888 4.758 4.085a28.326 28.326 0 0 0 7.715 2.92c2.928.666 5.923.998 8.927.99 5.988 0 11.616-1.26 15.847-3.55 2.148-1.16 3.805-2.51 4.93-4.011a7.343 7.343 0 0 0 1.594-4.335c.01-.515-.014-1.03-.07-1.543.05-.22.05-.45 0-.67.073-.106.064.069.124-.042.11-.2.186-.419.223-.644 1.9 4.298-.208 9.002-6.316 12.277-9.192 4.93-23.999 4.768-33.01-.363-5.736-3.27-7.754-7.773-6.094-11.887l-.006-.009Z"/><defs><linearGradient id="b" x1="24.974" x2="26.262" y1="45.143" y2="2.725" gradientUnits="userSpaceOnUse"><stop offset=".11" stop-color="#fff" stop-opacity="0"/><stop offset=".3" stop-color="#EAF4FB" stop-opacity=".18"/><stop offset=".31" stop-color="#E9F3FA" stop-opacity=".19"/><stop offset=".4" stop-color="#D2E8F7" stop-opacity=".4"/><stop offset=".5" stop-color="#BFDDF3" stop-opacity=".58"/><stop offset=".59" stop-color="#AFD5F0" stop-opacity=".73"/><stop offset=".69" stop-color="#A2CFEE" stop-opacity=".85"/><stop offset=".79" stop-color="#9ACAED" stop-opacity=".93"/><stop offset=".89" stop-color="#94C7EC" stop-opacity=".98"/><stop offset="1" stop-color="#93C7EC"/></linearGradient><linearGradient id="c" x1="50.13" x2="0" y1="51.101" y2="51.101" gradientUnits="userSpaceOnUse"><stop stop-color="#D16B2B"/><stop offset=".11" stop-color="#C8632C"/><stop offset=".2" stop-color="#BD582E"/><stop offset=".7" stop-color="#E27427"/><stop offset="1" stop-color="#CE5D2B"/></linearGradient><linearGradient id="d" x1="34.515" x2="14.848" y1="26.272" y2="60.034" gradientUnits="userSpaceOnUse"><stop stop-color="#FF8450"/><stop offset=".87" stop-color="#FF9A57"/></linearGradient><linearGradient id="e" x1="64.888" x2="17.904" y1="39.142" y2="44.605" gradientUnits="userSpaceOnUse"><stop stop-color="#E36E28"/><stop offset=".22" stop-color="#DE6B28"/><stop offset=".47" stop-color="#D06428"/><stop offset=".73" stop-color="#B95729"/><stop offset="1" stop-color="#9A472B"/></linearGradient><linearGradient id="f" x1="26.13" x2="7.674" y1="37.563" y2="37.563" gradientUnits="userSpaceOnUse"><stop offset=".08" stop-color="#EEF8FF"/><stop offset="1" stop-color="#BCD7EA"/></linearGradient><linearGradient id="g" x1="41.601" x2="26.108" y1="40.261" y2="40.261" gradientUnits="userSpaceOnUse"><stop stop-color="#BDDBEF"/><stop offset="1" stop-color="#94C7E6"/></linearGradient><linearGradient id="h" x1="22.9" x2="19.538" y1="42.514" y2="42.514" gradientUnits="userSpaceOnUse"><stop stop-color="#4F5EA6"/><stop offset=".99" stop-color="#3B4C9D"/></linearGradient><linearGradient id="i" x1="12.762" x2="9.402" y1="36.941" y2="36.941" gradientUnits="userSpaceOnUse"><stop stop-color="#4F5EA6"/><stop offset=".99" stop-color="#3B4C9D"/></linearGradient><linearGradient id="j" x1="18.018" x2="11.461" y1="36.21" y2="48.448" gradientUnits="userSpaceOnUse"><stop offset=".2" stop-color="#338ECC"/><stop offset=".78" stop-color="#48A1D9"/></linearGradient><linearGradient id="k" x1="39.268" x2="37.009" y1="38.132" y2="38.132" gradientUnits="userSpaceOnUse"><stop stop-color="#4F5EA6"/><stop offset=".99" stop-color="#3B4C9D"/></linearGradient><linearGradient id="l" x1="35.156" x2="32.895" y1="40.406" y2="40.406" gradientUnits="userSpaceOnUse"><stop stop-color="#4F5EA6"/><stop offset=".99" stop-color="#3B4C9D"/></linearGradient><linearGradient id="m" x1="31.035" x2="28.771" y1="42.677" y2="42.677" gradientUnits="userSpaceOnUse"><stop stop-color="#4F5EA6"/><stop offset=".99" stop-color="#3B4C9D"/></linearGradient><linearGradient id="n" x1="34.057" x2="4.981" y1="25.03" y2="25.03" gradientUnits="userSpaceOnUse"><stop stop-color="#338ECC"/><stop offset="1" stop-color="#62B6E0"/></linearGradient><linearGradient id="o" x1="45.066" x2="26.848" y1="38.258" y2="38.258" gradientUnits="userSpaceOnUse"><stop stop-color="#2277AF"/><stop offset=".26" stop-color="#1F73AA"/><stop offset=".53" stop-color="#19689E"/><stop offset=".7" stop-color="#145E92"/><stop offset=".82" stop-color="#146D9E"/></linearGradient><linearGradient id="p" x1="51.882" x2="19.723" y1="41.425" y2="25.878" gradientUnits="userSpaceOnUse"><stop offset=".22" stop-color="#48A1D9"/><stop offset=".8" stop-color="#3383C2"/></linearGradient><linearGradient id="q" x1="27.052" x2="4.975" y1="36.216" y2="36.216" gradientUnits="userSpaceOnUse"><stop stop-color="#2277AF"/><stop offset=".26" stop-color="#1F73AA"/><stop offset=".53" stop-color="#19689E"/><stop offset=".7" stop-color="#145E92"/><stop offset=".82" stop-color="#146D9E"/></linearGradient><linearGradient id="r" x1="33.694" x2="29.095" y1="23.033" y2="23.033" gradientUnits="userSpaceOnUse"><stop offset=".23" stop-color="#6E87BD"/><stop offset=".92" stop-color="#6E87BD"/></linearGradient><linearGradient id="s" x1="32.302" x2="26.368" y1="24.272" y2="28.97" gradientUnits="userSpaceOnUse"><stop offset=".11" stop-color="#586DA9"/><stop offset=".69" stop-color="#4F5EA6"/><stop offset="1" stop-color="#3B4C9D"/></linearGradient><linearGradient id="t" x1="31.95" x2="33.77" y1="23.788" y2="26.447" gradientUnits="userSpaceOnUse"><stop stop-color="#3B4C9D"/><stop offset="1" stop-color="#4F5EA6"/></linearGradient><linearGradient id="u" x1="32.999" x2="31.092" y1="23.033" y2="23.033" gradientUnits="userSpaceOnUse"><stop stop-color="#4F5EA6"/><stop offset=".99" stop-color="#344893"/></linearGradient><linearGradient id="v" x1="15.064" x2="17.061" y1="31.981" y2="35.31" gradientUnits="userSpaceOnUse"><stop stop-color="#4F5EA6"/><stop offset=".99" stop-color="#3B4C9D"/></linearGradient><linearGradient id="w" x1="16.234" x2="17.107" y1="40.466" y2="40.541" gradientUnits="userSpaceOnUse"><stop stop-color="#4F5EA6"/><stop offset=".99" stop-color="#3B4C9D"/></linearGradient><linearGradient id="x" x1="11.937" x2="19.832" y1="31.957" y2="10.749" gradientUnits="userSpaceOnUse"><stop stop-color="#fff" stop-opacity="0"/><stop offset=".11" stop-color="#fff" stop-opacity=".02"/><stop offset=".23" stop-color="#fff" stop-opacity=".07"/><stop offset=".36" stop-color="#fff" stop-opacity=".16"/><stop offset=".5" stop-color="#fff" stop-opacity=".29"/><stop offset=".64" stop-color="#fff" stop-opacity=".45"/><stop offset=".78" stop-color="#fff" stop-opacity=".64"/><stop offset=".93" stop-color="#fff" stop-opacity=".87"/><stop offset="1" stop-color="#fff"/></linearGradient><linearGradient id="y" x1="36.804" x2="39.496" y1="14.164" y2="27.115" gradientUnits="userSpaceOnUse"><stop stop-color="#fff"/><stop offset="1" stop-color="#fff" stop-opacity="0"/></linearGradient><linearGradient id="z" x1="48.277" x2="26.628" y1="22.862" y2="22.862" gradientUnits="userSpaceOnUse"><stop offset=".06" stop-color="#DBECF7"/><stop offset="1" stop-color="#CCEAFF"/></linearGradient><linearGradient id="A" x1="22.117" x2="1.68" y1="22.961" y2="22.961" gradientUnits="userSpaceOnUse"><stop offset=".06" stop-color="#DBECF7"/><stop offset="1" stop-color="#CCEAFF"/></linearGradient><linearGradient id="B" x1="21.886" x2="27.384" y1="1.329" y2="12.62" gradientUnits="userSpaceOnUse"><stop offset=".04" stop-color="#D2EBFF"/><stop offset=".56" stop-color="#DBECF7"/><stop offset="1" stop-color="#EDF5FA"/></linearGradient><linearGradient id="C" x1="22.821" x2="28.319" y1=".875" y2="12.166" gradientUnits="userSpaceOnUse"><stop offset=".04" stop-color="#D2EBFF"/><stop offset=".49" stop-color="#DBECF7"/><stop offset=".83" stop-color="#EDF5FA"/></linearGradient><linearGradient id="D" x1="25.203" x2="23.952" y1="4.65" y2="1.287" gradientUnits="userSpaceOnUse"><stop stop-color="#fff" stop-opacity="0"/><stop offset="1" stop-color="#fff"/></linearGradient><linearGradient id="E" x1="48.33" x2="1.677" y1="45.771" y2="45.771" gradientUnits="userSpaceOnUse"><stop stop-color="#D2EAFB"/><stop offset=".31" stop-color="#fff"/><stop offset=".37" stop-color="#EBF6FF"/><stop offset=".46" stop-color="#D4EDFF"/><stop offset=".52" stop-color="#CCEAFF"/><stop offset=".63" stop-color="#B4DAF3"/><stop offset=".73" stop-color="#A3D0EB"/><stop offset=".81" stop-color="#9ECDE9"/><stop offset="1" stop-color="#CCEAFF"/></linearGradient></defs></svg>