<svg xmlns="http://www.w3.org/2000/svg" width="72" height="60" fill="none"><path fill="url(#a)" d="M36.289 18.478c-2.891-5.839-10.057-11.5-15.087-9.653 0 .06-9.019 4.971-9.019 4.971l6.808 12.948 13.237.404 4.06-8.67Z"/><path fill="url(#b)" d="m28.91 23.006 7.858-4.623c2.927-1.314 8.894.677 13.103 5.858 3.443 4.238 6.9 12.235 5.184 18.435a6.696 6.696 0 0 1-3.062 3.962c-2.957 1.751-8.542 4.965-8.542 4.965L28.909 23.005Z"/><path fill="url(#c)" d="M11.32 29.027a38.067 38.067 0 0 0 2.786 5.612l.371.628C19.62 43.914 28.517 60 28.517 60l14.051-7.915 2.366-1.334c.515-.319.97-.724 1.347-1.199 2.428-2.957 2.628-8.966-.329-15.524-3.47-7.632-8.87-11.17-12.333-11.716-3.145-.486-4.702.693-4.702.693s-1.616-3.696-5.78-7.09c-4.162-3.394-9.323-4.317-11.942-1.078-2.063 2.537-2.418 7.725.125 14.19Z"/><path fill="url(#d)" d="M11.325 29.027a38.065 38.065 0 0 0 2.786 5.612l.371.627 8.125 4.709a.917.917 0 0 0 .808.059.937.937 0 0 0 .549-.598l1.538-5.198 3.942 21.132c.023.658 1.535 2.077 1.827.483l2.106-10.684 1.314 9.157c.07.837 1.462 1.97 1.804.617l1.597-5.349 4.481 2.494 2.366-1.334c.515-.319.97-.724 1.347-1.199l-7.958-4.419a.926.926 0 0 0-.788-.056c-.26.102-.782 2.602-.868 2.865l-.703 2.169-1.534-9.992c-.066-.447-.44-1.245-.89-1.258h-.027a.927.927 0 0 0-.91.74L30.394 50.37l-3.782-19.808c-.079-.424-.437-1.2-.864-1.223a.913.913 0 0 0-.94.657l-2.267 5.53-11.216-6.499Z" opacity=".5"/><path fill="url(#e)" d="m7.264 42.17 1.518 7.169 5.651 5.414-5.556-1.14-1.613 5.411-1.613-7.215L0 46.444l5.618 1.203 1.646-5.477Z"/><path fill="url(#f)" d="m8.778 49.338 1.488-.805 5.635 5.379-1.472.84-5.651-5.414Z"/><path fill="url(#g)" d="m0 46.444 1.534-.887 4.432.854-.348 1.235L0 46.444Z"/><path fill="url(#h)" d="m10.014 53.883-1.33 4.399-1.423.742 1.613-5.411 1.14.27Z"/><path fill="url(#i)" d="m7.261 42.17 1.423-.917 1.584 7.28-1.489.805-1.518-7.169Z"/><path fill="url(#j)" d="m61.066 17.14 1.824 8.592 6.771 6.489-6.66-1.364-1.935 6.49-1.935-8.655-6.771-6.43 6.735 1.443 1.971-6.565Z"/><path fill="url(#k)" d="m62.89 25.732 1.781-.966 6.755 6.45-1.764 1.005-6.772-6.489Z"/><path fill="url(#l)" d="m52.36 22.263 1.84-1.065 5.312 1.026-.417 1.481-6.735-1.442Z"/><path fill="url(#m)" d="m64.368 31.18-1.593 5.273-1.709.893 1.935-6.488 1.367.322Z"/><path fill="url(#n)" d="m61.066 17.14 1.709-1.1 1.895 8.726-1.78.966-1.824-8.591Z"/><path fill="url(#o)" d="m6.174 25.663.135.328.167.194a1.281 1.281 0 0 0 .457 1.045l.884.513.02.02 10.076 5.943 4.238 2.526.845.536.716-.4a.94.94 0 0 0 .414-.53l1.334-4.501 1.209 5.257.683 3.098L29.6 51.77c.087.381.31.717.628.946l.125.585.657-.362.036-.02.043-.022a.94.94 0 0 0 .328-.658l1.798-9.133.782 2.77.358 1.412.496 3.424c.071.408.297.772.63 1.018l.139.536.617-.329.06-.033a.83.83 0 0 0 .348-.548l1.527-5.165.056-.188 15.416 8.99c.02 0 .562-.312.562-.312a.585.585 0 0 0 .27-.227 1.68 1.68 0 0 0-.201-1.59.512.512 0 0 0-.165-.138l-15.97-8.894a.924.924 0 0 0-.789-.053l-.036.02-.122.069-.026.02-.361.203-.227.132-.434 1.367-.134.328-1.426-9.373c-.066-.447-.44-1.246-.89-1.259h-.027a.889.889 0 0 0-.4.092l-.047.026-.657.362v1.002l-2.159 9.364-3.65-19.155c-.079-.424-.437-1.199-.867-1.222a.906.906 0 0 0-.496.115l-.657.371.101.243-.272 1.278-1.482 5.027-.417 1.406-14.815-8.542c-.358-.21-.798-.447-1.09-.292l-.06.033-.525.269Z"/><path fill="url(#p)" d="m36.821 44.072.306 1.16 15.737 8.213 1.426-.595a.512.512 0 0 0-.164-.138l-15.97-8.893a.922.922 0 0 0-.79-.053l-.035.02-.122.069-.026.02-.362.197Z"/><path fill="url(#q)" d="m6.174 25.663.135.329.167.194a.263.263 0 0 0 0 .059L21.99 35.23l1.702-1.702-.598-.753-.417 1.406L7.863 25.64c-.359-.21-.799-.447-1.091-.292l-.06.033-.538.282Z"/><path fill="url(#r)" d="m33.067 40.697-2.842 12.019.125.585.657-.362.037-.02.042-.022a.94.94 0 0 0 .329-.658l1.797-9.133.782 2.77.358 1.412.496 3.424c.072.408.297.772.63 1.018l.139.536.618-.329.059-.033a.831.831 0 0 0 .348-.548l1.528-5.165-.536-.887-2.477 5.966-2.09-10.573Z"/><path fill="url(#s)" d="m22.149 36.23.844.535.716-.401a.94.94 0 0 0 .414-.53l1.334-4.5 1.21 5.257.683 3.098 2.247 12.077c.087.382.31.718.627.947L25.053 29.2l-2.904 7.028Z"/><path fill="url(#t)" d="m30.797 52.598 2.106-10.685 1.315 9.16c.068.835 1.461 1.972 1.803.618l1.587-5.352 14.982 8.345c.45.25 1.015.552 1.265.105.25-.447.089-1.478-.361-1.728l-15.971-8.89a.931.931 0 0 0-1.334.525l-.707 2.172-1.517-9.991c-.066-.447-.44-1.245-.894-1.259h-.026a.93.93 0 0 0-.91.743l-2.218 10.767-3.779-19.809c-.078-.424-.437-1.199-.864-1.222a.92.92 0 0 0-.94.657l-2.3 7.77-14.81-8.542c-.444-.256-1.012-.572-1.268-.125-.257.447-.106 1.475.328 1.735l15.833 9.143a.928.928 0 0 0 1.357-.538l1.538-5.198 3.942 21.13c.043.63 1.554 2.066 1.843.469Z"/><path fill="url(#u)" d="m46.04.733 1.212 5.726 4.514 4.328-4.439-.91L46.04 14.2l-1.29-5.766-4.515-4.287 4.491.962L46.04.733Z"/><path fill="url(#v)" d="m47.252 6.46 1.19-.645 4.504 4.301-1.18.67-4.514-4.327Z"/><path fill="url(#w)" d="m40.234 4.146 1.225-.71 3.542.684-.276.989-4.491-.963Z"/><path fill="url(#x)" d="m48.244 10.09-1.065 3.515-1.136.595 1.288-4.324.913.214Z"/><path fill="url(#y)" d="M46.043.733 47.179 0l1.265 5.815-1.189.644L46.043.733Z"/><defs><linearGradient id="a" x1="18.14" x2="31.423" y1="8.5" y2="28.006" gradientUnits="userSpaceOnUse"><stop stop-color="#E46825"/><stop offset=".25" stop-color="#F37423"/><stop offset=".84" stop-color="#CC5824"/></linearGradient><linearGradient id="b" x1="34.281" x2="50.748" y1="17.805" y2="44.358" gradientUnits="userSpaceOnUse"><stop stop-color="#E46825"/><stop offset=".25" stop-color="#F07E28"/><stop offset=".39" stop-color="#E87428"/><stop offset=".49" stop-color="#DF6927"/><stop offset=".71" stop-color="#D45C27"/><stop offset=".81" stop-color="#C65523"/><stop offset=".9" stop-color="#C05221"/><stop offset="1" stop-color="#CB5824"/></linearGradient><linearGradient id="c" x1="53.66" x2="8.609" y1="10.537" y2="49.684" gradientUnits="userSpaceOnUse"><stop offset=".05" stop-color="#FFA538"/><stop offset=".46" stop-color="#FF8E2C"/><stop offset=".49" stop-color="#FF8B2A"/><stop offset=".61" stop-color="#FF8024"/><stop offset=".76" stop-color="#FF7D22"/><stop offset="1" stop-color="#DD6424"/></linearGradient><linearGradient id="d" x1="23.839" x2="32.194" y1="44.081" y2="36.081" gradientUnits="userSpaceOnUse"><stop offset=".19" stop-color="#A03D16" stop-opacity=".6"/><stop offset=".9" stop-color="#A03D16"/></linearGradient><linearGradient id="e" x1="4.537" x2="12.219" y1="54.891" y2="42.587" gradientUnits="userSpaceOnUse"><stop stop-color="#FFD15B"/><stop offset=".98" stop-color="#FFE7AB"/></linearGradient><linearGradient id="f" x1="15.71" x2="-3.622" y1="54.168" y2="39.653" gradientUnits="userSpaceOnUse"><stop stop-color="#F6BD45"/><stop offset=".51" stop-color="#FFCB46"/><stop offset="1" stop-color="#FFD362"/></linearGradient><linearGradient id="g" x1="6.4" x2="-.565" y1="49.154" y2="43.599" gradientUnits="userSpaceOnUse"><stop stop-color="#F6BD45"/><stop offset=".51" stop-color="#FFCB46"/><stop offset="1" stop-color="#FFD362"/></linearGradient><linearGradient id="h" x1="8.796" x2="8.503" y1="53.797" y2="58.745" gradientUnits="userSpaceOnUse"><stop stop-color="#E1983F"/><stop offset="1" stop-color="#F3AF35"/></linearGradient><linearGradient id="i" x1="9.719" x2="7.219" y1="47.972" y2="41.187" gradientUnits="userSpaceOnUse"><stop stop-color="#F5AC36"/><stop offset=".67" stop-color="#FFC654"/><stop offset="1" stop-color="#FFCA59"/></linearGradient><linearGradient id="j" x1="57.797" x2="67.007" y1="32.389" y2="17.637" gradientUnits="userSpaceOnUse"><stop stop-color="#FFD15B"/><stop offset=".98" stop-color="#FFE7AB"/></linearGradient><linearGradient id="k" x1="71.199" x2="48.023" y1="31.521" y2="14.118" gradientUnits="userSpaceOnUse"><stop stop-color="#F6BD45"/><stop offset=".51" stop-color="#FFCB46"/><stop offset="1" stop-color="#FFD362"/></linearGradient><linearGradient id="l" x1="60.031" x2="51.683" y1="25.509" y2="18.853" gradientUnits="userSpaceOnUse"><stop stop-color="#F6BD45"/><stop offset=".51" stop-color="#FFCB46"/><stop offset="1" stop-color="#FFD362"/></linearGradient><linearGradient id="m" x1="62.952" x2="62.604" y1="30.289" y2="36.22" gradientUnits="userSpaceOnUse"><stop stop-color="#E1983F"/><stop offset="1" stop-color="#F3AF35"/></linearGradient><linearGradient id="n" x1="64.013" x2="61.017" y1="24.096" y2="15.961" gradientUnits="userSpaceOnUse"><stop stop-color="#F5AC36"/><stop offset=".67" stop-color="#FFC654"/><stop offset="1" stop-color="#FFCA59"/></linearGradient><linearGradient id="o" x1="28.417" x2="31.903" y1="50.032" y2="32.03" gradientUnits="userSpaceOnUse"><stop stop-color="#55AADB"/><stop offset="1" stop-color="#77B6DE"/></linearGradient><linearGradient id="p" x1="67.672" x2="36.821" y1="66.291" y2="42.041" gradientUnits="userSpaceOnUse"><stop offset=".05" stop-color="#62B6E0"/><stop offset="1" stop-color="#96C8E6"/></linearGradient><linearGradient id="q" x1="28.532" x2="-.982" y1="37.764" y2="20.029" gradientUnits="userSpaceOnUse"><stop offset=".05" stop-color="#62B6E0"/><stop offset="1" stop-color="#96C8E6"/></linearGradient><linearGradient id="r" x1="31.776" x2="37.467" y1="48.556" y2="44.144" gradientUnits="userSpaceOnUse"><stop stop-color="#55AADB"/><stop offset=".53" stop-color="#338ECD"/><stop offset="1" stop-color="#2880C6"/></linearGradient><linearGradient id="s" x1="26.541" x2="32.232" y1="41.808" y2="37.395" gradientUnits="userSpaceOnUse"><stop stop-color="#55AADB"/><stop offset=".53" stop-color="#338ECD"/><stop offset="1" stop-color="#2880C6"/></linearGradient><linearGradient id="t" x1="61.198" x2="10.266" y1="50.903" y2="33.87" gradientUnits="userSpaceOnUse"><stop stop-color="#D9EAF5"/><stop offset="1" stop-color="#C6E8F5"/></linearGradient><linearGradient id="u" x1="43.858" x2="49.998" y1="10.898" y2="1.065" gradientUnits="userSpaceOnUse"><stop stop-color="#FFD15B"/><stop offset=".98" stop-color="#FFE7AB"/></linearGradient><linearGradient id="v" x1="52.791" x2="37.343" y1="10.32" y2="-1.281" gradientUnits="userSpaceOnUse"><stop stop-color="#F6BD45"/><stop offset=".51" stop-color="#FFCB46"/><stop offset="1" stop-color="#FFD362"/></linearGradient><linearGradient id="w" x1="45.349" x2="39.784" y1="6.311" y2="1.873" gradientUnits="userSpaceOnUse"><stop stop-color="#F6BD45"/><stop offset=".51" stop-color="#FFCB46"/><stop offset="1" stop-color="#FFD362"/></linearGradient><linearGradient id="x" x1="47.291" x2="47.061" y1="9.597" y2="13.549" gradientUnits="userSpaceOnUse"><stop stop-color="#E1983F"/><stop offset="1" stop-color="#F3AF35"/></linearGradient><linearGradient id="y" x1="48.008" x2="46.01" y1="5.369" y2="-.053" gradientUnits="userSpaceOnUse"><stop stop-color="#F5AC36"/><stop offset=".67" stop-color="#FFC654"/><stop offset="1" stop-color="#FFCA59"/></linearGradient></defs></svg>